<svg xmlns="http://www.w3.org/2000/svg" width="1000" height="1000" viewBox="0 0 1000 1000" fill="none">
<defs>
<linearGradient id="bg" x1="0" y1="0" x2="0.4" y2="1"><stop offset="0" stop-color="#16210d"/><stop offset="0.55" stop-color="#0d1607"/><stop offset="1" stop-color="#050802"/></linearGradient>
<radialGradient id="glow" cx="0.62" cy="0.47" r="0.6"><stop offset="0" stop-color="#9cff5a" stop-opacity="0.22"/><stop offset="0.5" stop-color="#9cff5a" stop-opacity="0.05"/><stop offset="1" stop-color="#9cff5a" stop-opacity="0"/></radialGradient>
<filter id="bloom" x="-60%" y="-60%" width="220%" height="220%"><feGaussianBlur stdDeviation="11"/></filter>
<radialGradient id="vig" cx="0.5" cy="0.46" r="0.78"><stop offset="0.55" stop-color="#000" stop-opacity="0"/><stop offset="1" stop-color="#000" stop-opacity="0.46"/></radialGradient>
</defs>
<rect width="1000" height="1000" fill="url(#bg)"/>
<rect width="1000" height="1000" fill="url(#glow)"/>
<circle cx="70" cy="120" r="2" fill="#9cff5a" fill-opacity="0.05"/><circle cx="126" cy="120" r="2" fill="#9cff5a" fill-opacity="0.05"/><circle cx="182" cy="120" r="2" fill="#9cff5a" fill-opacity="0.05"/><circle cx="238" cy="120" r="2" fill="#9cff5a" fill-opacity="0.05"/><circle cx="294" cy="120" r="2" fill="#9cff5a" fill-opacity="0.05"/><circle cx="350" cy="120" r="2" fill="#9cff5a" fill-opacity="0.05"/><circle cx="406" cy="120" r="2" fill="#9cff5a" fill-opacity="0.05"/><circle cx="462" cy="120" r="2" fill="#9cff5a" fill-opacity="0.05"/><circle cx="518" cy="120" r="2" fill="#9cff5a" fill-opacity="0.05"/><circle cx="574" cy="120" r="2" fill="#9cff5a" fill-opacity="0.05"/><circle cx="630" cy="120" r="2" fill="#9cff5a" fill-opacity="0.05"/><circle cx="686" cy="120" r="2" fill="#9cff5a" fill-opacity="0.05"/><circle cx="742" cy="120" r="2" fill="#9cff5a" fill-opacity="0.05"/><circle cx="798" cy="120" r="2" fill="#9cff5a" fill-opacity="0.05"/><circle cx="854" cy="120" r="2" fill="#9cff5a" fill-opacity="0.05"/><circle cx="910" cy="120" r="2" fill="#9cff5a" fill-opacity="0.05"/><circle cx="70" cy="176" r="2" fill="#9cff5a" fill-opacity="0.05"/><circle cx="126" cy="176" r="2" fill="#9cff5a" fill-opacity="0.05"/><circle cx="182" cy="176" r="2" fill="#9cff5a" fill-opacity="0.05"/><circle cx="238" cy="176" r="2" fill="#9cff5a" fill-opacity="0.05"/><circle cx="294" cy="176" r="2" fill="#9cff5a" fill-opacity="0.05"/><circle cx="350" cy="176" r="2" fill="#9cff5a" fill-opacity="0.05"/><circle cx="406" cy="176" r="2" fill="#9cff5a" fill-opacity="0.05"/><circle cx="462" cy="176" r="2" fill="#9cff5a" fill-opacity="0.05"/><circle cx="518" cy="176" r="2" fill="#9cff5a" fill-opacity="0.05"/><circle cx="574" cy="176" r="2" fill="#9cff5a" fill-opacity="0.05"/><circle cx="630" cy="176" r="2" fill="#9cff5a" fill-opacity="0.05"/><circle cx="686" cy="176" r="2" fill="#9cff5a" fill-opacity="0.05"/><circle cx="742" cy="176" r="2" fill="#9cff5a" fill-opacity="0.05"/><circle cx="798" cy="176" r="2" fill="#9cff5a" fill-opacity="0.05"/><circle cx="854" cy="176" r="2" fill="#9cff5a" fill-opacity="0.05"/><circle cx="910" cy="176" r="2" fill="#9cff5a" fill-opacity="0.05"/><circle cx="70" cy="232" r="2" fill="#9cff5a" fill-opacity="0.05"/><circle cx="126" cy="232" r="2" fill="#9cff5a" fill-opacity="0.05"/><circle cx="182" cy="232" r="2" fill="#9cff5a" fill-opacity="0.05"/><circle cx="238" cy="232" r="2" fill="#9cff5a" fill-opacity="0.05"/><circle cx="294" cy="232" r="2" fill="#9cff5a" fill-opacity="0.05"/><circle cx="350" cy="232" r="2" fill="#9cff5a" fill-opacity="0.05"/><circle cx="406" cy="232" r="2" fill="#9cff5a" fill-opacity="0.05"/><circle cx="462" cy="232" r="2" fill="#9cff5a" fill-opacity="0.05"/><circle cx="518" cy="232" r="2" fill="#9cff5a" fill-opacity="0.05"/><circle cx="574" cy="232" r="2" fill="#9cff5a" fill-opacity="0.05"/><circle cx="630" cy="232" r="2" fill="#9cff5a" fill-opacity="0.05"/><circle cx="686" cy="232" r="2" fill="#9cff5a" fill-opacity="0.05"/><circle cx="742" cy="232" r="2" fill="#9cff5a" fill-opacity="0.05"/><circle cx="798" cy="232" r="2" fill="#9cff5a" fill-opacity="0.05"/><circle cx="854" cy="232" r="2" fill="#9cff5a" fill-opacity="0.05"/><circle cx="910" cy="232" r="2" fill="#9cff5a" fill-opacity="0.05"/><circle cx="70" cy="288" r="2" fill="#9cff5a" fill-opacity="0.05"/><circle cx="126" cy="288" r="2" fill="#9cff5a" fill-opacity="0.05"/><circle cx="182" cy="288" r="2" fill="#9cff5a" fill-opacity="0.05"/><circle cx="238" cy="288" r="2" fill="#9cff5a" fill-opacity="0.05"/><circle cx="294" cy="288" r="2" fill="#9cff5a" fill-opacity="0.05"/><circle cx="350" cy="288" r="2" fill="#9cff5a" fill-opacity="0.05"/><circle cx="406" cy="288" r="2" fill="#9cff5a" fill-opacity="0.05"/><circle cx="462" cy="288" r="2" fill="#9cff5a" fill-opacity="0.05"/><circle cx="518" cy="288" r="2" fill="#9cff5a" fill-opacity="0.05"/><circle cx="574" cy="288" r="2" fill="#9cff5a" fill-opacity="0.05"/><circle cx="630" cy="288" r="2" fill="#9cff5a" fill-opacity="0.05"/><circle cx="686" cy="288" r="2" fill="#9cff5a" fill-opacity="0.05"/><circle cx="742" cy="288" r="2" fill="#9cff5a" fill-opacity="0.05"/><circle cx="798" cy="288" r="2" fill="#9cff5a" fill-opacity="0.05"/><circle cx="854" cy="288" r="2" fill="#9cff5a" fill-opacity="0.05"/><circle cx="910" cy="288" r="2" fill="#9cff5a" fill-opacity="0.05"/><circle cx="70" cy="344" r="2" fill="#9cff5a" fill-opacity="0.05"/><circle cx="126" cy="344" r="2" fill="#9cff5a" fill-opacity="0.05"/><circle cx="182" cy="344" r="2" fill="#9cff5a" fill-opacity="0.05"/><circle cx="238" cy="344" r="2" fill="#9cff5a" fill-opacity="0.05"/><circle cx="294" cy="344" r="2" fill="#9cff5a" fill-opacity="0.05"/><circle cx="350" cy="344" r="2" fill="#9cff5a" fill-opacity="0.05"/><circle cx="406" cy="344" r="2" fill="#9cff5a" fill-opacity="0.05"/><circle cx="462" cy="344" r="2" fill="#9cff5a" fill-opacity="0.05"/><circle cx="518" cy="344" r="2" fill="#9cff5a" fill-opacity="0.05"/><circle cx="574" cy="344" r="2" fill="#9cff5a" fill-opacity="0.05"/><circle cx="630" cy="344" r="2" fill="#9cff5a" fill-opacity="0.05"/><circle cx="686" cy="344" r="2" fill="#9cff5a" fill-opacity="0.05"/><circle cx="742" cy="344" r="2" fill="#9cff5a" fill-opacity="0.05"/><circle cx="798" cy="344" r="2" fill="#9cff5a" fill-opacity="0.05"/><circle cx="854" cy="344" r="2" fill="#9cff5a" fill-opacity="0.05"/><circle cx="910" cy="344" r="2" fill="#9cff5a" fill-opacity="0.05"/><circle cx="70" cy="400" r="2" fill="#9cff5a" fill-opacity="0.05"/><circle cx="126" cy="400" r="2" fill="#9cff5a" fill-opacity="0.05"/><circle cx="182" cy="400" r="2" fill="#9cff5a" fill-opacity="0.05"/><circle cx="238" cy="400" r="2" fill="#9cff5a" fill-opacity="0.05"/><circle cx="294" cy="400" r="2" fill="#9cff5a" fill-opacity="0.05"/><circle cx="350" cy="400" r="2" fill="#9cff5a" fill-opacity="0.05"/><circle cx="406" cy="400" r="2" fill="#9cff5a" fill-opacity="0.05"/><circle cx="462" cy="400" r="2" fill="#9cff5a" fill-opacity="0.05"/><circle cx="518" cy="400" r="2" fill="#9cff5a" fill-opacity="0.05"/><circle cx="574" cy="400" r="2" fill="#9cff5a" fill-opacity="0.05"/><circle cx="630" cy="400" r="2" fill="#9cff5a" fill-opacity="0.05"/><circle cx="686" cy="400" r="2" fill="#9cff5a" fill-opacity="0.05"/><circle cx="742" cy="400" r="2" fill="#9cff5a" fill-opacity="0.05"/><circle cx="798" cy="400" r="2" fill="#9cff5a" fill-opacity="0.05"/><circle cx="854" cy="400" r="2" fill="#9cff5a" fill-opacity="0.05"/><circle cx="910" cy="400" r="2" fill="#9cff5a" fill-opacity="0.05"/><circle cx="70" cy="456" r="2" fill="#9cff5a" fill-opacity="0.05"/><circle cx="126" cy="456" r="2" fill="#9cff5a" fill-opacity="0.05"/><circle cx="182" cy="456" r="2" fill="#9cff5a" fill-opacity="0.05"/><circle cx="238" cy="456" r="2" fill="#9cff5a" fill-opacity="0.05"/><circle cx="294" cy="456" r="2" fill="#9cff5a" fill-opacity="0.05"/><circle cx="350" cy="456" r="2" fill="#9cff5a" fill-opacity="0.05"/><circle cx="406" cy="456" r="2" fill="#9cff5a" fill-opacity="0.05"/><circle cx="462" cy="456" r="2" fill="#9cff5a" fill-opacity="0.05"/><circle cx="518" cy="456" r="2" fill="#9cff5a" fill-opacity="0.05"/><circle cx="574" cy="456" r="2" fill="#9cff5a" fill-opacity="0.05"/><circle cx="630" cy="456" r="2" fill="#9cff5a" fill-opacity="0.05"/><circle cx="686" cy="456" r="2" fill="#9cff5a" fill-opacity="0.05"/><circle cx="742" cy="456" r="2" fill="#9cff5a" fill-opacity="0.05"/><circle cx="798" cy="456" r="2" fill="#9cff5a" fill-opacity="0.05"/><circle cx="854" cy="456" r="2" fill="#9cff5a" fill-opacity="0.05"/><circle cx="910" cy="456" r="2" fill="#9cff5a" fill-opacity="0.05"/><circle cx="70" cy="512" r="2" fill="#9cff5a" fill-opacity="0.05"/><circle cx="126" cy="512" r="2" fill="#9cff5a" fill-opacity="0.05"/><circle cx="182" cy="512" r="2" fill="#9cff5a" fill-opacity="0.05"/><circle cx="238" cy="512" r="2" fill="#9cff5a" fill-opacity="0.05"/><circle cx="294" cy="512" r="2" fill="#9cff5a" fill-opacity="0.05"/><circle cx="350" cy="512" r="2" fill="#9cff5a" fill-opacity="0.05"/><circle cx="406" cy="512" r="2" fill="#9cff5a" fill-opacity="0.05"/><circle cx="462" cy="512" r="2" fill="#9cff5a" fill-opacity="0.05"/><circle cx="518" cy="512" r="2" fill="#9cff5a" fill-opacity="0.05"/><circle cx="574" cy="512" r="2" fill="#9cff5a" fill-opacity="0.05"/><circle cx="630" cy="512" r="2" fill="#9cff5a" fill-opacity="0.05"/><circle cx="686" cy="512" r="2" fill="#9cff5a" fill-opacity="0.05"/><circle cx="742" cy="512" r="2" fill="#9cff5a" fill-opacity="0.05"/><circle cx="798" cy="512" r="2" fill="#9cff5a" fill-opacity="0.05"/><circle cx="854" cy="512" r="2" fill="#9cff5a" fill-opacity="0.05"/><circle cx="910" cy="512" r="2" fill="#9cff5a" fill-opacity="0.05"/><circle cx="70" cy="568" r="2" fill="#9cff5a" fill-opacity="0.05"/><circle cx="126" cy="568" r="2" fill="#9cff5a" fill-opacity="0.05"/><circle cx="182" cy="568" r="2" fill="#9cff5a" fill-opacity="0.05"/><circle cx="238" cy="568" r="2" fill="#9cff5a" fill-opacity="0.05"/><circle cx="294" cy="568" r="2" fill="#9cff5a" fill-opacity="0.05"/><circle cx="350" cy="568" r="2" fill="#9cff5a" fill-opacity="0.05"/><circle cx="406" cy="568" r="2" fill="#9cff5a" fill-opacity="0.05"/><circle cx="462" cy="568" r="2" fill="#9cff5a" fill-opacity="0.05"/><circle cx="518" cy="568" r="2" fill="#9cff5a" fill-opacity="0.05"/><circle cx="574" cy="568" r="2" fill="#9cff5a" fill-opacity="0.05"/><circle cx="630" cy="568" r="2" fill="#9cff5a" fill-opacity="0.05"/><circle cx="686" cy="568" r="2" fill="#9cff5a" fill-opacity="0.05"/><circle cx="742" cy="568" r="2" fill="#9cff5a" fill-opacity="0.05"/><circle cx="798" cy="568" r="2" fill="#9cff5a" fill-opacity="0.05"/><circle cx="854" cy="568" r="2" fill="#9cff5a" fill-opacity="0.05"/><circle cx="910" cy="568" r="2" fill="#9cff5a" fill-opacity="0.05"/><circle cx="70" cy="624" r="2" fill="#9cff5a" fill-opacity="0.05"/><circle cx="126" cy="624" r="2" fill="#9cff5a" fill-opacity="0.05"/><circle cx="182" cy="624" r="2" fill="#9cff5a" fill-opacity="0.05"/><circle cx="238" cy="624" r="2" fill="#9cff5a" fill-opacity="0.05"/><circle cx="294" cy="624" r="2" fill="#9cff5a" fill-opacity="0.05"/><circle cx="350" cy="624" r="2" fill="#9cff5a" fill-opacity="0.05"/><circle cx="406" cy="624" r="2" fill="#9cff5a" fill-opacity="0.05"/><circle cx="462" cy="624" r="2" fill="#9cff5a" fill-opacity="0.05"/><circle cx="518" cy="624" r="2" fill="#9cff5a" fill-opacity="0.05"/><circle cx="574" cy="624" r="2" fill="#9cff5a" fill-opacity="0.05"/><circle cx="630" cy="624" r="2" fill="#9cff5a" fill-opacity="0.05"/><circle cx="686" cy="624" r="2" fill="#9cff5a" fill-opacity="0.05"/><circle cx="742" cy="624" r="2" fill="#9cff5a" fill-opacity="0.05"/><circle cx="798" cy="624" r="2" fill="#9cff5a" fill-opacity="0.05"/><circle cx="854" cy="624" r="2" fill="#9cff5a" fill-opacity="0.05"/><circle cx="910" cy="624" r="2" fill="#9cff5a" fill-opacity="0.05"/><circle cx="70" cy="680" r="2" fill="#9cff5a" fill-opacity="0.05"/><circle cx="126" cy="680" r="2" fill="#9cff5a" fill-opacity="0.05"/><circle cx="182" cy="680" r="2" fill="#9cff5a" fill-opacity="0.05"/><circle cx="238" cy="680" r="2" fill="#9cff5a" fill-opacity="0.05"/><circle cx="294" cy="680" r="2" fill="#9cff5a" fill-opacity="0.05"/><circle cx="350" cy="680" r="2" fill="#9cff5a" fill-opacity="0.05"/><circle cx="406" cy="680" r="2" fill="#9cff5a" fill-opacity="0.05"/><circle cx="462" cy="680" r="2" fill="#9cff5a" fill-opacity="0.05"/><circle cx="518" cy="680" r="2" fill="#9cff5a" fill-opacity="0.05"/><circle cx="574" cy="680" r="2" fill="#9cff5a" fill-opacity="0.05"/><circle cx="630" cy="680" r="2" fill="#9cff5a" fill-opacity="0.05"/><circle cx="686" cy="680" r="2" fill="#9cff5a" fill-opacity="0.05"/><circle cx="742" cy="680" r="2" fill="#9cff5a" fill-opacity="0.05"/><circle cx="798" cy="680" r="2" fill="#9cff5a" fill-opacity="0.05"/><circle cx="854" cy="680" r="2" fill="#9cff5a" fill-opacity="0.05"/><circle cx="910" cy="680" r="2" fill="#9cff5a" fill-opacity="0.05"/><circle cx="70" cy="736" r="2" fill="#9cff5a" fill-opacity="0.05"/><circle cx="126" cy="736" r="2" fill="#9cff5a" fill-opacity="0.05"/><circle cx="182" cy="736" r="2" fill="#9cff5a" fill-opacity="0.05"/><circle cx="238" cy="736" r="2" fill="#9cff5a" fill-opacity="0.05"/><circle cx="294" cy="736" r="2" fill="#9cff5a" fill-opacity="0.05"/><circle cx="350" cy="736" r="2" fill="#9cff5a" fill-opacity="0.05"/><circle cx="406" cy="736" r="2" fill="#9cff5a" fill-opacity="0.05"/><circle cx="462" cy="736" r="2" fill="#9cff5a" fill-opacity="0.05"/><circle cx="518" cy="736" r="2" fill="#9cff5a" fill-opacity="0.05"/><circle cx="574" cy="736" r="2" fill="#9cff5a" fill-opacity="0.05"/><circle cx="630" cy="736" r="2" fill="#9cff5a" fill-opacity="0.05"/><circle cx="686" cy="736" r="2" fill="#9cff5a" fill-opacity="0.05"/><circle cx="742" cy="736" r="2" fill="#9cff5a" fill-opacity="0.05"/><circle cx="798" cy="736" r="2" fill="#9cff5a" fill-opacity="0.05"/><circle cx="854" cy="736" r="2" fill="#9cff5a" fill-opacity="0.05"/><circle cx="910" cy="736" r="2" fill="#9cff5a" fill-opacity="0.05"/><circle cx="70" cy="792" r="2" fill="#9cff5a" fill-opacity="0.05"/><circle cx="126" cy="792" r="2" fill="#9cff5a" fill-opacity="0.05"/><circle cx="182" cy="792" r="2" fill="#9cff5a" fill-opacity="0.05"/><circle cx="238" cy="792" r="2" fill="#9cff5a" fill-opacity="0.05"/><circle cx="294" cy="792" r="2" fill="#9cff5a" fill-opacity="0.05"/><circle cx="350" cy="792" r="2" fill="#9cff5a" fill-opacity="0.05"/><circle cx="406" cy="792" r="2" fill="#9cff5a" fill-opacity="0.05"/><circle cx="462" cy="792" r="2" fill="#9cff5a" fill-opacity="0.05"/><circle cx="518" cy="792" r="2" fill="#9cff5a" fill-opacity="0.05"/><circle cx="574" cy="792" r="2" fill="#9cff5a" fill-opacity="0.05"/><circle cx="630" cy="792" r="2" fill="#9cff5a" fill-opacity="0.05"/><circle cx="686" cy="792" r="2" fill="#9cff5a" fill-opacity="0.05"/><circle cx="742" cy="792" r="2" fill="#9cff5a" fill-opacity="0.05"/><circle cx="798" cy="792" r="2" fill="#9cff5a" fill-opacity="0.05"/><circle cx="854" cy="792" r="2" fill="#9cff5a" fill-opacity="0.05"/><circle cx="910" cy="792" r="2" fill="#9cff5a" fill-opacity="0.05"/><circle cx="70" cy="848" r="2" fill="#9cff5a" fill-opacity="0.05"/><circle cx="126" cy="848" r="2" fill="#9cff5a" fill-opacity="0.05"/><circle cx="182" cy="848" r="2" fill="#9cff5a" fill-opacity="0.05"/><circle cx="238" cy="848" r="2" fill="#9cff5a" fill-opacity="0.05"/><circle cx="294" cy="848" r="2" fill="#9cff5a" fill-opacity="0.05"/><circle cx="350" cy="848" r="2" fill="#9cff5a" fill-opacity="0.05"/><circle cx="406" cy="848" r="2" fill="#9cff5a" fill-opacity="0.05"/><circle cx="462" cy="848" r="2" fill="#9cff5a" fill-opacity="0.05"/><circle cx="518" cy="848" r="2" fill="#9cff5a" fill-opacity="0.05"/><circle cx="574" cy="848" r="2" fill="#9cff5a" fill-opacity="0.05"/><circle cx="630" cy="848" r="2" fill="#9cff5a" fill-opacity="0.05"/><circle cx="686" cy="848" r="2" fill="#9cff5a" fill-opacity="0.05"/><circle cx="742" cy="848" r="2" fill="#9cff5a" fill-opacity="0.05"/><circle cx="798" cy="848" r="2" fill="#9cff5a" fill-opacity="0.05"/><circle cx="854" cy="848" r="2" fill="#9cff5a" fill-opacity="0.05"/><circle cx="910" cy="848" r="2" fill="#9cff5a" fill-opacity="0.05"/>
<path d="M 290 352 L 376 384 L 356 566 L 290 620 L 224 566 L 204 384 Z" fill="#9cff5a" fill-opacity="0.06" stroke="#9cff5a" stroke-opacity="0.45" stroke-width="3" stroke-linejoin="round"/>
<text x="290" y="510" font-family="Arial, sans-serif" font-weight="900" font-size="120" fill="#9cff5a" fill-opacity="0.5" text-anchor="middle">A</text>
<text x="290" y="666" font-family="monospace" font-size="18" letter-spacing="3" fill="#9cff5a" fill-opacity="0.45" text-anchor="middle">ANGULARJS</text>
<path d="M 386 440 C 470 350 540 350 716 440" fill="none" stroke="#9cff5a" stroke-opacity="0.3" stroke-width="2.5" stroke-dasharray="2 10" stroke-linecap="round"/>
<path d="M 540 412 l 26 6 l -10 25" fill="none" stroke="#9cff5a" stroke-opacity="0.6" stroke-width="3" stroke-linecap="round" stroke-linejoin="round"/>
<circle cx="477" cy="319" r="5" fill="#9cff5a" fill-opacity="0.85"/>
<circle cx="538" cy="290" r="5" fill="#9cff5a" fill-opacity="0.85"/>
<circle cx="599" cy="319" r="5" fill="#9cff5a" fill-opacity="0.85"/>
<circle cx="690" cy="470" r="118" fill="#9cff5a" fill-opacity="0.12" filter="url(#bloom)"/>
<ellipse cx="690" cy="470" rx="104" ry="40" transform="rotate(0 690 470)" fill="none" stroke="#9cff5a" stroke-width="3.5"/>
<ellipse cx="690" cy="470" rx="104" ry="40" transform="rotate(60 690 470)" fill="none" stroke="#9cff5a" stroke-width="3.5"/>
<ellipse cx="690" cy="470" rx="104" ry="40" transform="rotate(120 690 470)" fill="none" stroke="#9cff5a" stroke-width="3.5"/>
<circle cx="690" cy="470" r="15" fill="#9cff5a"/>
<text x="690" y="666" font-family="monospace" font-size="18" letter-spacing="3" fill="#9cff5a" text-anchor="middle">REACT</text>
<rect x="259.0" y="706.0" width="150.0" height="40.0" rx="20" fill="none" stroke="#9cff5a" stroke-width="2" stroke-opacity="0.55"/>
<text x="334" y="731" font-family="monospace" font-size="17" fill="#9cff5a" fill-opacity="0.8" text-anchor="middle">TAILWIND</text>
<rect x="425.0" y="706.0" width="150.0" height="40.0" rx="20" fill="none" stroke="#9cff5a" stroke-width="2" stroke-opacity="0.55"/>
<text x="500" y="731" font-family="monospace" font-size="17" fill="#9cff5a" fill-opacity="0.8" text-anchor="middle">REDUX</text>
<rect x="591.0" y="706.0" width="150.0" height="40.0" rx="20" fill="none" stroke="#9cff5a" stroke-width="2" stroke-opacity="0.55"/>
<text x="666" y="731" font-family="monospace" font-size="17" fill="#9cff5a" fill-opacity="0.8" text-anchor="middle">AXIOS</text>
<rect width="1000" height="1000" fill="url(#vig)"/>
</svg>