<svg xmlns="http://www.w3.org/2000/svg" width="1000" height="1000" viewBox="0 0 1000 1000" fill="none">
<defs>
<linearGradient id="bg" x1="0" y1="0" x2="0.35" y2="1"><stop offset="0" stop-color="#0b2128"/><stop offset="0.55" stop-color="#07171a"/><stop offset="1" stop-color="#050608"/></linearGradient>
<radialGradient id="glow" cx="0.5" cy="0.47" r="0.6"><stop offset="0" stop-color="#54e0e0" stop-opacity="0.30"/><stop offset="0.5" stop-color="#54e0e0" stop-opacity="0.07"/><stop offset="1" stop-color="#54e0e0" stop-opacity="0"/></radialGradient>
<filter id="soft" x="-20%" y="-20%" width="140%" height="140%"><feGaussianBlur stdDeviation="5"/></filter>
<filter id="bloom" x="-50%" y="-50%" width="200%" height="200%"><feGaussianBlur stdDeviation="13"/></filter>
<radialGradient id="vig" cx="0.5" cy="0.46" r="0.75"><stop offset="0.55" stop-color="#000000" stop-opacity="0"/><stop offset="1" stop-color="#000000" stop-opacity="0.45"/></radialGradient>
</defs>
<rect width="1000" height="1000" fill="url(#bg)"/>
<rect width="1000" height="1000" fill="url(#glow)"/>
<line x1="0" y1="235" x2="1000" y2="235" stroke="#54e0e0" stroke-opacity="0.07" stroke-width="1"/>
<line x1="0" y1="360" x2="1000" y2="360" stroke="#54e0e0" stroke-opacity="0.07" stroke-width="1"/>
<line x1="0" y1="490" x2="1000" y2="490" stroke="#54e0e0" stroke-opacity="0.07" stroke-width="1"/>
<line x1="0" y1="610" x2="1000" y2="610" stroke="#54e0e0" stroke-opacity="0.07" stroke-width="1"/>
<line x1="0" y1="720" x2="1000" y2="720" stroke="#54e0e0" stroke-opacity="0.07" stroke-width="1"/>
<line x1="120" y1="170" x2="120" y2="780" stroke="#54e0e0" stroke-opacity="0.045" stroke-width="1"/>
<line x1="240" y1="170" x2="240" y2="780" stroke="#54e0e0" stroke-opacity="0.045" stroke-width="1"/>
<line x1="360" y1="170" x2="360" y2="780" stroke="#54e0e0" stroke-opacity="0.045" stroke-width="1"/>
<line x1="480" y1="170" x2="480" y2="780" stroke="#54e0e0" stroke-opacity="0.045" stroke-width="1"/>
<line x1="600" y1="170" x2="600" y2="780" stroke="#54e0e0" stroke-opacity="0.045" stroke-width="1"/>
<line x1="720" y1="170" x2="720" y2="780" stroke="#54e0e0" stroke-opacity="0.045" stroke-width="1"/>
<line x1="840" y1="170" x2="840" y2="780" stroke="#54e0e0" stroke-opacity="0.045" stroke-width="1"/>
<line x1="960" y1="170" x2="960" y2="780" stroke="#54e0e0" stroke-opacity="0.045" stroke-width="1"/>
<polyline points="-30,252.7 -24,257.4 -18,262.0 -12,266.3 -6,270.4 0,274.3 6,277.9 12,281.3 18,284.3 24,286.9 30,289.2 36,291.2 42,292.7 48,293.9 54,294.6 60,295.0 66,294.9 72,294.4 78,293.5 84,292.2 90,290.5 96,288.5 102,286.0 108,283.2 114,280.1 120,276.7 126,273.0 132,269.0 138,264.8 144,260.4 150,255.8 156,251.0 162,246.2 168,241.3 174,236.3 180,231.3 186,226.4 192,221.5 198,216.7 204,212.0 210,207.5 216,203.2 222,199.1 228,195.2 234,191.6 240,188.4 246,185.4 252,182.8 258,180.5 264,178.6 270,177.1 276,176.0 282,175.3 288,175.0 294,175.1 300,175.7 306,176.6 312,178.0 318,179.7 324,181.8 330,184.3 336,187.1 342,190.3 348,193.7 354,197.5 360,201.5 366,205.7 372,210.2 378,214.8 384,219.5 390,224.4 396,229.3 402,234.3 408,239.3 414,244.2 420,249.1 426,253.9 432,258.5 438,263.0 444,267.3 450,271.4 456,275.2 462,278.8 468,282.0 474,285.0 480,287.5 486,289.8 492,291.6 498,293.1 504,294.1 510,294.8 516,295.0 522,294.8 528,294.2 534,293.2 540,291.9 546,290.1 552,287.9 558,285.4 564,282.5 570,279.3 576,275.8 582,272.0 588,268.0 594,263.7 600,259.3 606,254.6 612,249.9 618,245.0 624,240.1 630,235.1 636,230.1 642,225.2 648,220.3 654,215.5 660,210.9 666,206.4 672,202.2 678,198.1 684,194.3 690,190.8 696,187.6 702,184.7 708,182.2 714,180.0 720,178.2 726,176.8 732,175.8 738,175.2 744,175.0 750,175.2 756,175.9 762,176.9 768,178.3 774,180.2 780,182.4 786,184.9 792,187.9 798,191.1 804,194.6 810,198.4 816,202.5 822,206.8 828,211.3 834,215.9 840,220.7 846,225.6 852,230.5 858,235.5 864,240.5 870,245.4 876,250.3 882,255.0 888,259.6 894,264.1 900,268.3 906,272.4 912,276.1 918,279.6 924,282.8 930,285.6 936,288.1 942,290.2 948,292.0 954,293.3 960,294.3 966,294.9 972,295.0 978,294.7 984,294.0 990,292.9 996,291.5 1002,289.6 1008,287.3 1014,284.7 1020,281.8 1026,278.5" stroke="#54e0e0" stroke-opacity="0.38" stroke-width="4.0" stroke-linecap="round" stroke-linejoin="round"/>
<polyline points="-30,401.0 -24,403.7 -18,405.3 -12,406.0 -6,405.6 0,404.2 6,401.7 12,398.4 18,394.1 24,389.1 30,383.4 36,377.2 42,370.6 48,363.7 54,356.8 60,349.9 66,343.3 72,337.1 78,331.3 84,326.3 90,321.9 96,318.5 102,316.0 108,314.5 114,314.0 120,314.6 126,316.2 132,318.8 138,322.3 144,326.7 150,331.8 156,337.6 162,343.9 168,350.6 174,357.4 180,364.3 186,371.2 192,377.8 198,383.9 204,389.6 210,394.5 216,398.7 222,402.0 228,404.3 234,405.7 240,406.0 246,405.2 252,403.5 258,400.7 264,397.0 270,392.5 276,387.3 282,381.4 288,375.0 294,368.3 300,361.4 306,354.5 312,347.7 318,341.2 324,335.1 330,329.6 336,324.7 342,320.7 348,317.5 354,315.4 360,314.2 366,314.1 372,315.0 378,316.9 384,319.8 390,323.7 396,328.3 402,333.7 408,339.7 414,346.1 420,352.8 426,359.7 432,366.6 438,373.4 444,379.9 450,385.9 456,391.3 462,396.0 468,399.9 474,402.9 480,404.9 486,405.9 492,405.8 498,404.8 504,402.7 510,399.6 516,395.6 522,390.8 528,385.4 534,379.3 540,372.8 546,366.0 552,359.1 558,352.2 564,345.5 570,339.1 576,333.2 582,327.9 588,323.3 594,319.5 600,316.7 606,314.9 612,314.0 618,314.3 624,315.5 630,317.8 636,321.0 642,325.1 648,330.0 654,335.6 660,341.7 666,348.3 672,355.1 678,362.0 684,368.9 690,375.6 696,381.9 702,387.8 708,392.9 714,397.4 720,401.0 726,403.7 732,405.3 738,406.0 744,405.6 750,404.2 756,401.7 762,398.4 768,394.1 774,389.1 780,383.4 786,377.2 792,370.6 798,363.7 804,356.8 810,349.9 816,343.3 822,337.1 828,331.3 834,326.3 840,321.9 846,318.5 852,316.0 858,314.5 864,314.0 870,314.6 876,316.2 882,318.8 888,322.3 894,326.7 900,331.8 906,337.6 912,343.9 918,350.6 924,357.4 930,364.3 936,371.2 942,377.8 948,383.9 954,389.6 960,394.5 966,398.7 972,402.0 978,404.3 984,405.7 990,406.0 996,405.2 1002,403.5 1008,400.7 1014,397.0 1020,392.5 1026,387.3" stroke="#54e0e0" stroke-opacity="0.55" stroke-width="3.2" stroke-linecap="round" stroke-linejoin="round"/>
<polyline points="-30,490.0 -24,498.8 -18,507.1 -12,514.5 -6,520.6 0,525.0 6,527.5 12,527.9 18,526.3 24,522.7 30,517.4 36,510.5 42,502.6 48,493.9 54,485.0 60,476.5 66,468.6 72,461.9 78,456.7 84,453.4 90,452.0 96,452.7 102,455.5 108,460.1 114,466.3 120,473.8 126,482.2 132,491.1 138,499.8 144,508.1 150,515.3 156,521.2 162,525.4 168,527.6 174,527.8 180,526.0 186,522.2 192,516.6 198,509.6 204,501.6 210,492.9 216,484.0 222,475.5 228,467.7 234,461.2 240,456.3 246,453.1 252,452.0 258,452.9 264,455.9 270,460.7 276,467.1 282,474.8 288,483.3 294,492.1 300,500.8 306,509.0 312,516.1 318,521.8 324,525.7 330,527.8 336,527.7 342,525.6 348,521.6 354,515.9 360,508.7 366,500.6 372,491.8 378,483.0 384,474.5 390,466.9 396,460.5 402,455.8 408,452.9 414,452.0 420,453.2 426,456.4 432,461.4 438,468.0 444,475.7 450,484.3 456,493.1 462,501.8 468,509.9 474,516.8 480,522.3 486,526.1 492,527.9 498,527.6 504,525.3 510,521.0 516,515.1 522,507.8 528,499.5 534,490.8 540,481.9 546,473.6 552,466.1 558,459.9 564,455.3 570,452.7 576,452.0 582,453.5 588,456.9 594,462.1 600,468.8 606,476.7 612,485.3 618,494.2 624,502.8 630,510.8 636,517.6 642,522.9 648,526.4 654,527.9 660,527.4 666,524.9 672,520.4 678,514.3 684,506.9 690,498.5 696,489.7 702,480.9 708,472.6 714,465.3 720,459.3 726,454.9 732,452.5 738,452.1 744,453.8 750,457.4 756,462.8 762,469.7 768,477.7 774,486.4 780,495.2 786,503.8 792,511.6 798,518.3 804,523.4 810,526.7 816,528.0 822,527.2 828,524.4 834,519.8 840,513.5 846,505.9 852,497.5 858,488.7 864,479.9 870,471.7 876,464.5 882,458.7 888,454.5 894,452.3 900,452.2 906,454.1 912,458.0 918,463.6 924,470.6 930,478.7 936,487.4 942,496.3 948,504.8 954,512.5 960,519.0 966,523.9 972,526.9 978,528.0 984,527.0 990,524.0 996,519.1 1002,512.6 1008,505.0 1014,496.5 1020,487.6 1026,478.9" stroke="#54e0e0" stroke-opacity="0.55" stroke-width="9" stroke-linecap="round" stroke-linejoin="round" filter="url(#bloom)"/>
<polyline points="-30,490.0 -24,498.8 -18,507.1 -12,514.5 -6,520.6 0,525.0 6,527.5 12,527.9 18,526.3 24,522.7 30,517.4 36,510.5 42,502.6 48,493.9 54,485.0 60,476.5 66,468.6 72,461.9 78,456.7 84,453.4 90,452.0 96,452.7 102,455.5 108,460.1 114,466.3 120,473.8 126,482.2 132,491.1 138,499.8 144,508.1 150,515.3 156,521.2 162,525.4 168,527.6 174,527.8 180,526.0 186,522.2 192,516.6 198,509.6 204,501.6 210,492.9 216,484.0 222,475.5 228,467.7 234,461.2 240,456.3 246,453.1 252,452.0 258,452.9 264,455.9 270,460.7 276,467.1 282,474.8 288,483.3 294,492.1 300,500.8 306,509.0 312,516.1 318,521.8 324,525.7 330,527.8 336,527.7 342,525.6 348,521.6 354,515.9 360,508.7 366,500.6 372,491.8 378,483.0 384,474.5 390,466.9 396,460.5 402,455.8 408,452.9 414,452.0 420,453.2 426,456.4 432,461.4 438,468.0 444,475.7 450,484.3 456,493.1 462,501.8 468,509.9 474,516.8 480,522.3 486,526.1 492,527.9 498,527.6 504,525.3 510,521.0 516,515.1 522,507.8 528,499.5 534,490.8 540,481.9 546,473.6 552,466.1 558,459.9 564,455.3 570,452.7 576,452.0 582,453.5 588,456.9 594,462.1 600,468.8 606,476.7 612,485.3 618,494.2 624,502.8 630,510.8 636,517.6 642,522.9 648,526.4 654,527.9 660,527.4 666,524.9 672,520.4 678,514.3 684,506.9 690,498.5 696,489.7 702,480.9 708,472.6 714,465.3 720,459.3 726,454.9 732,452.5 738,452.1 744,453.8 750,457.4 756,462.8 762,469.7 768,477.7 774,486.4 780,495.2 786,503.8 792,511.6 798,518.3 804,523.4 810,526.7 816,528.0 822,527.2 828,524.4 834,519.8 840,513.5 846,505.9 852,497.5 858,488.7 864,479.9 870,471.7 876,464.5 882,458.7 888,454.5 894,452.3 900,452.2 906,454.1 912,458.0 918,463.6 924,470.6 930,478.7 936,487.4 942,496.3 948,504.8 954,512.5 960,519.0 966,523.9 972,526.9 978,528.0 984,527.0 990,524.0 996,519.1 1002,512.6 1008,505.0 1014,496.5 1020,487.6 1026,478.9" stroke="#54e0e0" stroke-opacity="1.0" stroke-width="4.5" stroke-linecap="round" stroke-linejoin="round"/>
<polyline points="-30,633.6 -24,628.3 -18,620.7 -12,611.7 -6,602.5 0,594.3 6,588.0 12,584.5 18,584.3 24,587.3 30,593.2 36,601.2 42,610.4 48,619.5 54,627.4 60,633.0 66,635.8 72,635.3 78,631.6 84,625.1 90,616.7 96,607.5 102,598.6 108,591.1 114,586.1 120,584.0 126,585.3 132,589.7 138,596.7 144,605.3 150,614.6 156,623.3 162,630.3 168,634.7 174,636.0 180,634.0 186,628.9 192,621.5 198,612.6 204,603.3 210,594.9 216,588.5 222,584.7 228,584.2 234,586.9 240,592.6 246,600.5 252,609.6 258,618.7 264,626.7 270,632.6 276,635.7 282,635.5 288,632.0 294,625.8 300,617.5 306,608.3 312,599.3 318,591.7 324,586.4 330,584.1 336,585.0 342,589.2 348,596.0 354,604.5 360,613.8 366,622.6 372,629.8 378,634.4 384,636.0 390,634.3 396,629.5 402,622.2 408,613.4 414,604.1 420,595.6 426,588.9 432,584.9 438,584.1 444,586.6 450,592.0 456,599.7 462,608.7 468,617.9 474,626.1 480,632.2 486,635.5 492,635.6 498,632.4 504,626.4 510,618.3 516,609.1 522,600.1 528,592.3 534,586.7 540,584.1 546,584.8 552,588.7 558,595.3 564,603.7 570,613.0 576,621.8 582,629.2 588,634.1 594,636.0 600,634.6 606,630.0 612,622.9 618,614.2 624,604.9 630,596.3 636,589.4 642,585.2 648,584.0 654,586.2 660,591.4 666,599.0 672,607.9 678,617.1 684,625.5 690,631.8 696,635.4 702,635.7 708,632.8 714,627.0 720,619.1 726,609.9 732,600.8 738,592.9 744,587.1 750,584.2 756,584.6 762,588.3 768,594.6 774,603.0 780,612.2 786,621.1 792,628.6 798,633.8 804,636.0 810,634.8 816,630.5 822,623.6 828,615.0 834,605.7 840,597.0 846,589.9 852,585.4 858,584.0 864,585.9 870,590.9 876,598.2 882,607.1 888,616.4 894,624.8 900,631.3 906,635.2 912,635.8 918,633.2 924,627.6 930,619.8 936,610.8 942,601.6 948,593.5 954,587.5 960,584.4 966,584.5 972,587.8 978,594.0 984,602.2 990,611.4 996,620.4 1002,628.1 1008,633.5 1014,635.9 1020,635.0 1026,631.0" stroke="#54e0e0" stroke-opacity="0.5" stroke-width="2.4" stroke-linecap="round" stroke-linejoin="round"/>
<polyline points="-30,729.6 -24,735.6 -18,736.8 -12,732.7 -6,724.7 0,715.2 6,707.2 12,703.2 18,704.4 24,710.5 30,719.5 36,728.7 42,735.2 48,736.9 54,733.4 60,725.7 66,716.2 72,707.9 78,703.4 84,704.0 90,709.6 96,718.5 102,727.8 108,734.7 114,737.0 120,734.0 126,726.7 132,717.3 138,708.7 144,703.7 150,703.7 156,708.8 162,717.4 168,726.8 174,734.1 180,737.0 186,734.6 192,727.7 198,718.3 204,709.5 210,704.0 216,703.4 222,708.0 228,716.3 234,725.8 240,733.5 246,736.9 252,735.1 258,728.6 264,719.4 270,710.4 276,704.4 282,703.2 288,707.3 294,715.3 300,724.8 306,732.8 312,736.8 318,735.6 324,729.5 330,720.5 336,711.3 342,704.8 348,703.1 354,706.6 360,714.3 366,723.8 372,732.1 378,736.6 384,736.0 390,730.4 396,721.5 402,712.2 408,705.3 414,703.0 420,706.0 426,713.3 432,722.7 438,731.3 444,736.3 450,736.3 456,731.2 462,722.6 468,713.2 474,705.9 480,703.0 486,705.4 492,712.3 498,721.7 504,730.5 510,736.0 516,736.6 522,732.0 528,723.7 534,714.2 540,706.5 546,703.1 552,704.9 558,711.4 564,720.6 570,729.6 576,735.6 582,736.8 588,732.7 594,724.7 600,715.2 606,707.2 612,703.2 618,704.4 624,710.5 630,719.5 636,728.7 642,735.2 648,736.9 654,733.4 660,725.7 666,716.2 672,707.9 678,703.4 684,704.0 690,709.6 696,718.5 702,727.8 708,734.7 714,737.0 720,734.0 726,726.7 732,717.3 738,708.7 744,703.7 750,703.7 756,708.8 762,717.4 768,726.8 774,734.1 780,737.0 786,734.6 792,727.7 798,718.3 804,709.5 810,704.0 816,703.4 822,708.0 828,716.3 834,725.8 840,733.5 846,736.9 852,735.1 858,728.6 864,719.4 870,710.4 876,704.4 882,703.2 888,707.3 894,715.3 900,724.8 906,732.8 912,736.8 918,735.6 924,729.5 930,720.5 936,711.3 942,704.8 948,703.1 954,706.6 960,714.3 966,723.8 972,732.1 978,736.6 984,736.0 990,730.4 996,721.5 1002,712.2 1008,705.3 1014,703.0 1020,706.0 1026,713.3" stroke="#54e0e0" stroke-opacity="0.8" stroke-width="2.0" stroke-linecap="round" stroke-linejoin="round"/>
<circle cx="144" cy="703.7" r="11" fill="#d2ff3b" opacity="0.22" filter="url(#bloom)"/>
<circle cx="144" cy="703.7" r="5.5" fill="#d2ff3b"/>
<circle cx="348" cy="703.1" r="11" fill="#d2ff3b" opacity="0.22" filter="url(#bloom)"/>
<circle cx="348" cy="703.1" r="5.5" fill="#d2ff3b"/>
<circle cx="546" cy="703.1" r="11" fill="#d2ff3b" opacity="0.22" filter="url(#bloom)"/>
<circle cx="546" cy="703.1" r="5.5" fill="#d2ff3b"/>
<circle cx="678" cy="703.4" r="11" fill="#d2ff3b" opacity="0.22" filter="url(#bloom)"/>
<circle cx="678" cy="703.4" r="5.5" fill="#d2ff3b"/>
<circle cx="882" cy="703.2" r="11" fill="#d2ff3b" opacity="0.22" filter="url(#bloom)"/>
<circle cx="882" cy="703.2" r="5.5" fill="#d2ff3b"/>
<text x="34" y="243" font-family="monospace" font-size="26" fill="#54e0e0" fill-opacity="0.55">δ</text>
<text x="34" y="368" font-family="monospace" font-size="26" fill="#54e0e0" fill-opacity="0.55">θ</text>
<text x="34" y="498" font-family="monospace" font-size="26" fill="#54e0e0" fill-opacity="0.55">α</text>
<text x="34" y="618" font-family="monospace" font-size="26" fill="#54e0e0" fill-opacity="0.55">β</text>
<text x="34" y="728" font-family="monospace" font-size="26" fill="#54e0e0" fill-opacity="0.55">γ</text>
<rect width="1000" height="1000" fill="url(#vig)"/>
</svg>