<svg xmlns="http://www.w3.org/2000/svg" width="1000" height="1000" viewBox="0 0 1000 1000" fill="none">
<defs>
<linearGradient id="bg" x1="0" y1="0" x2="0.4" y2="1"><stop offset="0" stop-color="#271509"/><stop offset="0.55" stop-color="#1d0e08"/><stop offset="1" stop-color="#070402"/></linearGradient>
<radialGradient id="glow" cx="0.5" cy="0.47" r="0.62"><stop offset="0" stop-color="#ff7847" stop-opacity="0.26"/><stop offset="0.5" stop-color="#ff7847" stop-opacity="0.06"/><stop offset="1" stop-color="#ff7847" stop-opacity="0"/></radialGradient>
<filter id="bloom" x="-60%" y="-60%" width="220%" height="220%"><feGaussianBlur stdDeviation="12"/></filter>
<radialGradient id="vig" cx="0.5" cy="0.46" r="0.78"><stop offset="0.55" stop-color="#000" stop-opacity="0"/><stop offset="1" stop-color="#000" stop-opacity="0.47"/></radialGradient>
<clipPath id="src"><rect x="120" y="378" width="250" height="190" rx="18"/></clipPath>
</defs>
<rect width="1000" height="1000" fill="url(#bg)"/>
<rect width="1000" height="1000" fill="url(#glow)"/>
<circle cx="70" cy="120" r="2" fill="#ff7847" fill-opacity="0.05"/><circle cx="126" cy="120" r="2" fill="#ff7847" fill-opacity="0.05"/><circle cx="182" cy="120" r="2" fill="#ff7847" fill-opacity="0.05"/><circle cx="238" cy="120" r="2" fill="#ff7847" fill-opacity="0.05"/><circle cx="294" cy="120" r="2" fill="#ff7847" fill-opacity="0.05"/><circle cx="350" cy="120" r="2" fill="#ff7847" fill-opacity="0.05"/><circle cx="406" cy="120" r="2" fill="#ff7847" fill-opacity="0.05"/><circle cx="462" cy="120" r="2" fill="#ff7847" fill-opacity="0.05"/><circle cx="518" cy="120" r="2" fill="#ff7847" fill-opacity="0.05"/><circle cx="574" cy="120" r="2" fill="#ff7847" fill-opacity="0.05"/><circle cx="630" cy="120" r="2" fill="#ff7847" fill-opacity="0.05"/><circle cx="686" cy="120" r="2" fill="#ff7847" fill-opacity="0.05"/><circle cx="742" cy="120" r="2" fill="#ff7847" fill-opacity="0.05"/><circle cx="798" cy="120" r="2" fill="#ff7847" fill-opacity="0.05"/><circle cx="854" cy="120" r="2" fill="#ff7847" fill-opacity="0.05"/><circle cx="910" cy="120" r="2" fill="#ff7847" fill-opacity="0.05"/><circle cx="70" cy="176" r="2" fill="#ff7847" fill-opacity="0.05"/><circle cx="126" cy="176" r="2" fill="#ff7847" fill-opacity="0.05"/><circle cx="182" cy="176" r="2" fill="#ff7847" fill-opacity="0.05"/><circle cx="238" cy="176" r="2" fill="#ff7847" fill-opacity="0.05"/><circle cx="294" cy="176" r="2" fill="#ff7847" fill-opacity="0.05"/><circle cx="350" cy="176" r="2" fill="#ff7847" fill-opacity="0.05"/><circle cx="406" cy="176" r="2" fill="#ff7847" fill-opacity="0.05"/><circle cx="462" cy="176" r="2" fill="#ff7847" fill-opacity="0.05"/><circle cx="518" cy="176" r="2" fill="#ff7847" fill-opacity="0.05"/><circle cx="574" cy="176" r="2" fill="#ff7847" fill-opacity="0.05"/><circle cx="630" cy="176" r="2" fill="#ff7847" fill-opacity="0.05"/><circle cx="686" cy="176" r="2" fill="#ff7847" fill-opacity="0.05"/><circle cx="742" cy="176" r="2" fill="#ff7847" fill-opacity="0.05"/><circle cx="798" cy="176" r="2" fill="#ff7847" fill-opacity="0.05"/><circle cx="854" cy="176" r="2" fill="#ff7847" fill-opacity="0.05"/><circle cx="910" cy="176" r="2" fill="#ff7847" fill-opacity="0.05"/><circle cx="70" cy="232" r="2" fill="#ff7847" fill-opacity="0.05"/><circle cx="126" cy="232" r="2" fill="#ff7847" fill-opacity="0.05"/><circle cx="182" cy="232" r="2" fill="#ff7847" fill-opacity="0.05"/><circle cx="238" cy="232" r="2" fill="#ff7847" fill-opacity="0.05"/><circle cx="294" cy="232" r="2" fill="#ff7847" fill-opacity="0.05"/><circle cx="350" cy="232" r="2" fill="#ff7847" fill-opacity="0.05"/><circle cx="406" cy="232" r="2" fill="#ff7847" fill-opacity="0.05"/><circle cx="462" cy="232" r="2" fill="#ff7847" fill-opacity="0.05"/><circle cx="518" cy="232" r="2" fill="#ff7847" fill-opacity="0.05"/><circle cx="574" cy="232" r="2" fill="#ff7847" fill-opacity="0.05"/><circle cx="630" cy="232" r="2" fill="#ff7847" fill-opacity="0.05"/><circle cx="686" cy="232" r="2" fill="#ff7847" fill-opacity="0.05"/><circle cx="742" cy="232" r="2" fill="#ff7847" fill-opacity="0.05"/><circle cx="798" cy="232" r="2" fill="#ff7847" fill-opacity="0.05"/><circle cx="854" cy="232" r="2" fill="#ff7847" fill-opacity="0.05"/><circle cx="910" cy="232" r="2" fill="#ff7847" fill-opacity="0.05"/><circle cx="70" cy="288" r="2" fill="#ff7847" fill-opacity="0.05"/><circle cx="126" cy="288" r="2" fill="#ff7847" fill-opacity="0.05"/><circle cx="182" cy="288" r="2" fill="#ff7847" fill-opacity="0.05"/><circle cx="238" cy="288" r="2" fill="#ff7847" fill-opacity="0.05"/><circle cx="294" cy="288" r="2" fill="#ff7847" fill-opacity="0.05"/><circle cx="350" cy="288" r="2" fill="#ff7847" fill-opacity="0.05"/><circle cx="406" cy="288" r="2" fill="#ff7847" fill-opacity="0.05"/><circle cx="462" cy="288" r="2" fill="#ff7847" fill-opacity="0.05"/><circle cx="518" cy="288" r="2" fill="#ff7847" fill-opacity="0.05"/><circle cx="574" cy="288" r="2" fill="#ff7847" fill-opacity="0.05"/><circle cx="630" cy="288" r="2" fill="#ff7847" fill-opacity="0.05"/><circle cx="686" cy="288" r="2" fill="#ff7847" fill-opacity="0.05"/><circle cx="742" cy="288" r="2" fill="#ff7847" fill-opacity="0.05"/><circle cx="798" cy="288" r="2" fill="#ff7847" fill-opacity="0.05"/><circle cx="854" cy="288" r="2" fill="#ff7847" fill-opacity="0.05"/><circle cx="910" cy="288" r="2" fill="#ff7847" fill-opacity="0.05"/><circle cx="70" cy="344" r="2" fill="#ff7847" fill-opacity="0.05"/><circle cx="126" cy="344" r="2" fill="#ff7847" fill-opacity="0.05"/><circle cx="182" cy="344" r="2" fill="#ff7847" fill-opacity="0.05"/><circle cx="238" cy="344" r="2" fill="#ff7847" fill-opacity="0.05"/><circle cx="294" cy="344" r="2" fill="#ff7847" fill-opacity="0.05"/><circle cx="350" cy="344" r="2" fill="#ff7847" fill-opacity="0.05"/><circle cx="406" cy="344" r="2" fill="#ff7847" fill-opacity="0.05"/><circle cx="462" cy="344" r="2" fill="#ff7847" fill-opacity="0.05"/><circle cx="518" cy="344" r="2" fill="#ff7847" fill-opacity="0.05"/><circle cx="574" cy="344" r="2" fill="#ff7847" fill-opacity="0.05"/><circle cx="630" cy="344" r="2" fill="#ff7847" fill-opacity="0.05"/><circle cx="686" cy="344" r="2" fill="#ff7847" fill-opacity="0.05"/><circle cx="742" cy="344" r="2" fill="#ff7847" fill-opacity="0.05"/><circle cx="798" cy="344" r="2" fill="#ff7847" fill-opacity="0.05"/><circle cx="854" cy="344" r="2" fill="#ff7847" fill-opacity="0.05"/><circle cx="910" cy="344" r="2" fill="#ff7847" fill-opacity="0.05"/><circle cx="70" cy="400" r="2" fill="#ff7847" fill-opacity="0.05"/><circle cx="126" cy="400" r="2" fill="#ff7847" fill-opacity="0.05"/><circle cx="182" cy="400" r="2" fill="#ff7847" fill-opacity="0.05"/><circle cx="238" cy="400" r="2" fill="#ff7847" fill-opacity="0.05"/><circle cx="294" cy="400" r="2" fill="#ff7847" fill-opacity="0.05"/><circle cx="350" cy="400" r="2" fill="#ff7847" fill-opacity="0.05"/><circle cx="406" cy="400" r="2" fill="#ff7847" fill-opacity="0.05"/><circle cx="462" cy="400" r="2" fill="#ff7847" fill-opacity="0.05"/><circle cx="518" cy="400" r="2" fill="#ff7847" fill-opacity="0.05"/><circle cx="574" cy="400" r="2" fill="#ff7847" fill-opacity="0.05"/><circle cx="630" cy="400" r="2" fill="#ff7847" fill-opacity="0.05"/><circle cx="686" cy="400" r="2" fill="#ff7847" fill-opacity="0.05"/><circle cx="742" cy="400" r="2" fill="#ff7847" fill-opacity="0.05"/><circle cx="798" cy="400" r="2" fill="#ff7847" fill-opacity="0.05"/><circle cx="854" cy="400" r="2" fill="#ff7847" fill-opacity="0.05"/><circle cx="910" cy="400" r="2" fill="#ff7847" fill-opacity="0.05"/><circle cx="70" cy="456" r="2" fill="#ff7847" fill-opacity="0.05"/><circle cx="126" cy="456" r="2" fill="#ff7847" fill-opacity="0.05"/><circle cx="182" cy="456" r="2" fill="#ff7847" fill-opacity="0.05"/><circle cx="238" cy="456" r="2" fill="#ff7847" fill-opacity="0.05"/><circle cx="294" cy="456" r="2" fill="#ff7847" fill-opacity="0.05"/><circle cx="350" cy="456" r="2" fill="#ff7847" fill-opacity="0.05"/><circle cx="406" cy="456" r="2" fill="#ff7847" fill-opacity="0.05"/><circle cx="462" cy="456" r="2" fill="#ff7847" fill-opacity="0.05"/><circle cx="518" cy="456" r="2" fill="#ff7847" fill-opacity="0.05"/><circle cx="574" cy="456" r="2" fill="#ff7847" fill-opacity="0.05"/><circle cx="630" cy="456" r="2" fill="#ff7847" fill-opacity="0.05"/><circle cx="686" cy="456" r="2" fill="#ff7847" fill-opacity="0.05"/><circle cx="742" cy="456" r="2" fill="#ff7847" fill-opacity="0.05"/><circle cx="798" cy="456" r="2" fill="#ff7847" fill-opacity="0.05"/><circle cx="854" cy="456" r="2" fill="#ff7847" fill-opacity="0.05"/><circle cx="910" cy="456" r="2" fill="#ff7847" fill-opacity="0.05"/><circle cx="70" cy="512" r="2" fill="#ff7847" fill-opacity="0.05"/><circle cx="126" cy="512" r="2" fill="#ff7847" fill-opacity="0.05"/><circle cx="182" cy="512" r="2" fill="#ff7847" fill-opacity="0.05"/><circle cx="238" cy="512" r="2" fill="#ff7847" fill-opacity="0.05"/><circle cx="294" cy="512" r="2" fill="#ff7847" fill-opacity="0.05"/><circle cx="350" cy="512" r="2" fill="#ff7847" fill-opacity="0.05"/><circle cx="406" cy="512" r="2" fill="#ff7847" fill-opacity="0.05"/><circle cx="462" cy="512" r="2" fill="#ff7847" fill-opacity="0.05"/><circle cx="518" cy="512" r="2" fill="#ff7847" fill-opacity="0.05"/><circle cx="574" cy="512" r="2" fill="#ff7847" fill-opacity="0.05"/><circle cx="630" cy="512" r="2" fill="#ff7847" fill-opacity="0.05"/><circle cx="686" cy="512" r="2" fill="#ff7847" fill-opacity="0.05"/><circle cx="742" cy="512" r="2" fill="#ff7847" fill-opacity="0.05"/><circle cx="798" cy="512" r="2" fill="#ff7847" fill-opacity="0.05"/><circle cx="854" cy="512" r="2" fill="#ff7847" fill-opacity="0.05"/><circle cx="910" cy="512" r="2" fill="#ff7847" fill-opacity="0.05"/><circle cx="70" cy="568" r="2" fill="#ff7847" fill-opacity="0.05"/><circle cx="126" cy="568" r="2" fill="#ff7847" fill-opacity="0.05"/><circle cx="182" cy="568" r="2" fill="#ff7847" fill-opacity="0.05"/><circle cx="238" cy="568" r="2" fill="#ff7847" fill-opacity="0.05"/><circle cx="294" cy="568" r="2" fill="#ff7847" fill-opacity="0.05"/><circle cx="350" cy="568" r="2" fill="#ff7847" fill-opacity="0.05"/><circle cx="406" cy="568" r="2" fill="#ff7847" fill-opacity="0.05"/><circle cx="462" cy="568" r="2" fill="#ff7847" fill-opacity="0.05"/><circle cx="518" cy="568" r="2" fill="#ff7847" fill-opacity="0.05"/><circle cx="574" cy="568" r="2" fill="#ff7847" fill-opacity="0.05"/><circle cx="630" cy="568" r="2" fill="#ff7847" fill-opacity="0.05"/><circle cx="686" cy="568" r="2" fill="#ff7847" fill-opacity="0.05"/><circle cx="742" cy="568" r="2" fill="#ff7847" fill-opacity="0.05"/><circle cx="798" cy="568" r="2" fill="#ff7847" fill-opacity="0.05"/><circle cx="854" cy="568" r="2" fill="#ff7847" fill-opacity="0.05"/><circle cx="910" cy="568" r="2" fill="#ff7847" fill-opacity="0.05"/><circle cx="70" cy="624" r="2" fill="#ff7847" fill-opacity="0.05"/><circle cx="126" cy="624" r="2" fill="#ff7847" fill-opacity="0.05"/><circle cx="182" cy="624" r="2" fill="#ff7847" fill-opacity="0.05"/><circle cx="238" cy="624" r="2" fill="#ff7847" fill-opacity="0.05"/><circle cx="294" cy="624" r="2" fill="#ff7847" fill-opacity="0.05"/><circle cx="350" cy="624" r="2" fill="#ff7847" fill-opacity="0.05"/><circle cx="406" cy="624" r="2" fill="#ff7847" fill-opacity="0.05"/><circle cx="462" cy="624" r="2" fill="#ff7847" fill-opacity="0.05"/><circle cx="518" cy="624" r="2" fill="#ff7847" fill-opacity="0.05"/><circle cx="574" cy="624" r="2" fill="#ff7847" fill-opacity="0.05"/><circle cx="630" cy="624" r="2" fill="#ff7847" fill-opacity="0.05"/><circle cx="686" cy="624" r="2" fill="#ff7847" fill-opacity="0.05"/><circle cx="742" cy="624" r="2" fill="#ff7847" fill-opacity="0.05"/><circle cx="798" cy="624" r="2" fill="#ff7847" fill-opacity="0.05"/><circle cx="854" cy="624" r="2" fill="#ff7847" fill-opacity="0.05"/><circle cx="910" cy="624" r="2" fill="#ff7847" fill-opacity="0.05"/><circle cx="70" cy="680" r="2" fill="#ff7847" fill-opacity="0.05"/><circle cx="126" cy="680" r="2" fill="#ff7847" fill-opacity="0.05"/><circle cx="182" cy="680" r="2" fill="#ff7847" fill-opacity="0.05"/><circle cx="238" cy="680" r="2" fill="#ff7847" fill-opacity="0.05"/><circle cx="294" cy="680" r="2" fill="#ff7847" fill-opacity="0.05"/><circle cx="350" cy="680" r="2" fill="#ff7847" fill-opacity="0.05"/><circle cx="406" cy="680" r="2" fill="#ff7847" fill-opacity="0.05"/><circle cx="462" cy="680" r="2" fill="#ff7847" fill-opacity="0.05"/><circle cx="518" cy="680" r="2" fill="#ff7847" fill-opacity="0.05"/><circle cx="574" cy="680" r="2" fill="#ff7847" fill-opacity="0.05"/><circle cx="630" cy="680" r="2" fill="#ff7847" fill-opacity="0.05"/><circle cx="686" cy="680" r="2" fill="#ff7847" fill-opacity="0.05"/><circle cx="742" cy="680" r="2" fill="#ff7847" fill-opacity="0.05"/><circle cx="798" cy="680" r="2" fill="#ff7847" fill-opacity="0.05"/><circle cx="854" cy="680" r="2" fill="#ff7847" fill-opacity="0.05"/><circle cx="910" cy="680" r="2" fill="#ff7847" fill-opacity="0.05"/><circle cx="70" cy="736" r="2" fill="#ff7847" fill-opacity="0.05"/><circle cx="126" cy="736" r="2" fill="#ff7847" fill-opacity="0.05"/><circle cx="182" cy="736" r="2" fill="#ff7847" fill-opacity="0.05"/><circle cx="238" cy="736" r="2" fill="#ff7847" fill-opacity="0.05"/><circle cx="294" cy="736" r="2" fill="#ff7847" fill-opacity="0.05"/><circle cx="350" cy="736" r="2" fill="#ff7847" fill-opacity="0.05"/><circle cx="406" cy="736" r="2" fill="#ff7847" fill-opacity="0.05"/><circle cx="462" cy="736" r="2" fill="#ff7847" fill-opacity="0.05"/><circle cx="518" cy="736" r="2" fill="#ff7847" fill-opacity="0.05"/><circle cx="574" cy="736" r="2" fill="#ff7847" fill-opacity="0.05"/><circle cx="630" cy="736" r="2" fill="#ff7847" fill-opacity="0.05"/><circle cx="686" cy="736" r="2" fill="#ff7847" fill-opacity="0.05"/><circle cx="742" cy="736" r="2" fill="#ff7847" fill-opacity="0.05"/><circle cx="798" cy="736" r="2" fill="#ff7847" fill-opacity="0.05"/><circle cx="854" cy="736" r="2" fill="#ff7847" fill-opacity="0.05"/><circle cx="910" cy="736" r="2" fill="#ff7847" fill-opacity="0.05"/><circle cx="70" cy="792" r="2" fill="#ff7847" fill-opacity="0.05"/><circle cx="126" cy="792" r="2" fill="#ff7847" fill-opacity="0.05"/><circle cx="182" cy="792" r="2" fill="#ff7847" fill-opacity="0.05"/><circle cx="238" cy="792" r="2" fill="#ff7847" fill-opacity="0.05"/><circle cx="294" cy="792" r="2" fill="#ff7847" fill-opacity="0.05"/><circle cx="350" cy="792" r="2" fill="#ff7847" fill-opacity="0.05"/><circle cx="406" cy="792" r="2" fill="#ff7847" fill-opacity="0.05"/><circle cx="462" cy="792" r="2" fill="#ff7847" fill-opacity="0.05"/><circle cx="518" cy="792" r="2" fill="#ff7847" fill-opacity="0.05"/><circle cx="574" cy="792" r="2" fill="#ff7847" fill-opacity="0.05"/><circle cx="630" cy="792" r="2" fill="#ff7847" fill-opacity="0.05"/><circle cx="686" cy="792" r="2" fill="#ff7847" fill-opacity="0.05"/><circle cx="742" cy="792" r="2" fill="#ff7847" fill-opacity="0.05"/><circle cx="798" cy="792" r="2" fill="#ff7847" fill-opacity="0.05"/><circle cx="854" cy="792" r="2" fill="#ff7847" fill-opacity="0.05"/><circle cx="910" cy="792" r="2" fill="#ff7847" fill-opacity="0.05"/><circle cx="70" cy="848" r="2" fill="#ff7847" fill-opacity="0.05"/><circle cx="126" cy="848" r="2" fill="#ff7847" fill-opacity="0.05"/><circle cx="182" cy="848" r="2" fill="#ff7847" fill-opacity="0.05"/><circle cx="238" cy="848" r="2" fill="#ff7847" fill-opacity="0.05"/><circle cx="294" cy="848" r="2" fill="#ff7847" fill-opacity="0.05"/><circle cx="350" cy="848" r="2" fill="#ff7847" fill-opacity="0.05"/><circle cx="406" cy="848" r="2" fill="#ff7847" fill-opacity="0.05"/><circle cx="462" cy="848" r="2" fill="#ff7847" fill-opacity="0.05"/><circle cx="518" cy="848" r="2" fill="#ff7847" fill-opacity="0.05"/><circle cx="574" cy="848" r="2" fill="#ff7847" fill-opacity="0.05"/><circle cx="630" cy="848" r="2" fill="#ff7847" fill-opacity="0.05"/><circle cx="686" cy="848" r="2" fill="#ff7847" fill-opacity="0.05"/><circle cx="742" cy="848" r="2" fill="#ff7847" fill-opacity="0.05"/><circle cx="798" cy="848" r="2" fill="#ff7847" fill-opacity="0.05"/><circle cx="854" cy="848" r="2" fill="#ff7847" fill-opacity="0.05"/><circle cx="910" cy="848" r="2" fill="#ff7847" fill-opacity="0.05"/>
<rect x="120" y="378" width="250" height="190" rx="18" fill="#1a0d06" stroke="#ff7847" stroke-width="4"/>
<g clip-path="url(#src)">
<circle cx="200" cy="430" r="26" fill="#ffb13b" fill-opacity="0.9"/>
<path d="M 120 568 L 210 470 L 270 525 L 320 478 L 370 540 L 370 568 Z" fill="#ff7847" fill-opacity="0.55"/>
<path d="M 120 568 L 280 500 L 370 545 L 370 568 Z" fill="#ff7847" fill-opacity="0.8"/>
</g>
<text x="128" y="360" font-family="monospace" font-size="20" fill="#ff7847" fill-opacity="0.7">SOURCE · 2.4MB</text>
<path d="M 372 386 L 560 452 L 560 516 L 372 560 Z" fill="#ff7847" fill-opacity="0.10" stroke="#ff7847" stroke-opacity="0.4" stroke-width="2"/>
<line x1="372" y1="422" x2="560" y2="452" stroke="#ff7847" stroke-opacity="0.12" stroke-width="1.5"/>
<line x1="372" y1="440" x2="560" y2="470" stroke="#ff7847" stroke-opacity="0.12" stroke-width="1.5"/>
<line x1="372" y1="518" x2="560" y2="488" stroke="#ff7847" stroke-opacity="0.12" stroke-width="1.5"/>
<line x1="372" y1="536" x2="560" y2="506" stroke="#ff7847" stroke-opacity="0.12" stroke-width="1.5"/>
<rect x="636" y="432" width="150" height="116" rx="14" fill="#170b05" stroke="#ff7847" stroke-width="2" stroke-opacity="0.4"/>
<rect x="622" y="418" width="150" height="116" rx="14" fill="#1a0d06" stroke="#ff7847" stroke-width="2.5" stroke-opacity="0.6"/>
<circle cx="685" cy="476" r="60" fill="#ff7847" fill-opacity="0.12" filter="url(#bloom)"/>
<rect x="608" y="404" width="150" height="116" rx="14" fill="#1c0e07" stroke="#ff7847" stroke-width="3.5"/>
<circle cx="650" cy="448" r="15" fill="#ffb13b"/>
<path d="M 608 520 L 666 470 L 700 494 L 740 458 L 758 472 L 758 520 Z" fill="#ff7847" fill-opacity="0.7"/>
<text x="612" y="392" font-family="monospace" font-size="19" fill="#ffb13b" fill-opacity="0.85">AVIF · 0.5MB</text>
<rect x="610" y="540" width="70" height="30" rx="15" fill="none" stroke="#ff7847" stroke-width="2" stroke-opacity="0.6"/>
<text x="624" y="561" font-family="monospace" font-size="16" fill="#ff7847" fill-opacity="0.8">WEBP</text>
<rect x="690" y="540" width="66" height="30" rx="15" fill="none" stroke="#ff7847" stroke-width="2" stroke-opacity="0.6"/>
<text x="703" y="561" font-family="monospace" font-size="16" fill="#ff7847" fill-opacity="0.8">AVIF</text>
<line x1="800" y1="430" x2="950" y2="430" stroke="#ff7847" stroke-opacity="0.5" stroke-width="4" stroke-linecap="round"/>
<line x1="800" y1="462" x2="910" y2="462" stroke="#ff7847" stroke-opacity="0.5" stroke-width="4" stroke-linecap="round"/>
<line x1="800" y1="494" x2="970" y2="494" stroke="#ff7847" stroke-opacity="0.5" stroke-width="4" stroke-linecap="round"/>
<line x1="815" y1="526" x2="905" y2="526" stroke="#ff7847" stroke-opacity="0.5" stroke-width="4" stroke-linecap="round"/>
<text x="660" y="285" font-family="Arial Black, Arial, sans-serif" font-weight="900" font-size="150" fill="#ff7847" filter="url(#bloom)" opacity="0.35">5&#215;</text>
<text x="660" y="285" font-family="Arial Black, Arial, sans-serif" font-weight="900" font-size="150" fill="#ff7847">5&#215;</text>
<text x="666" y="320" font-family="monospace" font-size="20" fill="#ff7847" fill-opacity="0.75">FASTER LOADS</text>
<rect width="1000" height="1000" fill="url(#vig)"/>
</svg>