<svg xmlns="http://www.w3.org/2000/svg" width="1000" height="1000" viewBox="0 0 1000 1000" fill="none">
<defs>
<linearGradient id="bg" x1="0" y1="0" x2="0.4" y2="1"><stop offset="0" stop-color="#241a06"/><stop offset="0.55" stop-color="#1c1604"/><stop offset="1" stop-color="#080500"/></linearGradient>
<radialGradient id="glow" cx="0.45" cy="0.48" r="0.6"><stop offset="0" stop-color="#ffd84d" stop-opacity="0.22"/><stop offset="0.5" stop-color="#ffd84d" stop-opacity="0.05"/><stop offset="1" stop-color="#ffd84d" stop-opacity="0"/></radialGradient>
<filter id="bloom" x="-60%" y="-60%" width="220%" height="220%"><feGaussianBlur stdDeviation="11"/></filter>
<radialGradient id="vig" cx="0.5" cy="0.46" r="0.78"><stop offset="0.55" stop-color="#000" stop-opacity="0"/><stop offset="1" stop-color="#000" stop-opacity="0.46"/></radialGradient>
</defs>
<rect width="1000" height="1000" fill="url(#bg)"/>
<rect width="1000" height="1000" fill="url(#glow)"/>
<circle cx="70" cy="120" r="2" fill="#ffd84d" fill-opacity="0.05"/><circle cx="126" cy="120" r="2" fill="#ffd84d" fill-opacity="0.05"/><circle cx="182" cy="120" r="2" fill="#ffd84d" fill-opacity="0.05"/><circle cx="238" cy="120" r="2" fill="#ffd84d" fill-opacity="0.05"/><circle cx="294" cy="120" r="2" fill="#ffd84d" fill-opacity="0.05"/><circle cx="350" cy="120" r="2" fill="#ffd84d" fill-opacity="0.05"/><circle cx="406" cy="120" r="2" fill="#ffd84d" fill-opacity="0.05"/><circle cx="462" cy="120" r="2" fill="#ffd84d" fill-opacity="0.05"/><circle cx="518" cy="120" r="2" fill="#ffd84d" fill-opacity="0.05"/><circle cx="574" cy="120" r="2" fill="#ffd84d" fill-opacity="0.05"/><circle cx="630" cy="120" r="2" fill="#ffd84d" fill-opacity="0.05"/><circle cx="686" cy="120" r="2" fill="#ffd84d" fill-opacity="0.05"/><circle cx="742" cy="120" r="2" fill="#ffd84d" fill-opacity="0.05"/><circle cx="798" cy="120" r="2" fill="#ffd84d" fill-opacity="0.05"/><circle cx="854" cy="120" r="2" fill="#ffd84d" fill-opacity="0.05"/><circle cx="910" cy="120" r="2" fill="#ffd84d" fill-opacity="0.05"/><circle cx="70" cy="176" r="2" fill="#ffd84d" fill-opacity="0.05"/><circle cx="126" cy="176" r="2" fill="#ffd84d" fill-opacity="0.05"/><circle cx="182" cy="176" r="2" fill="#ffd84d" fill-opacity="0.05"/><circle cx="238" cy="176" r="2" fill="#ffd84d" fill-opacity="0.05"/><circle cx="294" cy="176" r="2" fill="#ffd84d" fill-opacity="0.05"/><circle cx="350" cy="176" r="2" fill="#ffd84d" fill-opacity="0.05"/><circle cx="406" cy="176" r="2" fill="#ffd84d" fill-opacity="0.05"/><circle cx="462" cy="176" r="2" fill="#ffd84d" fill-opacity="0.05"/><circle cx="518" cy="176" r="2" fill="#ffd84d" fill-opacity="0.05"/><circle cx="574" cy="176" r="2" fill="#ffd84d" fill-opacity="0.05"/><circle cx="630" cy="176" r="2" fill="#ffd84d" fill-opacity="0.05"/><circle cx="686" cy="176" r="2" fill="#ffd84d" fill-opacity="0.05"/><circle cx="742" cy="176" r="2" fill="#ffd84d" fill-opacity="0.05"/><circle cx="798" cy="176" r="2" fill="#ffd84d" fill-opacity="0.05"/><circle cx="854" cy="176" r="2" fill="#ffd84d" fill-opacity="0.05"/><circle cx="910" cy="176" r="2" fill="#ffd84d" fill-opacity="0.05"/><circle cx="70" cy="232" r="2" fill="#ffd84d" fill-opacity="0.05"/><circle cx="126" cy="232" r="2" fill="#ffd84d" fill-opacity="0.05"/><circle cx="182" cy="232" r="2" fill="#ffd84d" fill-opacity="0.05"/><circle cx="238" cy="232" r="2" fill="#ffd84d" fill-opacity="0.05"/><circle cx="294" cy="232" r="2" fill="#ffd84d" fill-opacity="0.05"/><circle cx="350" cy="232" r="2" fill="#ffd84d" fill-opacity="0.05"/><circle cx="406" cy="232" r="2" fill="#ffd84d" fill-opacity="0.05"/><circle cx="462" cy="232" r="2" fill="#ffd84d" fill-opacity="0.05"/><circle cx="518" cy="232" r="2" fill="#ffd84d" fill-opacity="0.05"/><circle cx="574" cy="232" r="2" fill="#ffd84d" fill-opacity="0.05"/><circle cx="630" cy="232" r="2" fill="#ffd84d" fill-opacity="0.05"/><circle cx="686" cy="232" r="2" fill="#ffd84d" fill-opacity="0.05"/><circle cx="742" cy="232" r="2" fill="#ffd84d" fill-opacity="0.05"/><circle cx="798" cy="232" r="2" fill="#ffd84d" fill-opacity="0.05"/><circle cx="854" cy="232" r="2" fill="#ffd84d" fill-opacity="0.05"/><circle cx="910" cy="232" r="2" fill="#ffd84d" fill-opacity="0.05"/><circle cx="70" cy="288" r="2" fill="#ffd84d" fill-opacity="0.05"/><circle cx="126" cy="288" r="2" fill="#ffd84d" fill-opacity="0.05"/><circle cx="182" cy="288" r="2" fill="#ffd84d" fill-opacity="0.05"/><circle cx="238" cy="288" r="2" fill="#ffd84d" fill-opacity="0.05"/><circle cx="294" cy="288" r="2" fill="#ffd84d" fill-opacity="0.05"/><circle cx="350" cy="288" r="2" fill="#ffd84d" fill-opacity="0.05"/><circle cx="406" cy="288" r="2" fill="#ffd84d" fill-opacity="0.05"/><circle cx="462" cy="288" r="2" fill="#ffd84d" fill-opacity="0.05"/><circle cx="518" cy="288" r="2" fill="#ffd84d" fill-opacity="0.05"/><circle cx="574" cy="288" r="2" fill="#ffd84d" fill-opacity="0.05"/><circle cx="630" cy="288" r="2" fill="#ffd84d" fill-opacity="0.05"/><circle cx="686" cy="288" r="2" fill="#ffd84d" fill-opacity="0.05"/><circle cx="742" cy="288" r="2" fill="#ffd84d" fill-opacity="0.05"/><circle cx="798" cy="288" r="2" fill="#ffd84d" fill-opacity="0.05"/><circle cx="854" cy="288" r="2" fill="#ffd84d" fill-opacity="0.05"/><circle cx="910" cy="288" r="2" fill="#ffd84d" fill-opacity="0.05"/><circle cx="70" cy="344" r="2" fill="#ffd84d" fill-opacity="0.05"/><circle cx="126" cy="344" r="2" fill="#ffd84d" fill-opacity="0.05"/><circle cx="182" cy="344" r="2" fill="#ffd84d" fill-opacity="0.05"/><circle cx="238" cy="344" r="2" fill="#ffd84d" fill-opacity="0.05"/><circle cx="294" cy="344" r="2" fill="#ffd84d" fill-opacity="0.05"/><circle cx="350" cy="344" r="2" fill="#ffd84d" fill-opacity="0.05"/><circle cx="406" cy="344" r="2" fill="#ffd84d" fill-opacity="0.05"/><circle cx="462" cy="344" r="2" fill="#ffd84d" fill-opacity="0.05"/><circle cx="518" cy="344" r="2" fill="#ffd84d" fill-opacity="0.05"/><circle cx="574" cy="344" r="2" fill="#ffd84d" fill-opacity="0.05"/><circle cx="630" cy="344" r="2" fill="#ffd84d" fill-opacity="0.05"/><circle cx="686" cy="344" r="2" fill="#ffd84d" fill-opacity="0.05"/><circle cx="742" cy="344" r="2" fill="#ffd84d" fill-opacity="0.05"/><circle cx="798" cy="344" r="2" fill="#ffd84d" fill-opacity="0.05"/><circle cx="854" cy="344" r="2" fill="#ffd84d" fill-opacity="0.05"/><circle cx="910" cy="344" r="2" fill="#ffd84d" fill-opacity="0.05"/><circle cx="70" cy="400" r="2" fill="#ffd84d" fill-opacity="0.05"/><circle cx="126" cy="400" r="2" fill="#ffd84d" fill-opacity="0.05"/><circle cx="182" cy="400" r="2" fill="#ffd84d" fill-opacity="0.05"/><circle cx="238" cy="400" r="2" fill="#ffd84d" fill-opacity="0.05"/><circle cx="294" cy="400" r="2" fill="#ffd84d" fill-opacity="0.05"/><circle cx="350" cy="400" r="2" fill="#ffd84d" fill-opacity="0.05"/><circle cx="406" cy="400" r="2" fill="#ffd84d" fill-opacity="0.05"/><circle cx="462" cy="400" r="2" fill="#ffd84d" fill-opacity="0.05"/><circle cx="518" cy="400" r="2" fill="#ffd84d" fill-opacity="0.05"/><circle cx="574" cy="400" r="2" fill="#ffd84d" fill-opacity="0.05"/><circle cx="630" cy="400" r="2" fill="#ffd84d" fill-opacity="0.05"/><circle cx="686" cy="400" r="2" fill="#ffd84d" fill-opacity="0.05"/><circle cx="742" cy="400" r="2" fill="#ffd84d" fill-opacity="0.05"/><circle cx="798" cy="400" r="2" fill="#ffd84d" fill-opacity="0.05"/><circle cx="854" cy="400" r="2" fill="#ffd84d" fill-opacity="0.05"/><circle cx="910" cy="400" r="2" fill="#ffd84d" fill-opacity="0.05"/><circle cx="70" cy="456" r="2" fill="#ffd84d" fill-opacity="0.05"/><circle cx="126" cy="456" r="2" fill="#ffd84d" fill-opacity="0.05"/><circle cx="182" cy="456" r="2" fill="#ffd84d" fill-opacity="0.05"/><circle cx="238" cy="456" r="2" fill="#ffd84d" fill-opacity="0.05"/><circle cx="294" cy="456" r="2" fill="#ffd84d" fill-opacity="0.05"/><circle cx="350" cy="456" r="2" fill="#ffd84d" fill-opacity="0.05"/><circle cx="406" cy="456" r="2" fill="#ffd84d" fill-opacity="0.05"/><circle cx="462" cy="456" r="2" fill="#ffd84d" fill-opacity="0.05"/><circle cx="518" cy="456" r="2" fill="#ffd84d" fill-opacity="0.05"/><circle cx="574" cy="456" r="2" fill="#ffd84d" fill-opacity="0.05"/><circle cx="630" cy="456" r="2" fill="#ffd84d" fill-opacity="0.05"/><circle cx="686" cy="456" r="2" fill="#ffd84d" fill-opacity="0.05"/><circle cx="742" cy="456" r="2" fill="#ffd84d" fill-opacity="0.05"/><circle cx="798" cy="456" r="2" fill="#ffd84d" fill-opacity="0.05"/><circle cx="854" cy="456" r="2" fill="#ffd84d" fill-opacity="0.05"/><circle cx="910" cy="456" r="2" fill="#ffd84d" fill-opacity="0.05"/><circle cx="70" cy="512" r="2" fill="#ffd84d" fill-opacity="0.05"/><circle cx="126" cy="512" r="2" fill="#ffd84d" fill-opacity="0.05"/><circle cx="182" cy="512" r="2" fill="#ffd84d" fill-opacity="0.05"/><circle cx="238" cy="512" r="2" fill="#ffd84d" fill-opacity="0.05"/><circle cx="294" cy="512" r="2" fill="#ffd84d" fill-opacity="0.05"/><circle cx="350" cy="512" r="2" fill="#ffd84d" fill-opacity="0.05"/><circle cx="406" cy="512" r="2" fill="#ffd84d" fill-opacity="0.05"/><circle cx="462" cy="512" r="2" fill="#ffd84d" fill-opacity="0.05"/><circle cx="518" cy="512" r="2" fill="#ffd84d" fill-opacity="0.05"/><circle cx="574" cy="512" r="2" fill="#ffd84d" fill-opacity="0.05"/><circle cx="630" cy="512" r="2" fill="#ffd84d" fill-opacity="0.05"/><circle cx="686" cy="512" r="2" fill="#ffd84d" fill-opacity="0.05"/><circle cx="742" cy="512" r="2" fill="#ffd84d" fill-opacity="0.05"/><circle cx="798" cy="512" r="2" fill="#ffd84d" fill-opacity="0.05"/><circle cx="854" cy="512" r="2" fill="#ffd84d" fill-opacity="0.05"/><circle cx="910" cy="512" r="2" fill="#ffd84d" fill-opacity="0.05"/><circle cx="70" cy="568" r="2" fill="#ffd84d" fill-opacity="0.05"/><circle cx="126" cy="568" r="2" fill="#ffd84d" fill-opacity="0.05"/><circle cx="182" cy="568" r="2" fill="#ffd84d" fill-opacity="0.05"/><circle cx="238" cy="568" r="2" fill="#ffd84d" fill-opacity="0.05"/><circle cx="294" cy="568" r="2" fill="#ffd84d" fill-opacity="0.05"/><circle cx="350" cy="568" r="2" fill="#ffd84d" fill-opacity="0.05"/><circle cx="406" cy="568" r="2" fill="#ffd84d" fill-opacity="0.05"/><circle cx="462" cy="568" r="2" fill="#ffd84d" fill-opacity="0.05"/><circle cx="518" cy="568" r="2" fill="#ffd84d" fill-opacity="0.05"/><circle cx="574" cy="568" r="2" fill="#ffd84d" fill-opacity="0.05"/><circle cx="630" cy="568" r="2" fill="#ffd84d" fill-opacity="0.05"/><circle cx="686" cy="568" r="2" fill="#ffd84d" fill-opacity="0.05"/><circle cx="742" cy="568" r="2" fill="#ffd84d" fill-opacity="0.05"/><circle cx="798" cy="568" r="2" fill="#ffd84d" fill-opacity="0.05"/><circle cx="854" cy="568" r="2" fill="#ffd84d" fill-opacity="0.05"/><circle cx="910" cy="568" r="2" fill="#ffd84d" fill-opacity="0.05"/><circle cx="70" cy="624" r="2" fill="#ffd84d" fill-opacity="0.05"/><circle cx="126" cy="624" r="2" fill="#ffd84d" fill-opacity="0.05"/><circle cx="182" cy="624" r="2" fill="#ffd84d" fill-opacity="0.05"/><circle cx="238" cy="624" r="2" fill="#ffd84d" fill-opacity="0.05"/><circle cx="294" cy="624" r="2" fill="#ffd84d" fill-opacity="0.05"/><circle cx="350" cy="624" r="2" fill="#ffd84d" fill-opacity="0.05"/><circle cx="406" cy="624" r="2" fill="#ffd84d" fill-opacity="0.05"/><circle cx="462" cy="624" r="2" fill="#ffd84d" fill-opacity="0.05"/><circle cx="518" cy="624" r="2" fill="#ffd84d" fill-opacity="0.05"/><circle cx="574" cy="624" r="2" fill="#ffd84d" fill-opacity="0.05"/><circle cx="630" cy="624" r="2" fill="#ffd84d" fill-opacity="0.05"/><circle cx="686" cy="624" r="2" fill="#ffd84d" fill-opacity="0.05"/><circle cx="742" cy="624" r="2" fill="#ffd84d" fill-opacity="0.05"/><circle cx="798" cy="624" r="2" fill="#ffd84d" fill-opacity="0.05"/><circle cx="854" cy="624" r="2" fill="#ffd84d" fill-opacity="0.05"/><circle cx="910" cy="624" r="2" fill="#ffd84d" fill-opacity="0.05"/><circle cx="70" cy="680" r="2" fill="#ffd84d" fill-opacity="0.05"/><circle cx="126" cy="680" r="2" fill="#ffd84d" fill-opacity="0.05"/><circle cx="182" cy="680" r="2" fill="#ffd84d" fill-opacity="0.05"/><circle cx="238" cy="680" r="2" fill="#ffd84d" fill-opacity="0.05"/><circle cx="294" cy="680" r="2" fill="#ffd84d" fill-opacity="0.05"/><circle cx="350" cy="680" r="2" fill="#ffd84d" fill-opacity="0.05"/><circle cx="406" cy="680" r="2" fill="#ffd84d" fill-opacity="0.05"/><circle cx="462" cy="680" r="2" fill="#ffd84d" fill-opacity="0.05"/><circle cx="518" cy="680" r="2" fill="#ffd84d" fill-opacity="0.05"/><circle cx="574" cy="680" r="2" fill="#ffd84d" fill-opacity="0.05"/><circle cx="630" cy="680" r="2" fill="#ffd84d" fill-opacity="0.05"/><circle cx="686" cy="680" r="2" fill="#ffd84d" fill-opacity="0.05"/><circle cx="742" cy="680" r="2" fill="#ffd84d" fill-opacity="0.05"/><circle cx="798" cy="680" r="2" fill="#ffd84d" fill-opacity="0.05"/><circle cx="854" cy="680" r="2" fill="#ffd84d" fill-opacity="0.05"/><circle cx="910" cy="680" r="2" fill="#ffd84d" fill-opacity="0.05"/><circle cx="70" cy="736" r="2" fill="#ffd84d" fill-opacity="0.05"/><circle cx="126" cy="736" r="2" fill="#ffd84d" fill-opacity="0.05"/><circle cx="182" cy="736" r="2" fill="#ffd84d" fill-opacity="0.05"/><circle cx="238" cy="736" r="2" fill="#ffd84d" fill-opacity="0.05"/><circle cx="294" cy="736" r="2" fill="#ffd84d" fill-opacity="0.05"/><circle cx="350" cy="736" r="2" fill="#ffd84d" fill-opacity="0.05"/><circle cx="406" cy="736" r="2" fill="#ffd84d" fill-opacity="0.05"/><circle cx="462" cy="736" r="2" fill="#ffd84d" fill-opacity="0.05"/><circle cx="518" cy="736" r="2" fill="#ffd84d" fill-opacity="0.05"/><circle cx="574" cy="736" r="2" fill="#ffd84d" fill-opacity="0.05"/><circle cx="630" cy="736" r="2" fill="#ffd84d" fill-opacity="0.05"/><circle cx="686" cy="736" r="2" fill="#ffd84d" fill-opacity="0.05"/><circle cx="742" cy="736" r="2" fill="#ffd84d" fill-opacity="0.05"/><circle cx="798" cy="736" r="2" fill="#ffd84d" fill-opacity="0.05"/><circle cx="854" cy="736" r="2" fill="#ffd84d" fill-opacity="0.05"/><circle cx="910" cy="736" r="2" fill="#ffd84d" fill-opacity="0.05"/><circle cx="70" cy="792" r="2" fill="#ffd84d" fill-opacity="0.05"/><circle cx="126" cy="792" r="2" fill="#ffd84d" fill-opacity="0.05"/><circle cx="182" cy="792" r="2" fill="#ffd84d" fill-opacity="0.05"/><circle cx="238" cy="792" r="2" fill="#ffd84d" fill-opacity="0.05"/><circle cx="294" cy="792" r="2" fill="#ffd84d" fill-opacity="0.05"/><circle cx="350" cy="792" r="2" fill="#ffd84d" fill-opacity="0.05"/><circle cx="406" cy="792" r="2" fill="#ffd84d" fill-opacity="0.05"/><circle cx="462" cy="792" r="2" fill="#ffd84d" fill-opacity="0.05"/><circle cx="518" cy="792" r="2" fill="#ffd84d" fill-opacity="0.05"/><circle cx="574" cy="792" r="2" fill="#ffd84d" fill-opacity="0.05"/><circle cx="630" cy="792" r="2" fill="#ffd84d" fill-opacity="0.05"/><circle cx="686" cy="792" r="2" fill="#ffd84d" fill-opacity="0.05"/><circle cx="742" cy="792" r="2" fill="#ffd84d" fill-opacity="0.05"/><circle cx="798" cy="792" r="2" fill="#ffd84d" fill-opacity="0.05"/><circle cx="854" cy="792" r="2" fill="#ffd84d" fill-opacity="0.05"/><circle cx="910" cy="792" r="2" fill="#ffd84d" fill-opacity="0.05"/><circle cx="70" cy="848" r="2" fill="#ffd84d" fill-opacity="0.05"/><circle cx="126" cy="848" r="2" fill="#ffd84d" fill-opacity="0.05"/><circle cx="182" cy="848" r="2" fill="#ffd84d" fill-opacity="0.05"/><circle cx="238" cy="848" r="2" fill="#ffd84d" fill-opacity="0.05"/><circle cx="294" cy="848" r="2" fill="#ffd84d" fill-opacity="0.05"/><circle cx="350" cy="848" r="2" fill="#ffd84d" fill-opacity="0.05"/><circle cx="406" cy="848" r="2" fill="#ffd84d" fill-opacity="0.05"/><circle cx="462" cy="848" r="2" fill="#ffd84d" fill-opacity="0.05"/><circle cx="518" cy="848" r="2" fill="#ffd84d" fill-opacity="0.05"/><circle cx="574" cy="848" r="2" fill="#ffd84d" fill-opacity="0.05"/><circle cx="630" cy="848" r="2" fill="#ffd84d" fill-opacity="0.05"/><circle cx="686" cy="848" r="2" fill="#ffd84d" fill-opacity="0.05"/><circle cx="742" cy="848" r="2" fill="#ffd84d" fill-opacity="0.05"/><circle cx="798" cy="848" r="2" fill="#ffd84d" fill-opacity="0.05"/><circle cx="854" cy="848" r="2" fill="#ffd84d" fill-opacity="0.05"/><circle cx="910" cy="848" r="2" fill="#ffd84d" fill-opacity="0.05"/>
<line x1="430" y1="490" x2="250" y2="330" stroke="#ffd84d" stroke-opacity="0.2" stroke-width="2"/>
<line x1="430" y1="490" x2="470" y2="300" stroke="#ffd84d" stroke-opacity="0.2" stroke-width="2"/>
<line x1="430" y1="490" x2="200" y2="520" stroke="#ffd84d" stroke-opacity="0.2" stroke-width="2"/>
<line x1="430" y1="490" x2="300" y2="668" stroke="#ffd84d" stroke-opacity="0.2" stroke-width="2"/>
<line x1="430" y1="490" x2="540" y2="660" stroke="#ffd84d" stroke-opacity="0.2" stroke-width="2"/>
<line x1="430" y1="490" x2="628" y2="520" stroke="#ffd84d" stroke-opacity="0.2" stroke-width="2"/>
<line x1="430" y1="490" x2="610" y2="360" stroke="#ffd84d" stroke-opacity="0.2" stroke-width="2"/>
<line x1="250" y1="330" x2="470" y2="300" stroke="#ffd84d" stroke-opacity="0.12" stroke-width="1.5"/>
<line x1="628" y1="520" x2="540" y2="660" stroke="#ffd84d" stroke-opacity="0.12" stroke-width="1.5"/>
<line x1="300" y1="668" x2="200" y2="520" stroke="#ffd84d" stroke-opacity="0.12" stroke-width="1.5"/>
<line x1="610" y1="360" x2="470" y2="300" stroke="#ffd84d" stroke-opacity="0.12" stroke-width="1.5"/>
<circle cx="340" cy="410" r="4.5" fill="#ffd84d" fill-opacity="0.85"/>
<circle cx="529" cy="505" r="4.5" fill="#ffd84d" fill-opacity="0.85"/>
<circle cx="250" cy="330" r="26" fill="#1c1604" stroke="#ffd84d" stroke-opacity="0.7" stroke-width="2.5"/><circle cx="250" cy="324.28" r="6.76" fill="#ffd84d" fill-opacity="0.7"/><path d="M 239.08 343.0 a 10.92 10.92 0 0 1 21.84 0" fill="none" stroke="#ffd84d" stroke-opacity="0.7" stroke-width="2.5"/>
<circle cx="470" cy="300" r="22" fill="#1c1604" stroke="#ffd84d" stroke-opacity="0.7" stroke-width="2.5"/><circle cx="470" cy="295.16" r="5.720000000000001" fill="#ffd84d" fill-opacity="0.7"/><path d="M 460.76 311.0 a 9.24 9.24 0 0 1 18.48 0" fill="none" stroke="#ffd84d" stroke-opacity="0.7" stroke-width="2.5"/>
<circle cx="200" cy="520" r="18" fill="#1c1604" stroke="#ffd84d" stroke-opacity="0.7" stroke-width="2.5"/><circle cx="200" cy="516.04" r="4.68" fill="#ffd84d" fill-opacity="0.7"/><path d="M 192.44 529.0 a 7.56 7.56 0 0 1 15.12 0" fill="none" stroke="#ffd84d" stroke-opacity="0.7" stroke-width="2.5"/>
<circle cx="300" cy="668" r="24" fill="#1c1604" stroke="#ffd84d" stroke-opacity="0.7" stroke-width="2.5"/><circle cx="300" cy="662.72" r="6.24" fill="#ffd84d" fill-opacity="0.7"/><path d="M 289.92 680.0 a 10.08 10.08 0 0 1 20.16 0" fill="none" stroke="#ffd84d" stroke-opacity="0.7" stroke-width="2.5"/>
<circle cx="540" cy="660" r="20" fill="#1c1604" stroke="#ffd84d" stroke-opacity="0.7" stroke-width="2.5"/><circle cx="540" cy="655.6" r="5.2" fill="#ffd84d" fill-opacity="0.7"/><path d="M 531.6 670.0 a 8.4 8.4 0 0 1 16.8 0" fill="none" stroke="#ffd84d" stroke-opacity="0.7" stroke-width="2.5"/>
<circle cx="628" cy="520" r="28" fill="#1c1604" stroke="#ffd84d" stroke-opacity="0.7" stroke-width="2.5"/><circle cx="628" cy="513.84" r="7.28" fill="#ffd84d" fill-opacity="0.7"/><path d="M 616.24 534.0 a 11.76 11.76 0 0 1 23.52 0" fill="none" stroke="#ffd84d" stroke-opacity="0.7" stroke-width="2.5"/>
<circle cx="610" cy="360" r="22" fill="#1c1604" stroke="#ffd84d" stroke-opacity="0.7" stroke-width="2.5"/><circle cx="610" cy="355.16" r="5.720000000000001" fill="#ffd84d" fill-opacity="0.7"/><path d="M 600.76 371.0 a 9.24 9.24 0 0 1 18.48 0" fill="none" stroke="#ffd84d" stroke-opacity="0.7" stroke-width="2.5"/>
<circle cx="430" cy="490" r="62" fill="#ffd84d" fill-opacity="0.18" filter="url(#bloom)"/>
<circle cx="430" cy="490" r="50" fill="#1c1604" stroke="#ffd84d" stroke-opacity="1.0" stroke-width="3.5"/><circle cx="430" cy="479.0" r="13.0" fill="#ffd84d" fill-opacity="1.0"/><path d="M 409.0 515.0 a 21.0 21.0 0 0 1 42.0 0" fill="none" stroke="#ffd84d" stroke-opacity="1.0" stroke-width="3.5"/>
<rect x="690.0" y="158.0" width="214.0" height="150.0" rx="14" fill="#1a1404" stroke="#ffd84d" stroke-width="2.5" stroke-opacity="0.6"/>
<text x="706" y="186" font-family="monospace" font-size="15" fill="#ffd84d" fill-opacity="0.8">CITATIONS</text>
<rect x="710.0" y="262.5" width="21.0" height="23.5" rx="3" fill="#ffd84d" fill-opacity="0.49"/>
<rect x="739.0" y="252.4" width="21.0" height="33.6" rx="3" fill="#ffd84d" fill-opacity="0.55"/>
<rect x="768.0" y="257.4" width="21.0" height="28.6" rx="3" fill="#ffd84d" fill-opacity="0.52"/>
<rect x="797.0" y="237.3" width="21.0" height="48.7" rx="3" fill="#ffd84d" fill-opacity="0.6399999999999999"/>
<rect x="826.0" y="225.5" width="21.0" height="60.5" rx="3" fill="#ffd84d" fill-opacity="0.71"/>
<rect x="855.0" y="206.2" width="21.0" height="79.8" rx="3" fill="#ffd84d" fill-opacity="0.825"/>
<polyline points="720,258 750,248 778,253 808,233 836,222 866,202" fill="none" stroke="#ffd84d" stroke-width="2.5" stroke-opacity="0.9"/>
<line x1="706" y1="286" x2="888" y2="286" stroke="#ffd84d" stroke-opacity="0.3" stroke-width="2"/>
<rect width="1000" height="1000" fill="url(#vig)"/>
</svg>