<svg xmlns="http://www.w3.org/2000/svg" width="1000" height="1000" viewBox="0 0 1000 1000" fill="none">
<defs>
<linearGradient id="bg" x1="0" y1="0" x2="0.4" y2="1"><stop offset="0" stop-color="#1b1540"/><stop offset="0.55" stop-color="#13102a"/><stop offset="1" stop-color="#070512"/></linearGradient>
<radialGradient id="glow" cx="0.5" cy="0.34" r="0.6"><stop offset="0" stop-color="#b59cff" stop-opacity="0.28"/><stop offset="0.5" stop-color="#b59cff" stop-opacity="0.06"/><stop offset="1" stop-color="#b59cff" stop-opacity="0"/></radialGradient>
<filter id="bloom" x="-60%" y="-60%" width="220%" height="220%"><feGaussianBlur stdDeviation="12"/></filter>
<radialGradient id="vig" cx="0.5" cy="0.46" r="0.78"><stop offset="0.55" stop-color="#000" stop-opacity="0"/><stop offset="1" stop-color="#000" stop-opacity="0.46"/></radialGradient>
</defs>
<rect width="1000" height="1000" fill="url(#bg)"/>
<rect width="1000" height="1000" fill="url(#glow)"/>
<circle cx="70" cy="120" r="2" fill="#b59cff" fill-opacity="0.05"/><circle cx="126" cy="120" r="2" fill="#b59cff" fill-opacity="0.05"/><circle cx="182" cy="120" r="2" fill="#b59cff" fill-opacity="0.05"/><circle cx="238" cy="120" r="2" fill="#b59cff" fill-opacity="0.05"/><circle cx="294" cy="120" r="2" fill="#b59cff" fill-opacity="0.05"/><circle cx="350" cy="120" r="2" fill="#b59cff" fill-opacity="0.05"/><circle cx="406" cy="120" r="2" fill="#b59cff" fill-opacity="0.05"/><circle cx="462" cy="120" r="2" fill="#b59cff" fill-opacity="0.05"/><circle cx="518" cy="120" r="2" fill="#b59cff" fill-opacity="0.05"/><circle cx="574" cy="120" r="2" fill="#b59cff" fill-opacity="0.05"/><circle cx="630" cy="120" r="2" fill="#b59cff" fill-opacity="0.05"/><circle cx="686" cy="120" r="2" fill="#b59cff" fill-opacity="0.05"/><circle cx="742" cy="120" r="2" fill="#b59cff" fill-opacity="0.05"/><circle cx="798" cy="120" r="2" fill="#b59cff" fill-opacity="0.05"/><circle cx="854" cy="120" r="2" fill="#b59cff" fill-opacity="0.05"/><circle cx="910" cy="120" r="2" fill="#b59cff" fill-opacity="0.05"/><circle cx="70" cy="176" r="2" fill="#b59cff" fill-opacity="0.05"/><circle cx="126" cy="176" r="2" fill="#b59cff" fill-opacity="0.05"/><circle cx="182" cy="176" r="2" fill="#b59cff" fill-opacity="0.05"/><circle cx="238" cy="176" r="2" fill="#b59cff" fill-opacity="0.05"/><circle cx="294" cy="176" r="2" fill="#b59cff" fill-opacity="0.05"/><circle cx="350" cy="176" r="2" fill="#b59cff" fill-opacity="0.05"/><circle cx="406" cy="176" r="2" fill="#b59cff" fill-opacity="0.05"/><circle cx="462" cy="176" r="2" fill="#b59cff" fill-opacity="0.05"/><circle cx="518" cy="176" r="2" fill="#b59cff" fill-opacity="0.05"/><circle cx="574" cy="176" r="2" fill="#b59cff" fill-opacity="0.05"/><circle cx="630" cy="176" r="2" fill="#b59cff" fill-opacity="0.05"/><circle cx="686" cy="176" r="2" fill="#b59cff" fill-opacity="0.05"/><circle cx="742" cy="176" r="2" fill="#b59cff" fill-opacity="0.05"/><circle cx="798" cy="176" r="2" fill="#b59cff" fill-opacity="0.05"/><circle cx="854" cy="176" r="2" fill="#b59cff" fill-opacity="0.05"/><circle cx="910" cy="176" r="2" fill="#b59cff" fill-opacity="0.05"/><circle cx="70" cy="232" r="2" fill="#b59cff" fill-opacity="0.05"/><circle cx="126" cy="232" r="2" fill="#b59cff" fill-opacity="0.05"/><circle cx="182" cy="232" r="2" fill="#b59cff" fill-opacity="0.05"/><circle cx="238" cy="232" r="2" fill="#b59cff" fill-opacity="0.05"/><circle cx="294" cy="232" r="2" fill="#b59cff" fill-opacity="0.05"/><circle cx="350" cy="232" r="2" fill="#b59cff" fill-opacity="0.05"/><circle cx="406" cy="232" r="2" fill="#b59cff" fill-opacity="0.05"/><circle cx="462" cy="232" r="2" fill="#b59cff" fill-opacity="0.05"/><circle cx="518" cy="232" r="2" fill="#b59cff" fill-opacity="0.05"/><circle cx="574" cy="232" r="2" fill="#b59cff" fill-opacity="0.05"/><circle cx="630" cy="232" r="2" fill="#b59cff" fill-opacity="0.05"/><circle cx="686" cy="232" r="2" fill="#b59cff" fill-opacity="0.05"/><circle cx="742" cy="232" r="2" fill="#b59cff" fill-opacity="0.05"/><circle cx="798" cy="232" r="2" fill="#b59cff" fill-opacity="0.05"/><circle cx="854" cy="232" r="2" fill="#b59cff" fill-opacity="0.05"/><circle cx="910" cy="232" r="2" fill="#b59cff" fill-opacity="0.05"/><circle cx="70" cy="288" r="2" fill="#b59cff" fill-opacity="0.05"/><circle cx="126" cy="288" r="2" fill="#b59cff" fill-opacity="0.05"/><circle cx="182" cy="288" r="2" fill="#b59cff" fill-opacity="0.05"/><circle cx="238" cy="288" r="2" fill="#b59cff" fill-opacity="0.05"/><circle cx="294" cy="288" r="2" fill="#b59cff" fill-opacity="0.05"/><circle cx="350" cy="288" r="2" fill="#b59cff" fill-opacity="0.05"/><circle cx="406" cy="288" r="2" fill="#b59cff" fill-opacity="0.05"/><circle cx="462" cy="288" r="2" fill="#b59cff" fill-opacity="0.05"/><circle cx="518" cy="288" r="2" fill="#b59cff" fill-opacity="0.05"/><circle cx="574" cy="288" r="2" fill="#b59cff" fill-opacity="0.05"/><circle cx="630" cy="288" r="2" fill="#b59cff" fill-opacity="0.05"/><circle cx="686" cy="288" r="2" fill="#b59cff" fill-opacity="0.05"/><circle cx="742" cy="288" r="2" fill="#b59cff" fill-opacity="0.05"/><circle cx="798" cy="288" r="2" fill="#b59cff" fill-opacity="0.05"/><circle cx="854" cy="288" r="2" fill="#b59cff" fill-opacity="0.05"/><circle cx="910" cy="288" r="2" fill="#b59cff" fill-opacity="0.05"/><circle cx="70" cy="344" r="2" fill="#b59cff" fill-opacity="0.05"/><circle cx="126" cy="344" r="2" fill="#b59cff" fill-opacity="0.05"/><circle cx="182" cy="344" r="2" fill="#b59cff" fill-opacity="0.05"/><circle cx="238" cy="344" r="2" fill="#b59cff" fill-opacity="0.05"/><circle cx="294" cy="344" r="2" fill="#b59cff" fill-opacity="0.05"/><circle cx="350" cy="344" r="2" fill="#b59cff" fill-opacity="0.05"/><circle cx="406" cy="344" r="2" fill="#b59cff" fill-opacity="0.05"/><circle cx="462" cy="344" r="2" fill="#b59cff" fill-opacity="0.05"/><circle cx="518" cy="344" r="2" fill="#b59cff" fill-opacity="0.05"/><circle cx="574" cy="344" r="2" fill="#b59cff" fill-opacity="0.05"/><circle cx="630" cy="344" r="2" fill="#b59cff" fill-opacity="0.05"/><circle cx="686" cy="344" r="2" fill="#b59cff" fill-opacity="0.05"/><circle cx="742" cy="344" r="2" fill="#b59cff" fill-opacity="0.05"/><circle cx="798" cy="344" r="2" fill="#b59cff" fill-opacity="0.05"/><circle cx="854" cy="344" r="2" fill="#b59cff" fill-opacity="0.05"/><circle cx="910" cy="344" r="2" fill="#b59cff" fill-opacity="0.05"/><circle cx="70" cy="400" r="2" fill="#b59cff" fill-opacity="0.05"/><circle cx="126" cy="400" r="2" fill="#b59cff" fill-opacity="0.05"/><circle cx="182" cy="400" r="2" fill="#b59cff" fill-opacity="0.05"/><circle cx="238" cy="400" r="2" fill="#b59cff" fill-opacity="0.05"/><circle cx="294" cy="400" r="2" fill="#b59cff" fill-opacity="0.05"/><circle cx="350" cy="400" r="2" fill="#b59cff" fill-opacity="0.05"/><circle cx="406" cy="400" r="2" fill="#b59cff" fill-opacity="0.05"/><circle cx="462" cy="400" r="2" fill="#b59cff" fill-opacity="0.05"/><circle cx="518" cy="400" r="2" fill="#b59cff" fill-opacity="0.05"/><circle cx="574" cy="400" r="2" fill="#b59cff" fill-opacity="0.05"/><circle cx="630" cy="400" r="2" fill="#b59cff" fill-opacity="0.05"/><circle cx="686" cy="400" r="2" fill="#b59cff" fill-opacity="0.05"/><circle cx="742" cy="400" r="2" fill="#b59cff" fill-opacity="0.05"/><circle cx="798" cy="400" r="2" fill="#b59cff" fill-opacity="0.05"/><circle cx="854" cy="400" r="2" fill="#b59cff" fill-opacity="0.05"/><circle cx="910" cy="400" r="2" fill="#b59cff" fill-opacity="0.05"/><circle cx="70" cy="456" r="2" fill="#b59cff" fill-opacity="0.05"/><circle cx="126" cy="456" r="2" fill="#b59cff" fill-opacity="0.05"/><circle cx="182" cy="456" r="2" fill="#b59cff" fill-opacity="0.05"/><circle cx="238" cy="456" r="2" fill="#b59cff" fill-opacity="0.05"/><circle cx="294" cy="456" r="2" fill="#b59cff" fill-opacity="0.05"/><circle cx="350" cy="456" r="2" fill="#b59cff" fill-opacity="0.05"/><circle cx="406" cy="456" r="2" fill="#b59cff" fill-opacity="0.05"/><circle cx="462" cy="456" r="2" fill="#b59cff" fill-opacity="0.05"/><circle cx="518" cy="456" r="2" fill="#b59cff" fill-opacity="0.05"/><circle cx="574" cy="456" r="2" fill="#b59cff" fill-opacity="0.05"/><circle cx="630" cy="456" r="2" fill="#b59cff" fill-opacity="0.05"/><circle cx="686" cy="456" r="2" fill="#b59cff" fill-opacity="0.05"/><circle cx="742" cy="456" r="2" fill="#b59cff" fill-opacity="0.05"/><circle cx="798" cy="456" r="2" fill="#b59cff" fill-opacity="0.05"/><circle cx="854" cy="456" r="2" fill="#b59cff" fill-opacity="0.05"/><circle cx="910" cy="456" r="2" fill="#b59cff" fill-opacity="0.05"/><circle cx="70" cy="512" r="2" fill="#b59cff" fill-opacity="0.05"/><circle cx="126" cy="512" r="2" fill="#b59cff" fill-opacity="0.05"/><circle cx="182" cy="512" r="2" fill="#b59cff" fill-opacity="0.05"/><circle cx="238" cy="512" r="2" fill="#b59cff" fill-opacity="0.05"/><circle cx="294" cy="512" r="2" fill="#b59cff" fill-opacity="0.05"/><circle cx="350" cy="512" r="2" fill="#b59cff" fill-opacity="0.05"/><circle cx="406" cy="512" r="2" fill="#b59cff" fill-opacity="0.05"/><circle cx="462" cy="512" r="2" fill="#b59cff" fill-opacity="0.05"/><circle cx="518" cy="512" r="2" fill="#b59cff" fill-opacity="0.05"/><circle cx="574" cy="512" r="2" fill="#b59cff" fill-opacity="0.05"/><circle cx="630" cy="512" r="2" fill="#b59cff" fill-opacity="0.05"/><circle cx="686" cy="512" r="2" fill="#b59cff" fill-opacity="0.05"/><circle cx="742" cy="512" r="2" fill="#b59cff" fill-opacity="0.05"/><circle cx="798" cy="512" r="2" fill="#b59cff" fill-opacity="0.05"/><circle cx="854" cy="512" r="2" fill="#b59cff" fill-opacity="0.05"/><circle cx="910" cy="512" r="2" fill="#b59cff" fill-opacity="0.05"/><circle cx="70" cy="568" r="2" fill="#b59cff" fill-opacity="0.05"/><circle cx="126" cy="568" r="2" fill="#b59cff" fill-opacity="0.05"/><circle cx="182" cy="568" r="2" fill="#b59cff" fill-opacity="0.05"/><circle cx="238" cy="568" r="2" fill="#b59cff" fill-opacity="0.05"/><circle cx="294" cy="568" r="2" fill="#b59cff" fill-opacity="0.05"/><circle cx="350" cy="568" r="2" fill="#b59cff" fill-opacity="0.05"/><circle cx="406" cy="568" r="2" fill="#b59cff" fill-opacity="0.05"/><circle cx="462" cy="568" r="2" fill="#b59cff" fill-opacity="0.05"/><circle cx="518" cy="568" r="2" fill="#b59cff" fill-opacity="0.05"/><circle cx="574" cy="568" r="2" fill="#b59cff" fill-opacity="0.05"/><circle cx="630" cy="568" r="2" fill="#b59cff" fill-opacity="0.05"/><circle cx="686" cy="568" r="2" fill="#b59cff" fill-opacity="0.05"/><circle cx="742" cy="568" r="2" fill="#b59cff" fill-opacity="0.05"/><circle cx="798" cy="568" r="2" fill="#b59cff" fill-opacity="0.05"/><circle cx="854" cy="568" r="2" fill="#b59cff" fill-opacity="0.05"/><circle cx="910" cy="568" r="2" fill="#b59cff" fill-opacity="0.05"/><circle cx="70" cy="624" r="2" fill="#b59cff" fill-opacity="0.05"/><circle cx="126" cy="624" r="2" fill="#b59cff" fill-opacity="0.05"/><circle cx="182" cy="624" r="2" fill="#b59cff" fill-opacity="0.05"/><circle cx="238" cy="624" r="2" fill="#b59cff" fill-opacity="0.05"/><circle cx="294" cy="624" r="2" fill="#b59cff" fill-opacity="0.05"/><circle cx="350" cy="624" r="2" fill="#b59cff" fill-opacity="0.05"/><circle cx="406" cy="624" r="2" fill="#b59cff" fill-opacity="0.05"/><circle cx="462" cy="624" r="2" fill="#b59cff" fill-opacity="0.05"/><circle cx="518" cy="624" r="2" fill="#b59cff" fill-opacity="0.05"/><circle cx="574" cy="624" r="2" fill="#b59cff" fill-opacity="0.05"/><circle cx="630" cy="624" r="2" fill="#b59cff" fill-opacity="0.05"/><circle cx="686" cy="624" r="2" fill="#b59cff" fill-opacity="0.05"/><circle cx="742" cy="624" r="2" fill="#b59cff" fill-opacity="0.05"/><circle cx="798" cy="624" r="2" fill="#b59cff" fill-opacity="0.05"/><circle cx="854" cy="624" r="2" fill="#b59cff" fill-opacity="0.05"/><circle cx="910" cy="624" r="2" fill="#b59cff" fill-opacity="0.05"/><circle cx="70" cy="680" r="2" fill="#b59cff" fill-opacity="0.05"/><circle cx="126" cy="680" r="2" fill="#b59cff" fill-opacity="0.05"/><circle cx="182" cy="680" r="2" fill="#b59cff" fill-opacity="0.05"/><circle cx="238" cy="680" r="2" fill="#b59cff" fill-opacity="0.05"/><circle cx="294" cy="680" r="2" fill="#b59cff" fill-opacity="0.05"/><circle cx="350" cy="680" r="2" fill="#b59cff" fill-opacity="0.05"/><circle cx="406" cy="680" r="2" fill="#b59cff" fill-opacity="0.05"/><circle cx="462" cy="680" r="2" fill="#b59cff" fill-opacity="0.05"/><circle cx="518" cy="680" r="2" fill="#b59cff" fill-opacity="0.05"/><circle cx="574" cy="680" r="2" fill="#b59cff" fill-opacity="0.05"/><circle cx="630" cy="680" r="2" fill="#b59cff" fill-opacity="0.05"/><circle cx="686" cy="680" r="2" fill="#b59cff" fill-opacity="0.05"/><circle cx="742" cy="680" r="2" fill="#b59cff" fill-opacity="0.05"/><circle cx="798" cy="680" r="2" fill="#b59cff" fill-opacity="0.05"/><circle cx="854" cy="680" r="2" fill="#b59cff" fill-opacity="0.05"/><circle cx="910" cy="680" r="2" fill="#b59cff" fill-opacity="0.05"/><circle cx="70" cy="736" r="2" fill="#b59cff" fill-opacity="0.05"/><circle cx="126" cy="736" r="2" fill="#b59cff" fill-opacity="0.05"/><circle cx="182" cy="736" r="2" fill="#b59cff" fill-opacity="0.05"/><circle cx="238" cy="736" r="2" fill="#b59cff" fill-opacity="0.05"/><circle cx="294" cy="736" r="2" fill="#b59cff" fill-opacity="0.05"/><circle cx="350" cy="736" r="2" fill="#b59cff" fill-opacity="0.05"/><circle cx="406" cy="736" r="2" fill="#b59cff" fill-opacity="0.05"/><circle cx="462" cy="736" r="2" fill="#b59cff" fill-opacity="0.05"/><circle cx="518" cy="736" r="2" fill="#b59cff" fill-opacity="0.05"/><circle cx="574" cy="736" r="2" fill="#b59cff" fill-opacity="0.05"/><circle cx="630" cy="736" r="2" fill="#b59cff" fill-opacity="0.05"/><circle cx="686" cy="736" r="2" fill="#b59cff" fill-opacity="0.05"/><circle cx="742" cy="736" r="2" fill="#b59cff" fill-opacity="0.05"/><circle cx="798" cy="736" r="2" fill="#b59cff" fill-opacity="0.05"/><circle cx="854" cy="736" r="2" fill="#b59cff" fill-opacity="0.05"/><circle cx="910" cy="736" r="2" fill="#b59cff" fill-opacity="0.05"/><circle cx="70" cy="792" r="2" fill="#b59cff" fill-opacity="0.05"/><circle cx="126" cy="792" r="2" fill="#b59cff" fill-opacity="0.05"/><circle cx="182" cy="792" r="2" fill="#b59cff" fill-opacity="0.05"/><circle cx="238" cy="792" r="2" fill="#b59cff" fill-opacity="0.05"/><circle cx="294" cy="792" r="2" fill="#b59cff" fill-opacity="0.05"/><circle cx="350" cy="792" r="2" fill="#b59cff" fill-opacity="0.05"/><circle cx="406" cy="792" r="2" fill="#b59cff" fill-opacity="0.05"/><circle cx="462" cy="792" r="2" fill="#b59cff" fill-opacity="0.05"/><circle cx="518" cy="792" r="2" fill="#b59cff" fill-opacity="0.05"/><circle cx="574" cy="792" r="2" fill="#b59cff" fill-opacity="0.05"/><circle cx="630" cy="792" r="2" fill="#b59cff" fill-opacity="0.05"/><circle cx="686" cy="792" r="2" fill="#b59cff" fill-opacity="0.05"/><circle cx="742" cy="792" r="2" fill="#b59cff" fill-opacity="0.05"/><circle cx="798" cy="792" r="2" fill="#b59cff" fill-opacity="0.05"/><circle cx="854" cy="792" r="2" fill="#b59cff" fill-opacity="0.05"/><circle cx="910" cy="792" r="2" fill="#b59cff" fill-opacity="0.05"/><circle cx="70" cy="848" r="2" fill="#b59cff" fill-opacity="0.05"/><circle cx="126" cy="848" r="2" fill="#b59cff" fill-opacity="0.05"/><circle cx="182" cy="848" r="2" fill="#b59cff" fill-opacity="0.05"/><circle cx="238" cy="848" r="2" fill="#b59cff" fill-opacity="0.05"/><circle cx="294" cy="848" r="2" fill="#b59cff" fill-opacity="0.05"/><circle cx="350" cy="848" r="2" fill="#b59cff" fill-opacity="0.05"/><circle cx="406" cy="848" r="2" fill="#b59cff" fill-opacity="0.05"/><circle cx="462" cy="848" r="2" fill="#b59cff" fill-opacity="0.05"/><circle cx="518" cy="848" r="2" fill="#b59cff" fill-opacity="0.05"/><circle cx="574" cy="848" r="2" fill="#b59cff" fill-opacity="0.05"/><circle cx="630" cy="848" r="2" fill="#b59cff" fill-opacity="0.05"/><circle cx="686" cy="848" r="2" fill="#b59cff" fill-opacity="0.05"/><circle cx="742" cy="848" r="2" fill="#b59cff" fill-opacity="0.05"/><circle cx="798" cy="848" r="2" fill="#b59cff" fill-opacity="0.05"/><circle cx="854" cy="848" r="2" fill="#b59cff" fill-opacity="0.05"/><circle cx="910" cy="848" r="2" fill="#b59cff" fill-opacity="0.05"/>
<g filter="url(#bloom)" fill="#b59cff" opacity="0.16"><ellipse cx="405" cy="268" rx="58" ry="46"/><ellipse cx="470" cy="228" rx="74" ry="62"/><ellipse cx="552" cy="244" rx="62" ry="52"/><ellipse cx="598" cy="272" rx="48" ry="40"/><rect x="360.0" y="256.0" width="280.0" height="60.0" rx="30" /></g>
<g fill="#b59cff" opacity="0.14"><ellipse cx="405" cy="268" rx="58" ry="46"/><ellipse cx="470" cy="228" rx="74" ry="62"/><ellipse cx="552" cy="244" rx="62" ry="52"/><ellipse cx="598" cy="272" rx="48" ry="40"/><rect x="360.0" y="256.0" width="280.0" height="60.0" rx="30" /></g>
<path d="M 500 308 C 500 400 230 302 230 404.0" stroke="#b59cff" stroke-opacity="0.18" stroke-width="2" fill="none"/>
<path d="M 500 308 C 500 400 410 302 410 404.0" stroke="#b59cff" stroke-opacity="0.18" stroke-width="2" fill="none"/>
<path d="M 500 308 C 500 400 590 302 590 404.0" stroke="#b59cff" stroke-opacity="0.18" stroke-width="2" fill="none"/>
<path d="M 500 308 C 500 400 770 302 770 404.0" stroke="#b59cff" stroke-opacity="0.18" stroke-width="2" fill="none"/>
<path d="M 500 308 C 500 400 230 470 230 572.0" stroke="#b59cff" stroke-opacity="0.18" stroke-width="2" fill="none"/>
<path d="M 500 308 C 500 400 410 470 410 572.0" stroke="#b59cff" stroke-opacity="0.18" stroke-width="2" fill="none"/>
<path d="M 500 308 C 500 400 590 470 590 572.0" stroke="#b59cff" stroke-opacity="0.18" stroke-width="2" fill="none"/>
<path d="M 500 308 C 500 400 770 470 770 572.0" stroke="#b59cff" stroke-opacity="0.18" stroke-width="2" fill="none"/>
<circle cx="455" cy="356" r="5" fill="#e9e2ff" fill-opacity="0.9"/>
<circle cx="545" cy="440" r="5" fill="#e9e2ff" fill-opacity="0.9"/>
<circle cx="500" cy="250" r="40" fill="#160f33" stroke="#b59cff" stroke-width="4"/>
<path d="M 500 230 v 22" stroke="#e9e2ff" stroke-width="5" stroke-linecap="round"/>
<path d="M 483 242 a 22 22 0 1 0 34 0" fill="none" stroke="#e9e2ff" stroke-width="5" stroke-linecap="round"/>
<path d="M 642 116 C 648.12 143.88 648.12 143.88 676 150 C 648.12 156.12 648.12 156.12 642 184 C 635.88 156.12 635.88 156.12 608 150 C 635.88 143.88 635.88 143.88 642 116 Z" fill="#e9e2ff" opacity="0.3"/>
<path d="M 642 128 C 645.96 146.04 645.96 146.04 664 150 C 645.96 153.96 645.96 153.96 642 172 C 638.04 153.96 638.04 153.96 620 150 C 638.04 146.04 638.04 146.04 642 128 Z" fill="#e9e2ff" opacity="0.95"/>
<path d="M 690 184 C 692.16 193.84 692.16 193.84 702 196 C 692.16 198.16 692.16 198.16 690 208 C 687.84 198.16 687.84 198.16 678 196 C 687.84 193.84 687.84 193.84 690 184 Z" fill="#e9e2ff" opacity="0.7"/>
<rect x="163.0" y="404.0" width="134.0" height="96.0" rx="12" fill="#170f30" stroke="#b59cff" stroke-width="2.5" stroke-opacity="0.7"/>
<rect x="175.0" y="418.0" width="110.0" height="56.0" rx="6" fill="#b59cff" fill-opacity="0.14"/>
<rect x="181.0" y="424.0" width="75.6" height="5.0" rx="2" fill="#b59cff" fill-opacity="0.4"/>
<rect x="181.0" y="433.0" width="63.0" height="5.0" rx="2" fill="#b59cff" fill-opacity="0.4"/>
<rect x="181.0" y="442.0" width="50.4" height="5.0" rx="2" fill="#b59cff" fill-opacity="0.4"/>
<circle cx="277.0" cy="484.0" r="6" fill="#b59cff" fill-opacity="0.6"/>
<rect x="212.0" y="500.0" width="36.0" height="8.0" rx="3" fill="#b59cff" fill-opacity="0.4"/>
<rect x="337.0" y="398.0" width="146.0" height="108.0" rx="14" fill="#b59cff" fill-opacity="0.22" filter="url(#bloom)"/>
<rect x="343.0" y="404.0" width="134.0" height="96.0" rx="12" fill="#170f30" stroke="#b59cff" stroke-width="3.5" stroke-opacity="1"/>
<rect x="355.0" y="418.0" width="110.0" height="56.0" rx="6" fill="#b59cff" fill-opacity="0.32"/>
<rect x="361.0" y="424.0" width="75.6" height="5.0" rx="2" fill="#b59cff" fill-opacity="0.8"/>
<rect x="361.0" y="433.0" width="63.0" height="5.0" rx="2" fill="#b59cff" fill-opacity="0.8"/>
<rect x="361.0" y="442.0" width="50.4" height="5.0" rx="2" fill="#b59cff" fill-opacity="0.8"/>
<circle cx="457.0" cy="484.0" r="6" fill="#e9e2ff" fill-opacity="1"/>
<rect x="392.0" y="500.0" width="36.0" height="8.0" rx="3" fill="#b59cff" fill-opacity="0.4"/>
<rect x="523.0" y="404.0" width="134.0" height="96.0" rx="12" fill="#170f30" stroke="#b59cff" stroke-width="2.5" stroke-opacity="0.7"/>
<rect x="535.0" y="418.0" width="110.0" height="56.0" rx="6" fill="#b59cff" fill-opacity="0.14"/>
<rect x="541.0" y="424.0" width="75.6" height="5.0" rx="2" fill="#b59cff" fill-opacity="0.4"/>
<rect x="541.0" y="433.0" width="63.0" height="5.0" rx="2" fill="#b59cff" fill-opacity="0.4"/>
<rect x="541.0" y="442.0" width="50.4" height="5.0" rx="2" fill="#b59cff" fill-opacity="0.4"/>
<circle cx="637.0" cy="484.0" r="6" fill="#b59cff" fill-opacity="0.6"/>
<rect x="572.0" y="500.0" width="36.0" height="8.0" rx="3" fill="#b59cff" fill-opacity="0.4"/>
<rect x="703.0" y="404.0" width="134.0" height="96.0" rx="12" fill="#170f30" stroke="#b59cff" stroke-width="2.5" stroke-opacity="0.7"/>
<rect x="715.0" y="418.0" width="110.0" height="56.0" rx="6" fill="#b59cff" fill-opacity="0.14"/>
<rect x="721.0" y="424.0" width="75.6" height="5.0" rx="2" fill="#b59cff" fill-opacity="0.4"/>
<rect x="721.0" y="433.0" width="63.0" height="5.0" rx="2" fill="#b59cff" fill-opacity="0.4"/>
<rect x="721.0" y="442.0" width="50.4" height="5.0" rx="2" fill="#b59cff" fill-opacity="0.4"/>
<circle cx="817.0" cy="484.0" r="6" fill="#b59cff" fill-opacity="0.6"/>
<rect x="752.0" y="500.0" width="36.0" height="8.0" rx="3" fill="#b59cff" fill-opacity="0.4"/>
<rect x="163.0" y="572.0" width="134.0" height="96.0" rx="12" fill="#170f30" stroke="#b59cff" stroke-width="2.5" stroke-opacity="0.7"/>
<rect x="175.0" y="586.0" width="110.0" height="56.0" rx="6" fill="#b59cff" fill-opacity="0.14"/>
<rect x="181.0" y="592.0" width="75.6" height="5.0" rx="2" fill="#b59cff" fill-opacity="0.4"/>
<rect x="181.0" y="601.0" width="63.0" height="5.0" rx="2" fill="#b59cff" fill-opacity="0.4"/>
<rect x="181.0" y="610.0" width="50.4" height="5.0" rx="2" fill="#b59cff" fill-opacity="0.4"/>
<circle cx="277.0" cy="652.0" r="6" fill="#b59cff" fill-opacity="0.6"/>
<rect x="212.0" y="668.0" width="36.0" height="8.0" rx="3" fill="#b59cff" fill-opacity="0.4"/>
<rect x="343.0" y="572.0" width="134.0" height="96.0" rx="12" fill="#170f30" stroke="#b59cff" stroke-width="2.5" stroke-opacity="0.7"/>
<rect x="355.0" y="586.0" width="110.0" height="56.0" rx="6" fill="#b59cff" fill-opacity="0.14"/>
<rect x="361.0" y="592.0" width="75.6" height="5.0" rx="2" fill="#b59cff" fill-opacity="0.4"/>
<rect x="361.0" y="601.0" width="63.0" height="5.0" rx="2" fill="#b59cff" fill-opacity="0.4"/>
<rect x="361.0" y="610.0" width="50.4" height="5.0" rx="2" fill="#b59cff" fill-opacity="0.4"/>
<circle cx="457.0" cy="652.0" r="6" fill="#b59cff" fill-opacity="0.6"/>
<rect x="392.0" y="668.0" width="36.0" height="8.0" rx="3" fill="#b59cff" fill-opacity="0.4"/>
<rect x="523.0" y="572.0" width="134.0" height="96.0" rx="12" fill="#170f30" stroke="#b59cff" stroke-width="2.5" stroke-opacity="0.7"/>
<rect x="535.0" y="586.0" width="110.0" height="56.0" rx="6" fill="#b59cff" fill-opacity="0.14"/>
<rect x="541.0" y="592.0" width="75.6" height="5.0" rx="2" fill="#b59cff" fill-opacity="0.4"/>
<rect x="541.0" y="601.0" width="63.0" height="5.0" rx="2" fill="#b59cff" fill-opacity="0.4"/>
<rect x="541.0" y="610.0" width="50.4" height="5.0" rx="2" fill="#b59cff" fill-opacity="0.4"/>
<circle cx="637.0" cy="652.0" r="6" fill="#b59cff" fill-opacity="0.6"/>
<rect x="572.0" y="668.0" width="36.0" height="8.0" rx="3" fill="#b59cff" fill-opacity="0.4"/>
<rect x="703.0" y="572.0" width="134.0" height="96.0" rx="12" fill="#170f30" stroke="#b59cff" stroke-width="2.5" stroke-opacity="0.7"/>
<rect x="715.0" y="586.0" width="110.0" height="56.0" rx="6" fill="#b59cff" fill-opacity="0.14"/>
<rect x="721.0" y="592.0" width="75.6" height="5.0" rx="2" fill="#b59cff" fill-opacity="0.4"/>
<rect x="721.0" y="601.0" width="63.0" height="5.0" rx="2" fill="#b59cff" fill-opacity="0.4"/>
<rect x="721.0" y="610.0" width="50.4" height="5.0" rx="2" fill="#b59cff" fill-opacity="0.4"/>
<circle cx="817.0" cy="652.0" r="6" fill="#b59cff" fill-opacity="0.6"/>
<rect x="752.0" y="668.0" width="36.0" height="8.0" rx="3" fill="#b59cff" fill-opacity="0.4"/>
<rect width="1000" height="1000" fill="url(#vig)"/>
</svg>