<svg xmlns="http://www.w3.org/2000/svg" width="1000" height="1000" viewBox="0 0 1000 1000" fill="none">
<defs>
<linearGradient id="bg" x1="0" y1="0" x2="0.4" y2="1"><stop offset="0" stop-color="#0c1c2a"/><stop offset="0.55" stop-color="#0a141d"/><stop offset="1" stop-color="#05080c"/></linearGradient>
<radialGradient id="glow" cx="0.5" cy="0.5" r="0.62"><stop offset="0" stop-color="#5cc8ff" stop-opacity="0.24"/><stop offset="0.5" stop-color="#5cc8ff" stop-opacity="0.05"/><stop offset="1" stop-color="#5cc8ff" stop-opacity="0"/></radialGradient>
<filter id="bloom" x="-60%" y="-60%" width="220%" height="220%"><feGaussianBlur stdDeviation="11"/></filter>
<radialGradient id="vig" cx="0.5" cy="0.48" r="0.78"><stop offset="0.55" stop-color="#000" stop-opacity="0"/><stop offset="1" stop-color="#000" stop-opacity="0.47"/></radialGradient>
</defs>
<rect width="1000" height="1000" fill="url(#bg)"/>
<rect width="1000" height="1000" fill="url(#glow)"/>
<circle cx="70" cy="120" r="2" fill="#5cc8ff" fill-opacity="0.05"/><circle cx="126" cy="120" r="2" fill="#5cc8ff" fill-opacity="0.05"/><circle cx="182" cy="120" r="2" fill="#5cc8ff" fill-opacity="0.05"/><circle cx="238" cy="120" r="2" fill="#5cc8ff" fill-opacity="0.05"/><circle cx="294" cy="120" r="2" fill="#5cc8ff" fill-opacity="0.05"/><circle cx="350" cy="120" r="2" fill="#5cc8ff" fill-opacity="0.05"/><circle cx="406" cy="120" r="2" fill="#5cc8ff" fill-opacity="0.05"/><circle cx="462" cy="120" r="2" fill="#5cc8ff" fill-opacity="0.05"/><circle cx="518" cy="120" r="2" fill="#5cc8ff" fill-opacity="0.05"/><circle cx="574" cy="120" r="2" fill="#5cc8ff" fill-opacity="0.05"/><circle cx="630" cy="120" r="2" fill="#5cc8ff" fill-opacity="0.05"/><circle cx="686" cy="120" r="2" fill="#5cc8ff" fill-opacity="0.05"/><circle cx="742" cy="120" r="2" fill="#5cc8ff" fill-opacity="0.05"/><circle cx="798" cy="120" r="2" fill="#5cc8ff" fill-opacity="0.05"/><circle cx="854" cy="120" r="2" fill="#5cc8ff" fill-opacity="0.05"/><circle cx="910" cy="120" r="2" fill="#5cc8ff" fill-opacity="0.05"/><circle cx="70" cy="176" r="2" fill="#5cc8ff" fill-opacity="0.05"/><circle cx="126" cy="176" r="2" fill="#5cc8ff" fill-opacity="0.05"/><circle cx="182" cy="176" r="2" fill="#5cc8ff" fill-opacity="0.05"/><circle cx="238" cy="176" r="2" fill="#5cc8ff" fill-opacity="0.05"/><circle cx="294" cy="176" r="2" fill="#5cc8ff" fill-opacity="0.05"/><circle cx="350" cy="176" r="2" fill="#5cc8ff" fill-opacity="0.05"/><circle cx="406" cy="176" r="2" fill="#5cc8ff" fill-opacity="0.05"/><circle cx="462" cy="176" r="2" fill="#5cc8ff" fill-opacity="0.05"/><circle cx="518" cy="176" r="2" fill="#5cc8ff" fill-opacity="0.05"/><circle cx="574" cy="176" r="2" fill="#5cc8ff" fill-opacity="0.05"/><circle cx="630" cy="176" r="2" fill="#5cc8ff" fill-opacity="0.05"/><circle cx="686" cy="176" r="2" fill="#5cc8ff" fill-opacity="0.05"/><circle cx="742" cy="176" r="2" fill="#5cc8ff" fill-opacity="0.05"/><circle cx="798" cy="176" r="2" fill="#5cc8ff" fill-opacity="0.05"/><circle cx="854" cy="176" r="2" fill="#5cc8ff" fill-opacity="0.05"/><circle cx="910" cy="176" r="2" fill="#5cc8ff" fill-opacity="0.05"/><circle cx="70" cy="232" r="2" fill="#5cc8ff" fill-opacity="0.05"/><circle cx="126" cy="232" r="2" fill="#5cc8ff" fill-opacity="0.05"/><circle cx="182" cy="232" r="2" fill="#5cc8ff" fill-opacity="0.05"/><circle cx="238" cy="232" r="2" fill="#5cc8ff" fill-opacity="0.05"/><circle cx="294" cy="232" r="2" fill="#5cc8ff" fill-opacity="0.05"/><circle cx="350" cy="232" r="2" fill="#5cc8ff" fill-opacity="0.05"/><circle cx="406" cy="232" r="2" fill="#5cc8ff" fill-opacity="0.05"/><circle cx="462" cy="232" r="2" fill="#5cc8ff" fill-opacity="0.05"/><circle cx="518" cy="232" r="2" fill="#5cc8ff" fill-opacity="0.05"/><circle cx="574" cy="232" r="2" fill="#5cc8ff" fill-opacity="0.05"/><circle cx="630" cy="232" r="2" fill="#5cc8ff" fill-opacity="0.05"/><circle cx="686" cy="232" r="2" fill="#5cc8ff" fill-opacity="0.05"/><circle cx="742" cy="232" r="2" fill="#5cc8ff" fill-opacity="0.05"/><circle cx="798" cy="232" r="2" fill="#5cc8ff" fill-opacity="0.05"/><circle cx="854" cy="232" r="2" fill="#5cc8ff" fill-opacity="0.05"/><circle cx="910" cy="232" r="2" fill="#5cc8ff" fill-opacity="0.05"/><circle cx="70" cy="288" r="2" fill="#5cc8ff" fill-opacity="0.05"/><circle cx="126" cy="288" r="2" fill="#5cc8ff" fill-opacity="0.05"/><circle cx="182" cy="288" r="2" fill="#5cc8ff" fill-opacity="0.05"/><circle cx="238" cy="288" r="2" fill="#5cc8ff" fill-opacity="0.05"/><circle cx="294" cy="288" r="2" fill="#5cc8ff" fill-opacity="0.05"/><circle cx="350" cy="288" r="2" fill="#5cc8ff" fill-opacity="0.05"/><circle cx="406" cy="288" r="2" fill="#5cc8ff" fill-opacity="0.05"/><circle cx="462" cy="288" r="2" fill="#5cc8ff" fill-opacity="0.05"/><circle cx="518" cy="288" r="2" fill="#5cc8ff" fill-opacity="0.05"/><circle cx="574" cy="288" r="2" fill="#5cc8ff" fill-opacity="0.05"/><circle cx="630" cy="288" r="2" fill="#5cc8ff" fill-opacity="0.05"/><circle cx="686" cy="288" r="2" fill="#5cc8ff" fill-opacity="0.05"/><circle cx="742" cy="288" r="2" fill="#5cc8ff" fill-opacity="0.05"/><circle cx="798" cy="288" r="2" fill="#5cc8ff" fill-opacity="0.05"/><circle cx="854" cy="288" r="2" fill="#5cc8ff" fill-opacity="0.05"/><circle cx="910" cy="288" r="2" fill="#5cc8ff" fill-opacity="0.05"/><circle cx="70" cy="344" r="2" fill="#5cc8ff" fill-opacity="0.05"/><circle cx="126" cy="344" r="2" fill="#5cc8ff" fill-opacity="0.05"/><circle cx="182" cy="344" r="2" fill="#5cc8ff" fill-opacity="0.05"/><circle cx="238" cy="344" r="2" fill="#5cc8ff" fill-opacity="0.05"/><circle cx="294" cy="344" r="2" fill="#5cc8ff" fill-opacity="0.05"/><circle cx="350" cy="344" r="2" fill="#5cc8ff" fill-opacity="0.05"/><circle cx="406" cy="344" r="2" fill="#5cc8ff" fill-opacity="0.05"/><circle cx="462" cy="344" r="2" fill="#5cc8ff" fill-opacity="0.05"/><circle cx="518" cy="344" r="2" fill="#5cc8ff" fill-opacity="0.05"/><circle cx="574" cy="344" r="2" fill="#5cc8ff" fill-opacity="0.05"/><circle cx="630" cy="344" r="2" fill="#5cc8ff" fill-opacity="0.05"/><circle cx="686" cy="344" r="2" fill="#5cc8ff" fill-opacity="0.05"/><circle cx="742" cy="344" r="2" fill="#5cc8ff" fill-opacity="0.05"/><circle cx="798" cy="344" r="2" fill="#5cc8ff" fill-opacity="0.05"/><circle cx="854" cy="344" r="2" fill="#5cc8ff" fill-opacity="0.05"/><circle cx="910" cy="344" r="2" fill="#5cc8ff" fill-opacity="0.05"/><circle cx="70" cy="400" r="2" fill="#5cc8ff" fill-opacity="0.05"/><circle cx="126" cy="400" r="2" fill="#5cc8ff" fill-opacity="0.05"/><circle cx="182" cy="400" r="2" fill="#5cc8ff" fill-opacity="0.05"/><circle cx="238" cy="400" r="2" fill="#5cc8ff" fill-opacity="0.05"/><circle cx="294" cy="400" r="2" fill="#5cc8ff" fill-opacity="0.05"/><circle cx="350" cy="400" r="2" fill="#5cc8ff" fill-opacity="0.05"/><circle cx="406" cy="400" r="2" fill="#5cc8ff" fill-opacity="0.05"/><circle cx="462" cy="400" r="2" fill="#5cc8ff" fill-opacity="0.05"/><circle cx="518" cy="400" r="2" fill="#5cc8ff" fill-opacity="0.05"/><circle cx="574" cy="400" r="2" fill="#5cc8ff" fill-opacity="0.05"/><circle cx="630" cy="400" r="2" fill="#5cc8ff" fill-opacity="0.05"/><circle cx="686" cy="400" r="2" fill="#5cc8ff" fill-opacity="0.05"/><circle cx="742" cy="400" r="2" fill="#5cc8ff" fill-opacity="0.05"/><circle cx="798" cy="400" r="2" fill="#5cc8ff" fill-opacity="0.05"/><circle cx="854" cy="400" r="2" fill="#5cc8ff" fill-opacity="0.05"/><circle cx="910" cy="400" r="2" fill="#5cc8ff" fill-opacity="0.05"/><circle cx="70" cy="456" r="2" fill="#5cc8ff" fill-opacity="0.05"/><circle cx="126" cy="456" r="2" fill="#5cc8ff" fill-opacity="0.05"/><circle cx="182" cy="456" r="2" fill="#5cc8ff" fill-opacity="0.05"/><circle cx="238" cy="456" r="2" fill="#5cc8ff" fill-opacity="0.05"/><circle cx="294" cy="456" r="2" fill="#5cc8ff" fill-opacity="0.05"/><circle cx="350" cy="456" r="2" fill="#5cc8ff" fill-opacity="0.05"/><circle cx="406" cy="456" r="2" fill="#5cc8ff" fill-opacity="0.05"/><circle cx="462" cy="456" r="2" fill="#5cc8ff" fill-opacity="0.05"/><circle cx="518" cy="456" r="2" fill="#5cc8ff" fill-opacity="0.05"/><circle cx="574" cy="456" r="2" fill="#5cc8ff" fill-opacity="0.05"/><circle cx="630" cy="456" r="2" fill="#5cc8ff" fill-opacity="0.05"/><circle cx="686" cy="456" r="2" fill="#5cc8ff" fill-opacity="0.05"/><circle cx="742" cy="456" r="2" fill="#5cc8ff" fill-opacity="0.05"/><circle cx="798" cy="456" r="2" fill="#5cc8ff" fill-opacity="0.05"/><circle cx="854" cy="456" r="2" fill="#5cc8ff" fill-opacity="0.05"/><circle cx="910" cy="456" r="2" fill="#5cc8ff" fill-opacity="0.05"/><circle cx="70" cy="512" r="2" fill="#5cc8ff" fill-opacity="0.05"/><circle cx="126" cy="512" r="2" fill="#5cc8ff" fill-opacity="0.05"/><circle cx="182" cy="512" r="2" fill="#5cc8ff" fill-opacity="0.05"/><circle cx="238" cy="512" r="2" fill="#5cc8ff" fill-opacity="0.05"/><circle cx="294" cy="512" r="2" fill="#5cc8ff" fill-opacity="0.05"/><circle cx="350" cy="512" r="2" fill="#5cc8ff" fill-opacity="0.05"/><circle cx="406" cy="512" r="2" fill="#5cc8ff" fill-opacity="0.05"/><circle cx="462" cy="512" r="2" fill="#5cc8ff" fill-opacity="0.05"/><circle cx="518" cy="512" r="2" fill="#5cc8ff" fill-opacity="0.05"/><circle cx="574" cy="512" r="2" fill="#5cc8ff" fill-opacity="0.05"/><circle cx="630" cy="512" r="2" fill="#5cc8ff" fill-opacity="0.05"/><circle cx="686" cy="512" r="2" fill="#5cc8ff" fill-opacity="0.05"/><circle cx="742" cy="512" r="2" fill="#5cc8ff" fill-opacity="0.05"/><circle cx="798" cy="512" r="2" fill="#5cc8ff" fill-opacity="0.05"/><circle cx="854" cy="512" r="2" fill="#5cc8ff" fill-opacity="0.05"/><circle cx="910" cy="512" r="2" fill="#5cc8ff" fill-opacity="0.05"/><circle cx="70" cy="568" r="2" fill="#5cc8ff" fill-opacity="0.05"/><circle cx="126" cy="568" r="2" fill="#5cc8ff" fill-opacity="0.05"/><circle cx="182" cy="568" r="2" fill="#5cc8ff" fill-opacity="0.05"/><circle cx="238" cy="568" r="2" fill="#5cc8ff" fill-opacity="0.05"/><circle cx="294" cy="568" r="2" fill="#5cc8ff" fill-opacity="0.05"/><circle cx="350" cy="568" r="2" fill="#5cc8ff" fill-opacity="0.05"/><circle cx="406" cy="568" r="2" fill="#5cc8ff" fill-opacity="0.05"/><circle cx="462" cy="568" r="2" fill="#5cc8ff" fill-opacity="0.05"/><circle cx="518" cy="568" r="2" fill="#5cc8ff" fill-opacity="0.05"/><circle cx="574" cy="568" r="2" fill="#5cc8ff" fill-opacity="0.05"/><circle cx="630" cy="568" r="2" fill="#5cc8ff" fill-opacity="0.05"/><circle cx="686" cy="568" r="2" fill="#5cc8ff" fill-opacity="0.05"/><circle cx="742" cy="568" r="2" fill="#5cc8ff" fill-opacity="0.05"/><circle cx="798" cy="568" r="2" fill="#5cc8ff" fill-opacity="0.05"/><circle cx="854" cy="568" r="2" fill="#5cc8ff" fill-opacity="0.05"/><circle cx="910" cy="568" r="2" fill="#5cc8ff" fill-opacity="0.05"/><circle cx="70" cy="624" r="2" fill="#5cc8ff" fill-opacity="0.05"/><circle cx="126" cy="624" r="2" fill="#5cc8ff" fill-opacity="0.05"/><circle cx="182" cy="624" r="2" fill="#5cc8ff" fill-opacity="0.05"/><circle cx="238" cy="624" r="2" fill="#5cc8ff" fill-opacity="0.05"/><circle cx="294" cy="624" r="2" fill="#5cc8ff" fill-opacity="0.05"/><circle cx="350" cy="624" r="2" fill="#5cc8ff" fill-opacity="0.05"/><circle cx="406" cy="624" r="2" fill="#5cc8ff" fill-opacity="0.05"/><circle cx="462" cy="624" r="2" fill="#5cc8ff" fill-opacity="0.05"/><circle cx="518" cy="624" r="2" fill="#5cc8ff" fill-opacity="0.05"/><circle cx="574" cy="624" r="2" fill="#5cc8ff" fill-opacity="0.05"/><circle cx="630" cy="624" r="2" fill="#5cc8ff" fill-opacity="0.05"/><circle cx="686" cy="624" r="2" fill="#5cc8ff" fill-opacity="0.05"/><circle cx="742" cy="624" r="2" fill="#5cc8ff" fill-opacity="0.05"/><circle cx="798" cy="624" r="2" fill="#5cc8ff" fill-opacity="0.05"/><circle cx="854" cy="624" r="2" fill="#5cc8ff" fill-opacity="0.05"/><circle cx="910" cy="624" r="2" fill="#5cc8ff" fill-opacity="0.05"/><circle cx="70" cy="680" r="2" fill="#5cc8ff" fill-opacity="0.05"/><circle cx="126" cy="680" r="2" fill="#5cc8ff" fill-opacity="0.05"/><circle cx="182" cy="680" r="2" fill="#5cc8ff" fill-opacity="0.05"/><circle cx="238" cy="680" r="2" fill="#5cc8ff" fill-opacity="0.05"/><circle cx="294" cy="680" r="2" fill="#5cc8ff" fill-opacity="0.05"/><circle cx="350" cy="680" r="2" fill="#5cc8ff" fill-opacity="0.05"/><circle cx="406" cy="680" r="2" fill="#5cc8ff" fill-opacity="0.05"/><circle cx="462" cy="680" r="2" fill="#5cc8ff" fill-opacity="0.05"/><circle cx="518" cy="680" r="2" fill="#5cc8ff" fill-opacity="0.05"/><circle cx="574" cy="680" r="2" fill="#5cc8ff" fill-opacity="0.05"/><circle cx="630" cy="680" r="2" fill="#5cc8ff" fill-opacity="0.05"/><circle cx="686" cy="680" r="2" fill="#5cc8ff" fill-opacity="0.05"/><circle cx="742" cy="680" r="2" fill="#5cc8ff" fill-opacity="0.05"/><circle cx="798" cy="680" r="2" fill="#5cc8ff" fill-opacity="0.05"/><circle cx="854" cy="680" r="2" fill="#5cc8ff" fill-opacity="0.05"/><circle cx="910" cy="680" r="2" fill="#5cc8ff" fill-opacity="0.05"/><circle cx="70" cy="736" r="2" fill="#5cc8ff" fill-opacity="0.05"/><circle cx="126" cy="736" r="2" fill="#5cc8ff" fill-opacity="0.05"/><circle cx="182" cy="736" r="2" fill="#5cc8ff" fill-opacity="0.05"/><circle cx="238" cy="736" r="2" fill="#5cc8ff" fill-opacity="0.05"/><circle cx="294" cy="736" r="2" fill="#5cc8ff" fill-opacity="0.05"/><circle cx="350" cy="736" r="2" fill="#5cc8ff" fill-opacity="0.05"/><circle cx="406" cy="736" r="2" fill="#5cc8ff" fill-opacity="0.05"/><circle cx="462" cy="736" r="2" fill="#5cc8ff" fill-opacity="0.05"/><circle cx="518" cy="736" r="2" fill="#5cc8ff" fill-opacity="0.05"/><circle cx="574" cy="736" r="2" fill="#5cc8ff" fill-opacity="0.05"/><circle cx="630" cy="736" r="2" fill="#5cc8ff" fill-opacity="0.05"/><circle cx="686" cy="736" r="2" fill="#5cc8ff" fill-opacity="0.05"/><circle cx="742" cy="736" r="2" fill="#5cc8ff" fill-opacity="0.05"/><circle cx="798" cy="736" r="2" fill="#5cc8ff" fill-opacity="0.05"/><circle cx="854" cy="736" r="2" fill="#5cc8ff" fill-opacity="0.05"/><circle cx="910" cy="736" r="2" fill="#5cc8ff" fill-opacity="0.05"/><circle cx="70" cy="792" r="2" fill="#5cc8ff" fill-opacity="0.05"/><circle cx="126" cy="792" r="2" fill="#5cc8ff" fill-opacity="0.05"/><circle cx="182" cy="792" r="2" fill="#5cc8ff" fill-opacity="0.05"/><circle cx="238" cy="792" r="2" fill="#5cc8ff" fill-opacity="0.05"/><circle cx="294" cy="792" r="2" fill="#5cc8ff" fill-opacity="0.05"/><circle cx="350" cy="792" r="2" fill="#5cc8ff" fill-opacity="0.05"/><circle cx="406" cy="792" r="2" fill="#5cc8ff" fill-opacity="0.05"/><circle cx="462" cy="792" r="2" fill="#5cc8ff" fill-opacity="0.05"/><circle cx="518" cy="792" r="2" fill="#5cc8ff" fill-opacity="0.05"/><circle cx="574" cy="792" r="2" fill="#5cc8ff" fill-opacity="0.05"/><circle cx="630" cy="792" r="2" fill="#5cc8ff" fill-opacity="0.05"/><circle cx="686" cy="792" r="2" fill="#5cc8ff" fill-opacity="0.05"/><circle cx="742" cy="792" r="2" fill="#5cc8ff" fill-opacity="0.05"/><circle cx="798" cy="792" r="2" fill="#5cc8ff" fill-opacity="0.05"/><circle cx="854" cy="792" r="2" fill="#5cc8ff" fill-opacity="0.05"/><circle cx="910" cy="792" r="2" fill="#5cc8ff" fill-opacity="0.05"/><circle cx="70" cy="848" r="2" fill="#5cc8ff" fill-opacity="0.05"/><circle cx="126" cy="848" r="2" fill="#5cc8ff" fill-opacity="0.05"/><circle cx="182" cy="848" r="2" fill="#5cc8ff" fill-opacity="0.05"/><circle cx="238" cy="848" r="2" fill="#5cc8ff" fill-opacity="0.05"/><circle cx="294" cy="848" r="2" fill="#5cc8ff" fill-opacity="0.05"/><circle cx="350" cy="848" r="2" fill="#5cc8ff" fill-opacity="0.05"/><circle cx="406" cy="848" r="2" fill="#5cc8ff" fill-opacity="0.05"/><circle cx="462" cy="848" r="2" fill="#5cc8ff" fill-opacity="0.05"/><circle cx="518" cy="848" r="2" fill="#5cc8ff" fill-opacity="0.05"/><circle cx="574" cy="848" r="2" fill="#5cc8ff" fill-opacity="0.05"/><circle cx="630" cy="848" r="2" fill="#5cc8ff" fill-opacity="0.05"/><circle cx="686" cy="848" r="2" fill="#5cc8ff" fill-opacity="0.05"/><circle cx="742" cy="848" r="2" fill="#5cc8ff" fill-opacity="0.05"/><circle cx="798" cy="848" r="2" fill="#5cc8ff" fill-opacity="0.05"/><circle cx="854" cy="848" r="2" fill="#5cc8ff" fill-opacity="0.05"/><circle cx="910" cy="848" r="2" fill="#5cc8ff" fill-opacity="0.05"/>
<line x1="70.0" y1="712.0" x2="930.0" y2="712.0" stroke="#5cc8ff" stroke-opacity="0.3" stroke-width="3" stroke-linecap="round"/>
<line x1="70" y1="722" x2="930" y2="722" stroke="#5cc8ff" stroke-opacity="0.08" stroke-width="2"/>
<line x1="140.0" y1="250.0" x2="345.0" y2="360.0" stroke="#5cc8ff" stroke-opacity="0.12" stroke-width="2" stroke-linecap="round"/>
<line x1="345.0" y1="360.0" x2="140.0" y2="470.0" stroke="#5cc8ff" stroke-opacity="0.12" stroke-width="2" stroke-linecap="round"/>
<line x1="140.0" y1="470.0" x2="345.0" y2="580.0" stroke="#5cc8ff" stroke-opacity="0.12" stroke-width="2" stroke-linecap="round"/>
<line x1="345.0" y1="580.0" x2="140.0" y2="690.0" stroke="#5cc8ff" stroke-opacity="0.12" stroke-width="2" stroke-linecap="round"/>
<line x1="134.0" y1="250.0" x2="351.0" y2="250.0" stroke="#5cc8ff" stroke-opacity="0.85" stroke-width="5" stroke-linecap="round"/>
<line x1="134.0" y1="366.0" x2="351.0" y2="366.0" stroke="#5cc8ff" stroke-opacity="0.85" stroke-width="5" stroke-linecap="round"/>
<line x1="134.0" y1="482.0" x2="351.0" y2="482.0" stroke="#5cc8ff" stroke-opacity="0.85" stroke-width="5" stroke-linecap="round"/>
<line x1="134.0" y1="598.0" x2="351.0" y2="598.0" stroke="#5cc8ff" stroke-opacity="0.85" stroke-width="5" stroke-linecap="round"/>
<line x1="140.0" y1="242.0" x2="140.0" y2="712.0" stroke="#5cc8ff" stroke-opacity="0.8" stroke-width="6" stroke-linecap="round"/>
<line x1="345.0" y1="242.0" x2="345.0" y2="712.0" stroke="#5cc8ff" stroke-opacity="0.8" stroke-width="6" stroke-linecap="round"/>
<rect x="130.0" y="706.0" width="20.0" height="10.0" rx="2" fill="#5cc8ff" fill-opacity="0.5"/>
<rect x="335.0" y="706.0" width="20.0" height="10.0" rx="2" fill="#5cc8ff" fill-opacity="0.5"/>
<rect x="154.0" y="704.0" width="71.2" height="8.0" rx="2" fill="#5cc8ff" fill-opacity="0.35"/>
<rect x="154.0" y="640.2" width="71.2" height="63.8" rx="6" fill="#5cc8ff" fill-opacity="0.30" stroke="#5cc8ff" stroke-width="2.5" stroke-opacity="0.8"/>
<line x1="189.6" y1="640.2" x2="189.6" y2="704.0" stroke="#5cc8ff" stroke-opacity="0.18" stroke-width="2" stroke-linecap="round"/>
<rect x="237.2" y="704.0" width="68.7" height="8.0" rx="2" fill="#5cc8ff" fill-opacity="0.35"/>
<rect x="237.2" y="627.7" width="68.7" height="76.3" rx="6" fill="#5cc8ff" fill-opacity="0.30" stroke="#5cc8ff" stroke-width="2.5" stroke-opacity="0.8"/>
<line x1="271.5" y1="627.7" x2="271.5" y2="704.0" stroke="#5cc8ff" stroke-opacity="0.18" stroke-width="2" stroke-linecap="round"/>
<rect x="154.0" y="590.0" width="69.6" height="8.0" rx="2" fill="#5cc8ff" fill-opacity="0.35"/>
<rect x="154.0" y="520.6" width="69.6" height="69.4" rx="6" fill="#5cc8ff" fill-opacity="0.30" stroke="#5cc8ff" stroke-width="2.5" stroke-opacity="0.8"/>
<line x1="188.8" y1="520.6" x2="188.8" y2="590.0" stroke="#5cc8ff" stroke-opacity="0.18" stroke-width="2" stroke-linecap="round"/>
<rect x="235.6" y="590.0" width="67.8" height="8.0" rx="2" fill="#5cc8ff" fill-opacity="0.35"/>
<rect x="235.6" y="506.0" width="67.8" height="84.0" rx="6" fill="#5cc8ff" fill-opacity="0.16" stroke="#5cc8ff" stroke-width="2.5" stroke-opacity="0.8"/>
<line x1="269.5" y1="506.0" x2="269.5" y2="590.0" stroke="#5cc8ff" stroke-opacity="0.18" stroke-width="2" stroke-linecap="round"/>
<rect x="154.0" y="474.0" width="80.0" height="8.0" rx="2" fill="#5cc8ff" fill-opacity="0.35"/>
<rect x="154.0" y="409.1" width="80.0" height="64.9" rx="6" fill="#5cc8ff" fill-opacity="0.30" stroke="#5cc8ff" stroke-width="2.5" stroke-opacity="0.8"/>
<line x1="194.0" y1="409.1" x2="194.0" y2="474.0" stroke="#5cc8ff" stroke-opacity="0.18" stroke-width="2" stroke-linecap="round"/>
<rect x="246.0" y="474.0" width="75.5" height="8.0" rx="2" fill="#5cc8ff" fill-opacity="0.35"/>
<rect x="246.0" y="386.3" width="75.5" height="87.7" rx="6" fill="#5cc8ff" fill-opacity="0.16" stroke="#5cc8ff" stroke-width="2.5" stroke-opacity="0.8"/>
<line x1="283.7" y1="386.3" x2="283.7" y2="474.0" stroke="#5cc8ff" stroke-opacity="0.18" stroke-width="2" stroke-linecap="round"/>
<rect x="154.0" y="358.0" width="74.5" height="8.0" rx="2" fill="#5cc8ff" fill-opacity="0.35"/>
<rect x="154.0" y="281.1" width="74.5" height="76.9" rx="6" fill="#5cc8ff" fill-opacity="0.30" stroke="#5cc8ff" stroke-width="2.5" stroke-opacity="0.8"/>
<line x1="191.2" y1="281.1" x2="191.2" y2="358.0" stroke="#5cc8ff" stroke-opacity="0.18" stroke-width="2" stroke-linecap="round"/>
<rect x="240.5" y="358.0" width="68.5" height="8.0" rx="2" fill="#5cc8ff" fill-opacity="0.35"/>
<rect x="240.5" y="274.3" width="68.5" height="83.7" rx="6" fill="#5cc8ff" fill-opacity="0.16" stroke="#5cc8ff" stroke-width="2.5" stroke-opacity="0.8"/>
<line x1="274.7" y1="274.3" x2="274.7" y2="358.0" stroke="#5cc8ff" stroke-opacity="0.18" stroke-width="2" stroke-linecap="round"/>
<line x1="372.0" y1="250.0" x2="577.0" y2="360.0" stroke="#5cc8ff" stroke-opacity="0.12" stroke-width="2" stroke-linecap="round"/>
<line x1="577.0" y1="360.0" x2="372.0" y2="470.0" stroke="#5cc8ff" stroke-opacity="0.12" stroke-width="2" stroke-linecap="round"/>
<line x1="372.0" y1="470.0" x2="577.0" y2="580.0" stroke="#5cc8ff" stroke-opacity="0.12" stroke-width="2" stroke-linecap="round"/>
<line x1="577.0" y1="580.0" x2="372.0" y2="690.0" stroke="#5cc8ff" stroke-opacity="0.12" stroke-width="2" stroke-linecap="round"/>
<line x1="366.0" y1="250.0" x2="583.0" y2="250.0" stroke="#5cc8ff" stroke-opacity="0.85" stroke-width="5" stroke-linecap="round"/>
<line x1="366.0" y1="366.0" x2="583.0" y2="366.0" stroke="#5cc8ff" stroke-opacity="0.85" stroke-width="5" stroke-linecap="round"/>
<line x1="366.0" y1="482.0" x2="583.0" y2="482.0" stroke="#5cc8ff" stroke-opacity="0.85" stroke-width="5" stroke-linecap="round"/>
<line x1="366.0" y1="598.0" x2="583.0" y2="598.0" stroke="#5cc8ff" stroke-opacity="0.85" stroke-width="5" stroke-linecap="round"/>
<line x1="372.0" y1="242.0" x2="372.0" y2="712.0" stroke="#5cc8ff" stroke-opacity="0.8" stroke-width="6" stroke-linecap="round"/>
<line x1="577.0" y1="242.0" x2="577.0" y2="712.0" stroke="#5cc8ff" stroke-opacity="0.8" stroke-width="6" stroke-linecap="round"/>
<rect x="362.0" y="706.0" width="20.0" height="10.0" rx="2" fill="#5cc8ff" fill-opacity="0.5"/>
<rect x="567.0" y="706.0" width="20.0" height="10.0" rx="2" fill="#5cc8ff" fill-opacity="0.5"/>
<rect x="386.0" y="704.0" width="68.0" height="8.0" rx="2" fill="#5cc8ff" fill-opacity="0.35"/>
<rect x="382.0" y="635.6" width="76.0" height="72.4" rx="8" fill="#5cc8ff" fill-opacity="0.22" filter="url(#bloom)"/>
<rect x="386.0" y="639.6" width="68.0" height="64.4" rx="6" fill="#5cc8ff" fill-opacity="0.5" stroke="#5cc8ff" stroke-width="3"/>
<line x1="420.0" y1="639.6" x2="420.0" y2="704.0" stroke="#5cc8ff" stroke-opacity="0.18" stroke-width="2" stroke-linecap="round"/>
<rect x="466.0" y="704.0" width="74.7" height="8.0" rx="2" fill="#5cc8ff" fill-opacity="0.35"/>
<rect x="462.0" y="624.2" width="82.7" height="83.8" rx="8" fill="#5cc8ff" fill-opacity="0.22" filter="url(#bloom)"/>
<rect x="466.0" y="628.2" width="74.7" height="75.8" rx="6" fill="#5cc8ff" fill-opacity="0.5" stroke="#5cc8ff" stroke-width="3"/>
<line x1="503.4" y1="628.2" x2="503.4" y2="704.0" stroke="#5cc8ff" stroke-opacity="0.18" stroke-width="2" stroke-linecap="round"/>
<rect x="386.0" y="590.0" width="75.3" height="8.0" rx="2" fill="#5cc8ff" fill-opacity="0.35"/>
<rect x="386.0" y="507.2" width="75.3" height="82.8" rx="6" fill="#5cc8ff" fill-opacity="0.24" stroke="#5cc8ff" stroke-width="2.5" stroke-opacity="0.8"/>
<line x1="423.7" y1="507.2" x2="423.7" y2="590.0" stroke="#5cc8ff" stroke-opacity="0.18" stroke-width="2" stroke-linecap="round"/>
<rect x="473.3" y="590.0" width="73.6" height="8.0" rx="2" fill="#5cc8ff" fill-opacity="0.35"/>
<rect x="473.3" y="515.3" width="73.6" height="74.7" rx="6" fill="#5cc8ff" fill-opacity="0.24" stroke="#5cc8ff" stroke-width="2.5" stroke-opacity="0.8"/>
<line x1="510.1" y1="515.3" x2="510.1" y2="590.0" stroke="#5cc8ff" stroke-opacity="0.18" stroke-width="2" stroke-linecap="round"/>
<rect x="386.0" y="474.0" width="70.1" height="8.0" rx="2" fill="#5cc8ff" fill-opacity="0.35"/>
<rect x="386.0" y="408.6" width="70.1" height="65.4" rx="6" fill="#5cc8ff" fill-opacity="0.24" stroke="#5cc8ff" stroke-width="2.5" stroke-opacity="0.8"/>
<line x1="421.0" y1="408.6" x2="421.0" y2="474.0" stroke="#5cc8ff" stroke-opacity="0.18" stroke-width="2" stroke-linecap="round"/>
<rect x="468.1" y="474.0" width="69.1" height="8.0" rx="2" fill="#5cc8ff" fill-opacity="0.35"/>
<rect x="468.1" y="388.8" width="69.1" height="85.2" rx="6" fill="#5cc8ff" fill-opacity="0.30" stroke="#5cc8ff" stroke-width="2.5" stroke-opacity="0.8"/>
<line x1="502.6" y1="388.8" x2="502.6" y2="474.0" stroke="#5cc8ff" stroke-opacity="0.18" stroke-width="2" stroke-linecap="round"/>
<rect x="386.0" y="358.0" width="72.9" height="8.0" rx="2" fill="#5cc8ff" fill-opacity="0.35"/>
<rect x="386.0" y="281.9" width="72.9" height="76.1" rx="6" fill="#5cc8ff" fill-opacity="0.16" stroke="#5cc8ff" stroke-width="2.5" stroke-opacity="0.8"/>
<line x1="422.5" y1="281.9" x2="422.5" y2="358.0" stroke="#5cc8ff" stroke-opacity="0.18" stroke-width="2" stroke-linecap="round"/>
<rect x="470.9" y="358.0" width="75.2" height="8.0" rx="2" fill="#5cc8ff" fill-opacity="0.35"/>
<rect x="470.9" y="290.8" width="75.2" height="67.2" rx="6" fill="#5cc8ff" fill-opacity="0.24" stroke="#5cc8ff" stroke-width="2.5" stroke-opacity="0.8"/>
<line x1="508.5" y1="290.8" x2="508.5" y2="358.0" stroke="#5cc8ff" stroke-opacity="0.18" stroke-width="2" stroke-linecap="round"/>
<line x1="604.0" y1="250.0" x2="809.0" y2="360.0" stroke="#5cc8ff" stroke-opacity="0.12" stroke-width="2" stroke-linecap="round"/>
<line x1="809.0" y1="360.0" x2="604.0" y2="470.0" stroke="#5cc8ff" stroke-opacity="0.12" stroke-width="2" stroke-linecap="round"/>
<line x1="604.0" y1="470.0" x2="809.0" y2="580.0" stroke="#5cc8ff" stroke-opacity="0.12" stroke-width="2" stroke-linecap="round"/>
<line x1="809.0" y1="580.0" x2="604.0" y2="690.0" stroke="#5cc8ff" stroke-opacity="0.12" stroke-width="2" stroke-linecap="round"/>
<line x1="598.0" y1="250.0" x2="815.0" y2="250.0" stroke="#5cc8ff" stroke-opacity="0.85" stroke-width="5" stroke-linecap="round"/>
<line x1="598.0" y1="366.0" x2="815.0" y2="366.0" stroke="#5cc8ff" stroke-opacity="0.85" stroke-width="5" stroke-linecap="round"/>
<line x1="598.0" y1="482.0" x2="815.0" y2="482.0" stroke="#5cc8ff" stroke-opacity="0.85" stroke-width="5" stroke-linecap="round"/>
<line x1="598.0" y1="598.0" x2="815.0" y2="598.0" stroke="#5cc8ff" stroke-opacity="0.85" stroke-width="5" stroke-linecap="round"/>
<line x1="604.0" y1="242.0" x2="604.0" y2="712.0" stroke="#5cc8ff" stroke-opacity="0.8" stroke-width="6" stroke-linecap="round"/>
<line x1="809.0" y1="242.0" x2="809.0" y2="712.0" stroke="#5cc8ff" stroke-opacity="0.8" stroke-width="6" stroke-linecap="round"/>
<rect x="594.0" y="706.0" width="20.0" height="10.0" rx="2" fill="#5cc8ff" fill-opacity="0.5"/>
<rect x="799.0" y="706.0" width="20.0" height="10.0" rx="2" fill="#5cc8ff" fill-opacity="0.5"/>
<rect x="618.0" y="704.0" width="72.5" height="8.0" rx="2" fill="#5cc8ff" fill-opacity="0.35"/>
<rect x="618.0" y="628.3" width="72.5" height="75.7" rx="6" fill="#5cc8ff" fill-opacity="0.24" stroke="#5cc8ff" stroke-width="2.5" stroke-opacity="0.8"/>
<line x1="654.3" y1="628.3" x2="654.3" y2="704.0" stroke="#5cc8ff" stroke-opacity="0.18" stroke-width="2" stroke-linecap="round"/>
<rect x="702.5" y="704.0" width="80.2" height="8.0" rx="2" fill="#5cc8ff" fill-opacity="0.35"/>
<rect x="702.5" y="633.4" width="80.2" height="70.6" rx="6" fill="#5cc8ff" fill-opacity="0.24" stroke="#5cc8ff" stroke-width="2.5" stroke-opacity="0.8"/>
<line x1="742.6" y1="633.4" x2="742.6" y2="704.0" stroke="#5cc8ff" stroke-opacity="0.18" stroke-width="2" stroke-linecap="round"/>
<rect x="618.0" y="474.0" width="73.3" height="8.0" rx="2" fill="#5cc8ff" fill-opacity="0.35"/>
<rect x="618.0" y="393.1" width="73.3" height="80.9" rx="6" fill="#5cc8ff" fill-opacity="0.30" stroke="#5cc8ff" stroke-width="2.5" stroke-opacity="0.8"/>
<line x1="654.6" y1="393.1" x2="654.6" y2="474.0" stroke="#5cc8ff" stroke-opacity="0.18" stroke-width="2" stroke-linecap="round"/>
<rect x="703.3" y="474.0" width="76.0" height="8.0" rx="2" fill="#5cc8ff" fill-opacity="0.35"/>
<rect x="703.3" y="393.6" width="76.0" height="80.4" rx="6" fill="#5cc8ff" fill-opacity="0.24" stroke="#5cc8ff" stroke-width="2.5" stroke-opacity="0.8"/>
<line x1="741.3" y1="393.6" x2="741.3" y2="474.0" stroke="#5cc8ff" stroke-opacity="0.18" stroke-width="2" stroke-linecap="round"/>
<rect x="618.0" y="358.0" width="70.6" height="8.0" rx="2" fill="#5cc8ff" fill-opacity="0.35"/>
<rect x="618.0" y="294.1" width="70.6" height="63.9" rx="6" fill="#5cc8ff" fill-opacity="0.24" stroke="#5cc8ff" stroke-width="2.5" stroke-opacity="0.8"/>
<line x1="653.3" y1="294.1" x2="653.3" y2="358.0" stroke="#5cc8ff" stroke-opacity="0.18" stroke-width="2" stroke-linecap="round"/>
<rect x="700.6" y="358.0" width="72.0" height="8.0" rx="2" fill="#5cc8ff" fill-opacity="0.35"/>
<rect x="700.6" y="279.4" width="72.0" height="78.6" rx="6" fill="#5cc8ff" fill-opacity="0.24" stroke="#5cc8ff" stroke-width="2.5" stroke-opacity="0.8"/>
<line x1="736.6" y1="279.4" x2="736.6" y2="358.0" stroke="#5cc8ff" stroke-opacity="0.18" stroke-width="2" stroke-linecap="round"/>
<rect x="455.0" y="654.0" width="70.0" height="44.0" rx="6" fill="#5cc8ff" fill-opacity="0.28" stroke="#5cc8ff" stroke-width="3"/><rect x="511.0" y="616.0" width="16.0" height="84.0" rx="3" fill="#5cc8ff" fill-opacity="0.2" stroke="#5cc8ff" stroke-width="3"/><line x1="527.0" y1="694.0" x2="565.0" y2="694.0" stroke="#5cc8ff" stroke-opacity="0.85" stroke-width="4" stroke-linecap="round"/><line x1="527.0" y1="682.0" x2="557.0" y2="682.0" stroke="#5cc8ff" stroke-opacity="0.5" stroke-width="3" stroke-linecap="round"/><line x1="461.0" y1="654.0" x2="461.0" y2="616.0" stroke="#5cc8ff" stroke-opacity="0.7" stroke-width="3" stroke-linecap="round"/><line x1="503.0" y1="654.0" x2="503.0" y2="616.0" stroke="#5cc8ff" stroke-opacity="0.7" stroke-width="3" stroke-linecap="round"/><line x1="461.0" y1="616.0" x2="505.0" y2="616.0" stroke="#5cc8ff" stroke-opacity="0.7" stroke-width="3" stroke-linecap="round"/><circle cx="471" cy="704" r="13" fill="#0a141d" stroke="#5cc8ff" stroke-width="3.5"/><circle cx="509" cy="704" r="13" fill="#0a141d" stroke="#5cc8ff" stroke-width="3.5"/>
<circle cx="838" cy="196" r="62" fill="#5cc8ff" fill-opacity="0.09" filter="url(#bloom)"/>
<path d="M 817 192 v -16 a 21 21 0 0 1 42 0 v 16" fill="none" stroke="#5cc8ff" stroke-width="6" stroke-linecap="round"/>
<rect x="806.0" y="192.0" width="64.0" height="52.0" rx="12" fill="#0a1622" stroke="#5cc8ff" stroke-width="4"/>
<circle cx="838" cy="212" r="7" fill="#5cc8ff"/>
<rect x="835.0" y="215.0" width="6.0" height="14.0" rx="3" fill="#5cc8ff"/>
<line x1="838" y1="212" x2="792" y2="276" stroke="#5cc8ff" stroke-opacity="0.14" stroke-width="1.5"/>
<circle cx="792" cy="276" r="6" fill="#5cc8ff" fill-opacity="0.7"/>
<line x1="838" y1="212" x2="750" y2="223" stroke="#5cc8ff" stroke-opacity="0.14" stroke-width="1.5"/>
<circle cx="750" cy="223" r="6" fill="#5cc8ff" fill-opacity="0.7"/>
<line x1="838" y1="212" x2="755" y2="156" stroke="#5cc8ff" stroke-opacity="0.14" stroke-width="1.5"/>
<circle cx="755" cy="156" r="6" fill="#5cc8ff" fill-opacity="0.7"/>
<line x1="838" y1="212" x2="804" y2="110" stroke="#5cc8ff" stroke-opacity="0.14" stroke-width="1.5"/>
<circle cx="804" cy="110" r="6" fill="#5cc8ff" fill-opacity="0.7"/>
<line x1="838" y1="212" x2="872" y2="110" stroke="#5cc8ff" stroke-opacity="0.14" stroke-width="1.5"/>
<circle cx="872" cy="110" r="6" fill="#5cc8ff" fill-opacity="0.7"/>
<line x1="838" y1="212" x2="921" y2="156" stroke="#5cc8ff" stroke-opacity="0.14" stroke-width="1.5"/>
<circle cx="921" cy="156" r="6" fill="#5cc8ff" fill-opacity="0.7"/>
<line x1="838" y1="212" x2="926" y2="223" stroke="#5cc8ff" stroke-opacity="0.14" stroke-width="1.5"/>
<circle cx="926" cy="223" r="6" fill="#5cc8ff" fill-opacity="0.7"/>
<line x1="838" y1="212" x2="884" y2="276" stroke="#5cc8ff" stroke-opacity="0.14" stroke-width="1.5"/>
<circle cx="884" cy="276" r="6" fill="#5cc8ff" fill-opacity="0.7"/>
<rect width="1000" height="1000" fill="url(#vig)"/>
</svg>