<svg xmlns="http://www.w3.org/2000/svg" width="1000" height="1000" viewBox="0 0 1000 1000" fill="none">
<defs>
<linearGradient id="bg" x1="0" y1="0" x2="0.4" y2="1"><stop offset="0" stop-color="#0c2114"/><stop offset="0.55" stop-color="#08160e"/><stop offset="1" stop-color="#050806"/></linearGradient>
<radialGradient id="glow" cx="0.5" cy="0.48" r="0.62"><stop offset="0" stop-color="#25d366" stop-opacity="0.28"/><stop offset="0.5" stop-color="#25d366" stop-opacity="0.06"/><stop offset="1" stop-color="#25d366" stop-opacity="0"/></radialGradient>
<filter id="bloom" x="-60%" y="-60%" width="220%" height="220%"><feGaussianBlur stdDeviation="12"/></filter>
<radialGradient id="vig" cx="0.5" cy="0.46" r="0.75"><stop offset="0.55" stop-color="#000" stop-opacity="0"/><stop offset="1" stop-color="#000" stop-opacity="0.46"/></radialGradient>
</defs>
<rect width="1000" height="1000" fill="url(#bg)"/>
<rect width="1000" height="1000" fill="url(#glow)"/>
<circle cx="80" cy="120" r="2" fill="#25d366" fill-opacity="0.05"/><circle cx="136" cy="120" r="2" fill="#25d366" fill-opacity="0.05"/><circle cx="192" cy="120" r="2" fill="#25d366" fill-opacity="0.05"/><circle cx="248" cy="120" r="2" fill="#25d366" fill-opacity="0.05"/><circle cx="304" cy="120" r="2" fill="#25d366" fill-opacity="0.05"/><circle cx="360" cy="120" r="2" fill="#25d366" fill-opacity="0.05"/><circle cx="416" cy="120" r="2" fill="#25d366" fill-opacity="0.05"/><circle cx="472" cy="120" r="2" fill="#25d366" fill-opacity="0.05"/><circle cx="528" cy="120" r="2" fill="#25d366" fill-opacity="0.05"/><circle cx="584" cy="120" r="2" fill="#25d366" fill-opacity="0.05"/><circle cx="640" cy="120" r="2" fill="#25d366" fill-opacity="0.05"/><circle cx="696" cy="120" r="2" fill="#25d366" fill-opacity="0.05"/><circle cx="752" cy="120" r="2" fill="#25d366" fill-opacity="0.05"/><circle cx="808" cy="120" r="2" fill="#25d366" fill-opacity="0.05"/><circle cx="864" cy="120" r="2" fill="#25d366" fill-opacity="0.05"/><circle cx="920" cy="120" r="2" fill="#25d366" fill-opacity="0.05"/><circle cx="80" cy="176" r="2" fill="#25d366" fill-opacity="0.05"/><circle cx="136" cy="176" r="2" fill="#25d366" fill-opacity="0.05"/><circle cx="192" cy="176" r="2" fill="#25d366" fill-opacity="0.05"/><circle cx="248" cy="176" r="2" fill="#25d366" fill-opacity="0.05"/><circle cx="304" cy="176" r="2" fill="#25d366" fill-opacity="0.05"/><circle cx="360" cy="176" r="2" fill="#25d366" fill-opacity="0.05"/><circle cx="416" cy="176" r="2" fill="#25d366" fill-opacity="0.05"/><circle cx="472" cy="176" r="2" fill="#25d366" fill-opacity="0.05"/><circle cx="528" cy="176" r="2" fill="#25d366" fill-opacity="0.05"/><circle cx="584" cy="176" r="2" fill="#25d366" fill-opacity="0.05"/><circle cx="640" cy="176" r="2" fill="#25d366" fill-opacity="0.05"/><circle cx="696" cy="176" r="2" fill="#25d366" fill-opacity="0.05"/><circle cx="752" cy="176" r="2" fill="#25d366" fill-opacity="0.05"/><circle cx="808" cy="176" r="2" fill="#25d366" fill-opacity="0.05"/><circle cx="864" cy="176" r="2" fill="#25d366" fill-opacity="0.05"/><circle cx="920" cy="176" r="2" fill="#25d366" fill-opacity="0.05"/><circle cx="80" cy="232" r="2" fill="#25d366" fill-opacity="0.05"/><circle cx="136" cy="232" r="2" fill="#25d366" fill-opacity="0.05"/><circle cx="192" cy="232" r="2" fill="#25d366" fill-opacity="0.05"/><circle cx="248" cy="232" r="2" fill="#25d366" fill-opacity="0.05"/><circle cx="304" cy="232" r="2" fill="#25d366" fill-opacity="0.05"/><circle cx="360" cy="232" r="2" fill="#25d366" fill-opacity="0.05"/><circle cx="416" cy="232" r="2" fill="#25d366" fill-opacity="0.05"/><circle cx="472" cy="232" r="2" fill="#25d366" fill-opacity="0.05"/><circle cx="528" cy="232" r="2" fill="#25d366" fill-opacity="0.05"/><circle cx="584" cy="232" r="2" fill="#25d366" fill-opacity="0.05"/><circle cx="640" cy="232" r="2" fill="#25d366" fill-opacity="0.05"/><circle cx="696" cy="232" r="2" fill="#25d366" fill-opacity="0.05"/><circle cx="752" cy="232" r="2" fill="#25d366" fill-opacity="0.05"/><circle cx="808" cy="232" r="2" fill="#25d366" fill-opacity="0.05"/><circle cx="864" cy="232" r="2" fill="#25d366" fill-opacity="0.05"/><circle cx="920" cy="232" r="2" fill="#25d366" fill-opacity="0.05"/><circle cx="80" cy="288" r="2" fill="#25d366" fill-opacity="0.05"/><circle cx="136" cy="288" r="2" fill="#25d366" fill-opacity="0.05"/><circle cx="192" cy="288" r="2" fill="#25d366" fill-opacity="0.05"/><circle cx="248" cy="288" r="2" fill="#25d366" fill-opacity="0.05"/><circle cx="304" cy="288" r="2" fill="#25d366" fill-opacity="0.05"/><circle cx="360" cy="288" r="2" fill="#25d366" fill-opacity="0.05"/><circle cx="416" cy="288" r="2" fill="#25d366" fill-opacity="0.05"/><circle cx="472" cy="288" r="2" fill="#25d366" fill-opacity="0.05"/><circle cx="528" cy="288" r="2" fill="#25d366" fill-opacity="0.05"/><circle cx="584" cy="288" r="2" fill="#25d366" fill-opacity="0.05"/><circle cx="640" cy="288" r="2" fill="#25d366" fill-opacity="0.05"/><circle cx="696" cy="288" r="2" fill="#25d366" fill-opacity="0.05"/><circle cx="752" cy="288" r="2" fill="#25d366" fill-opacity="0.05"/><circle cx="808" cy="288" r="2" fill="#25d366" fill-opacity="0.05"/><circle cx="864" cy="288" r="2" fill="#25d366" fill-opacity="0.05"/><circle cx="920" cy="288" r="2" fill="#25d366" fill-opacity="0.05"/><circle cx="80" cy="344" r="2" fill="#25d366" fill-opacity="0.05"/><circle cx="136" cy="344" r="2" fill="#25d366" fill-opacity="0.05"/><circle cx="192" cy="344" r="2" fill="#25d366" fill-opacity="0.05"/><circle cx="248" cy="344" r="2" fill="#25d366" fill-opacity="0.05"/><circle cx="304" cy="344" r="2" fill="#25d366" fill-opacity="0.05"/><circle cx="360" cy="344" r="2" fill="#25d366" fill-opacity="0.05"/><circle cx="416" cy="344" r="2" fill="#25d366" fill-opacity="0.05"/><circle cx="472" cy="344" r="2" fill="#25d366" fill-opacity="0.05"/><circle cx="528" cy="344" r="2" fill="#25d366" fill-opacity="0.05"/><circle cx="584" cy="344" r="2" fill="#25d366" fill-opacity="0.05"/><circle cx="640" cy="344" r="2" fill="#25d366" fill-opacity="0.05"/><circle cx="696" cy="344" r="2" fill="#25d366" fill-opacity="0.05"/><circle cx="752" cy="344" r="2" fill="#25d366" fill-opacity="0.05"/><circle cx="808" cy="344" r="2" fill="#25d366" fill-opacity="0.05"/><circle cx="864" cy="344" r="2" fill="#25d366" fill-opacity="0.05"/><circle cx="920" cy="344" r="2" fill="#25d366" fill-opacity="0.05"/><circle cx="80" cy="400" r="2" fill="#25d366" fill-opacity="0.05"/><circle cx="136" cy="400" r="2" fill="#25d366" fill-opacity="0.05"/><circle cx="192" cy="400" r="2" fill="#25d366" fill-opacity="0.05"/><circle cx="248" cy="400" r="2" fill="#25d366" fill-opacity="0.05"/><circle cx="304" cy="400" r="2" fill="#25d366" fill-opacity="0.05"/><circle cx="360" cy="400" r="2" fill="#25d366" fill-opacity="0.05"/><circle cx="416" cy="400" r="2" fill="#25d366" fill-opacity="0.05"/><circle cx="472" cy="400" r="2" fill="#25d366" fill-opacity="0.05"/><circle cx="528" cy="400" r="2" fill="#25d366" fill-opacity="0.05"/><circle cx="584" cy="400" r="2" fill="#25d366" fill-opacity="0.05"/><circle cx="640" cy="400" r="2" fill="#25d366" fill-opacity="0.05"/><circle cx="696" cy="400" r="2" fill="#25d366" fill-opacity="0.05"/><circle cx="752" cy="400" r="2" fill="#25d366" fill-opacity="0.05"/><circle cx="808" cy="400" r="2" fill="#25d366" fill-opacity="0.05"/><circle cx="864" cy="400" r="2" fill="#25d366" fill-opacity="0.05"/><circle cx="920" cy="400" r="2" fill="#25d366" fill-opacity="0.05"/><circle cx="80" cy="456" r="2" fill="#25d366" fill-opacity="0.05"/><circle cx="136" cy="456" r="2" fill="#25d366" fill-opacity="0.05"/><circle cx="192" cy="456" r="2" fill="#25d366" fill-opacity="0.05"/><circle cx="248" cy="456" r="2" fill="#25d366" fill-opacity="0.05"/><circle cx="304" cy="456" r="2" fill="#25d366" fill-opacity="0.05"/><circle cx="360" cy="456" r="2" fill="#25d366" fill-opacity="0.05"/><circle cx="416" cy="456" r="2" fill="#25d366" fill-opacity="0.05"/><circle cx="472" cy="456" r="2" fill="#25d366" fill-opacity="0.05"/><circle cx="528" cy="456" r="2" fill="#25d366" fill-opacity="0.05"/><circle cx="584" cy="456" r="2" fill="#25d366" fill-opacity="0.05"/><circle cx="640" cy="456" r="2" fill="#25d366" fill-opacity="0.05"/><circle cx="696" cy="456" r="2" fill="#25d366" fill-opacity="0.05"/><circle cx="752" cy="456" r="2" fill="#25d366" fill-opacity="0.05"/><circle cx="808" cy="456" r="2" fill="#25d366" fill-opacity="0.05"/><circle cx="864" cy="456" r="2" fill="#25d366" fill-opacity="0.05"/><circle cx="920" cy="456" r="2" fill="#25d366" fill-opacity="0.05"/><circle cx="80" cy="512" r="2" fill="#25d366" fill-opacity="0.05"/><circle cx="136" cy="512" r="2" fill="#25d366" fill-opacity="0.05"/><circle cx="192" cy="512" r="2" fill="#25d366" fill-opacity="0.05"/><circle cx="248" cy="512" r="2" fill="#25d366" fill-opacity="0.05"/><circle cx="304" cy="512" r="2" fill="#25d366" fill-opacity="0.05"/><circle cx="360" cy="512" r="2" fill="#25d366" fill-opacity="0.05"/><circle cx="416" cy="512" r="2" fill="#25d366" fill-opacity="0.05"/><circle cx="472" cy="512" r="2" fill="#25d366" fill-opacity="0.05"/><circle cx="528" cy="512" r="2" fill="#25d366" fill-opacity="0.05"/><circle cx="584" cy="512" r="2" fill="#25d366" fill-opacity="0.05"/><circle cx="640" cy="512" r="2" fill="#25d366" fill-opacity="0.05"/><circle cx="696" cy="512" r="2" fill="#25d366" fill-opacity="0.05"/><circle cx="752" cy="512" r="2" fill="#25d366" fill-opacity="0.05"/><circle cx="808" cy="512" r="2" fill="#25d366" fill-opacity="0.05"/><circle cx="864" cy="512" r="2" fill="#25d366" fill-opacity="0.05"/><circle cx="920" cy="512" r="2" fill="#25d366" fill-opacity="0.05"/><circle cx="80" cy="568" r="2" fill="#25d366" fill-opacity="0.05"/><circle cx="136" cy="568" r="2" fill="#25d366" fill-opacity="0.05"/><circle cx="192" cy="568" r="2" fill="#25d366" fill-opacity="0.05"/><circle cx="248" cy="568" r="2" fill="#25d366" fill-opacity="0.05"/><circle cx="304" cy="568" r="2" fill="#25d366" fill-opacity="0.05"/><circle cx="360" cy="568" r="2" fill="#25d366" fill-opacity="0.05"/><circle cx="416" cy="568" r="2" fill="#25d366" fill-opacity="0.05"/><circle cx="472" cy="568" r="2" fill="#25d366" fill-opacity="0.05"/><circle cx="528" cy="568" r="2" fill="#25d366" fill-opacity="0.05"/><circle cx="584" cy="568" r="2" fill="#25d366" fill-opacity="0.05"/><circle cx="640" cy="568" r="2" fill="#25d366" fill-opacity="0.05"/><circle cx="696" cy="568" r="2" fill="#25d366" fill-opacity="0.05"/><circle cx="752" cy="568" r="2" fill="#25d366" fill-opacity="0.05"/><circle cx="808" cy="568" r="2" fill="#25d366" fill-opacity="0.05"/><circle cx="864" cy="568" r="2" fill="#25d366" fill-opacity="0.05"/><circle cx="920" cy="568" r="2" fill="#25d366" fill-opacity="0.05"/><circle cx="80" cy="624" r="2" fill="#25d366" fill-opacity="0.05"/><circle cx="136" cy="624" r="2" fill="#25d366" fill-opacity="0.05"/><circle cx="192" cy="624" r="2" fill="#25d366" fill-opacity="0.05"/><circle cx="248" cy="624" r="2" fill="#25d366" fill-opacity="0.05"/><circle cx="304" cy="624" r="2" fill="#25d366" fill-opacity="0.05"/><circle cx="360" cy="624" r="2" fill="#25d366" fill-opacity="0.05"/><circle cx="416" cy="624" r="2" fill="#25d366" fill-opacity="0.05"/><circle cx="472" cy="624" r="2" fill="#25d366" fill-opacity="0.05"/><circle cx="528" cy="624" r="2" fill="#25d366" fill-opacity="0.05"/><circle cx="584" cy="624" r="2" fill="#25d366" fill-opacity="0.05"/><circle cx="640" cy="624" r="2" fill="#25d366" fill-opacity="0.05"/><circle cx="696" cy="624" r="2" fill="#25d366" fill-opacity="0.05"/><circle cx="752" cy="624" r="2" fill="#25d366" fill-opacity="0.05"/><circle cx="808" cy="624" r="2" fill="#25d366" fill-opacity="0.05"/><circle cx="864" cy="624" r="2" fill="#25d366" fill-opacity="0.05"/><circle cx="920" cy="624" r="2" fill="#25d366" fill-opacity="0.05"/><circle cx="80" cy="680" r="2" fill="#25d366" fill-opacity="0.05"/><circle cx="136" cy="680" r="2" fill="#25d366" fill-opacity="0.05"/><circle cx="192" cy="680" r="2" fill="#25d366" fill-opacity="0.05"/><circle cx="248" cy="680" r="2" fill="#25d366" fill-opacity="0.05"/><circle cx="304" cy="680" r="2" fill="#25d366" fill-opacity="0.05"/><circle cx="360" cy="680" r="2" fill="#25d366" fill-opacity="0.05"/><circle cx="416" cy="680" r="2" fill="#25d366" fill-opacity="0.05"/><circle cx="472" cy="680" r="2" fill="#25d366" fill-opacity="0.05"/><circle cx="528" cy="680" r="2" fill="#25d366" fill-opacity="0.05"/><circle cx="584" cy="680" r="2" fill="#25d366" fill-opacity="0.05"/><circle cx="640" cy="680" r="2" fill="#25d366" fill-opacity="0.05"/><circle cx="696" cy="680" r="2" fill="#25d366" fill-opacity="0.05"/><circle cx="752" cy="680" r="2" fill="#25d366" fill-opacity="0.05"/><circle cx="808" cy="680" r="2" fill="#25d366" fill-opacity="0.05"/><circle cx="864" cy="680" r="2" fill="#25d366" fill-opacity="0.05"/><circle cx="920" cy="680" r="2" fill="#25d366" fill-opacity="0.05"/><circle cx="80" cy="736" r="2" fill="#25d366" fill-opacity="0.05"/><circle cx="136" cy="736" r="2" fill="#25d366" fill-opacity="0.05"/><circle cx="192" cy="736" r="2" fill="#25d366" fill-opacity="0.05"/><circle cx="248" cy="736" r="2" fill="#25d366" fill-opacity="0.05"/><circle cx="304" cy="736" r="2" fill="#25d366" fill-opacity="0.05"/><circle cx="360" cy="736" r="2" fill="#25d366" fill-opacity="0.05"/><circle cx="416" cy="736" r="2" fill="#25d366" fill-opacity="0.05"/><circle cx="472" cy="736" r="2" fill="#25d366" fill-opacity="0.05"/><circle cx="528" cy="736" r="2" fill="#25d366" fill-opacity="0.05"/><circle cx="584" cy="736" r="2" fill="#25d366" fill-opacity="0.05"/><circle cx="640" cy="736" r="2" fill="#25d366" fill-opacity="0.05"/><circle cx="696" cy="736" r="2" fill="#25d366" fill-opacity="0.05"/><circle cx="752" cy="736" r="2" fill="#25d366" fill-opacity="0.05"/><circle cx="808" cy="736" r="2" fill="#25d366" fill-opacity="0.05"/><circle cx="864" cy="736" r="2" fill="#25d366" fill-opacity="0.05"/><circle cx="920" cy="736" r="2" fill="#25d366" fill-opacity="0.05"/><circle cx="80" cy="792" r="2" fill="#25d366" fill-opacity="0.05"/><circle cx="136" cy="792" r="2" fill="#25d366" fill-opacity="0.05"/><circle cx="192" cy="792" r="2" fill="#25d366" fill-opacity="0.05"/><circle cx="248" cy="792" r="2" fill="#25d366" fill-opacity="0.05"/><circle cx="304" cy="792" r="2" fill="#25d366" fill-opacity="0.05"/><circle cx="360" cy="792" r="2" fill="#25d366" fill-opacity="0.05"/><circle cx="416" cy="792" r="2" fill="#25d366" fill-opacity="0.05"/><circle cx="472" cy="792" r="2" fill="#25d366" fill-opacity="0.05"/><circle cx="528" cy="792" r="2" fill="#25d366" fill-opacity="0.05"/><circle cx="584" cy="792" r="2" fill="#25d366" fill-opacity="0.05"/><circle cx="640" cy="792" r="2" fill="#25d366" fill-opacity="0.05"/><circle cx="696" cy="792" r="2" fill="#25d366" fill-opacity="0.05"/><circle cx="752" cy="792" r="2" fill="#25d366" fill-opacity="0.05"/><circle cx="808" cy="792" r="2" fill="#25d366" fill-opacity="0.05"/><circle cx="864" cy="792" r="2" fill="#25d366" fill-opacity="0.05"/><circle cx="920" cy="792" r="2" fill="#25d366" fill-opacity="0.05"/><circle cx="80" cy="848" r="2" fill="#25d366" fill-opacity="0.05"/><circle cx="136" cy="848" r="2" fill="#25d366" fill-opacity="0.05"/><circle cx="192" cy="848" r="2" fill="#25d366" fill-opacity="0.05"/><circle cx="248" cy="848" r="2" fill="#25d366" fill-opacity="0.05"/><circle cx="304" cy="848" r="2" fill="#25d366" fill-opacity="0.05"/><circle cx="360" cy="848" r="2" fill="#25d366" fill-opacity="0.05"/><circle cx="416" cy="848" r="2" fill="#25d366" fill-opacity="0.05"/><circle cx="472" cy="848" r="2" fill="#25d366" fill-opacity="0.05"/><circle cx="528" cy="848" r="2" fill="#25d366" fill-opacity="0.05"/><circle cx="584" cy="848" r="2" fill="#25d366" fill-opacity="0.05"/><circle cx="640" cy="848" r="2" fill="#25d366" fill-opacity="0.05"/><circle cx="696" cy="848" r="2" fill="#25d366" fill-opacity="0.05"/><circle cx="752" cy="848" r="2" fill="#25d366" fill-opacity="0.05"/><circle cx="808" cy="848" r="2" fill="#25d366" fill-opacity="0.05"/><circle cx="864" cy="848" r="2" fill="#25d366" fill-opacity="0.05"/><circle cx="920" cy="848" r="2" fill="#25d366" fill-opacity="0.05"/>
<path d="M 205 500 C 362.5 500 362.5 360 520 360" stroke="#25d366" stroke-opacity="0.45" stroke-width="3" fill="none"/>
<path d="M 205 500 C 362.5 500 362.5 645 520 645" stroke="#25d366" stroke-opacity="0.45" stroke-width="3" fill="none"/>
<path d="M 520 360 C 670.0 360 670.0 500 820 500" stroke="#25d366" stroke-opacity="0.45" stroke-width="3" fill="none"/>
<path d="M 520 645 C 670.0 645 670.0 500 820 500" stroke="#25d366" stroke-opacity="0.45" stroke-width="3" fill="none"/>
<circle cx="318.1" cy="466.2" r="5" fill="#7dffb8" fill-opacity="0.9"/><circle cx="391.4" cy="405.3" r="5" fill="#7dffb8" fill-opacity="0.9"/><circle cx="469.6" cy="365.6" r="5" fill="#7dffb8" fill-opacity="0.9"/><circle cx="318.1" cy="535.0" r="5" fill="#7dffb8" fill-opacity="0.9"/><circle cx="391.4" cy="598.1" r="5" fill="#7dffb8" fill-opacity="0.9"/><circle cx="469.6" cy="639.2" r="5" fill="#7dffb8" fill-opacity="0.9"/><circle cx="627.8" cy="393.8" r="5" fill="#7dffb8" fill-opacity="0.9"/><circle cx="697.5" cy="454.7" r="5" fill="#7dffb8" fill-opacity="0.9"/><circle cx="772.0" cy="494.4" r="5" fill="#7dffb8" fill-opacity="0.9"/><circle cx="627.8" cy="610.0" r="5" fill="#7dffb8" fill-opacity="0.9"/><circle cx="697.5" cy="546.9" r="5" fill="#7dffb8" fill-opacity="0.9"/><circle cx="772.0" cy="505.8" r="5" fill="#7dffb8" fill-opacity="0.9"/>
<circle cx="205" cy="500" r="58" fill="#25d366" fill-opacity="0.12" filter="url(#bloom)"/>
<circle cx="205" cy="500" r="48" fill="#0a1a10" stroke="#25d366" stroke-width="3"/>
<path d="M 213 476 L 191 504 L 207 504 L 197 526 L 221 494 L 205 494 Z" fill="#25d366"/>
<rect x="428" y="308" width="184" height="104" rx="26" fill="#0c2014" stroke="#25d366" stroke-width="3"/>
<circle cx="486" cy="360" r="9" fill="#25d366"/>
<circle cx="520" cy="360" r="9" fill="#25d366"/>
<circle cx="554" cy="360" r="9" fill="#25d366"/>
<rect x="428" y="593" width="184" height="104" rx="26" fill="#0c2014" stroke="#25d366" stroke-width="3" stroke-opacity="0.8"/>
<rect x="464" y="623" width="112" height="14" rx="7" fill="#25d366" fill-opacity="0.85"/>
<rect x="464" y="655" width="78" height="14" rx="7" fill="#25d366" fill-opacity="0.45"/>
<circle cx="820" cy="500" r="62" fill="#25d366" fill-opacity="0.14" filter="url(#bloom)"/>
<circle cx="820" cy="500" r="52" fill="#0a1a10" stroke="#7dffb8" stroke-width="3"/>
<path d="M 790 500 L 808 520 L 842 478" stroke="#7dffb8" stroke-width="6" stroke-linecap="round" stroke-linejoin="round" fill="none"/>
<path d="M 812 500 L 826 516 L 860 474" stroke="#7dffb8" stroke-width="6" stroke-linecap="round" stroke-linejoin="round" fill="none" opacity="0.8"/>
<rect x="690" y="150" width="210" height="96" rx="20" fill="#0e2417" stroke="#25d366" stroke-width="2.5" stroke-opacity="0.7"/><path d="M 712 246 l -4 22 l -20 -22 Z" fill="#0e2417" stroke="#25d366" stroke-width="2.5" stroke-opacity="0.7"/><rect x="712" y="174" width="130" height="11" rx="5" fill="#25d366" fill-opacity="0.55"/><rect x="712" y="196" width="166" height="11" rx="5" fill="#25d366" fill-opacity="0.3"/>
<rect x="120" y="740" width="200" height="92" rx="20" fill="#0e2417" stroke="#25d366" stroke-width="2.5" stroke-opacity="0.7"/><path d="M 298 832 l 4 22 l 20 -22 Z" fill="#0e2417" stroke="#25d366" stroke-width="2.5" stroke-opacity="0.7"/><rect x="142" y="764" width="120" height="11" rx="5" fill="#25d366" fill-opacity="0.55"/><rect x="142" y="786" width="156" height="11" rx="5" fill="#25d366" fill-opacity="0.3"/>
<rect width="1000" height="1000" fill="url(#vig)"/>
</svg>